<?xml version="1.0" encoding="UTF-8"?>
<svg version="1.1" xmlns="http://www.w3.org/2000/svg" width="2048" height="2048">
<path d="M0 0 C5.52567087 0.00164854 11.05133807 -0.00252049 16.57700773 -0.00590918 C26.2426769 -0.01103989 35.90834106 -0.01248444 45.57401146 -0.01145306 C59.27392994 -0.00999481 72.97384347 -0.01360763 86.67376091 -0.01859264 C114.52067627 -0.02871036 142.36758961 -0.03179764 170.2145066 -0.03238475 C173.20737246 -0.0324495 176.20023831 -0.03251744 179.19310416 -0.03258816 C180.30727747 -0.03261366 180.30727747 -0.03261366 181.44395933 -0.03263968 C197.93933557 -0.03304898 214.43471144 -0.03524162 230.93008748 -0.037744 C237.73266451 -0.03877243 244.53524155 -0.0397625 251.33781858 -0.04076025 C252.08955756 -0.04087084 252.84129654 -0.04098143 253.61581549 -0.04109537 C296.66747286 -0.04741539 339.71912999 -0.05154493 382.77078785 -0.05108681 C384.38032051 -0.05107104 385.98985317 -0.0510553 387.59938583 -0.05103961 C394.8654886 -0.05096623 402.13159136 -0.05087806 409.39769412 -0.05078572 C412.63750245 -0.0507446 415.87731078 -0.05070445 419.1171191 -0.05066441 C420.73869758 -0.05064401 422.36027605 -0.05062299 423.98185453 -0.05060135 C475.23379456 -0.04992143 526.48572769 -0.05723451 577.73766579 -0.07114163 C590.64831888 -0.07464304 603.55897198 -0.07811268 616.46962513 -0.08140603 C617.2647329 -0.0816089 618.05984066 -0.08181178 618.8790426 -0.0820208 C643.41248747 -0.08824258 667.94593178 -0.09200267 692.4793774 -0.09326401 C693.63595023 -0.09332394 693.63595023 -0.09332394 694.81588816 -0.09338508 C711.74805528 -0.09423864 728.68022237 -0.09449945 745.61238951 -0.0942147 C751.6721119 -0.09411823 757.73183429 -0.09406618 763.79155668 -0.09403597 C765.29888689 -0.09402806 766.8062171 -0.09401785 768.31354731 -0.09400535 C792.25959138 -0.09382955 816.20562951 -0.09950573 840.15167188 -0.10815916 C864.29217113 -0.11683849 888.43266217 -0.1189753 912.57316232 -0.11239784 C927.52786575 -0.1083244 942.48254471 -0.10947586 957.43724561 -0.11978938 C967.00270226 -0.12582564 976.56814023 -0.12445378 986.13359605 -0.11731888 C991.56619261 -0.11346788 996.99873916 -0.11257196 1002.43133203 -0.12077623 C1022.24547747 -0.14866692 1042.01353726 -0.03789034 1061.80270352 1.0407463 C1062.54258311 1.08067146 1063.28246271 1.12059662 1064.0447629 1.16173163 C1120.8512111 4.3196079 1177.53098253 17.90917866 1229.49083962 41.13466892 C1230.60265602 41.62692966 1231.71447243 42.1191904 1232.85998024 42.62636813 C1248.31550657 49.50334872 1263.25656968 56.96082326 1277.82531227 65.56142673 C1280.42830067 67.0977573 1283.04246243 68.61341627 1285.65880837 70.12685642 C1307.93918798 83.12858949 1328.75264793 98.54890784 1348.49083962 115.13466892 C1349.00114723 115.56005954 1349.51145485 115.98545017 1350.03722634 116.42373142 C1366.08870449 129.82788854 1382.11287422 144.12376652 1395.69787087 160.06435642 C1397.82230786 162.51741002 1400.03272598 164.88170039 1402.24083962 167.25966892 C1407.47238363 173.00333697 1412.24240425 179.03738783 1416.97960915 185.19082126 C1418.5457941 187.20535512 1420.13823525 189.19664137 1421.73693337 191.18545017 C1438.884838 212.64678238 1453.17783675 235.95319726 1466.32824196 260.0179697 C1467.36574403 261.90691194 1468.41912488 263.78564229 1469.47912087 265.66201267 C1480.46887326 285.52547817 1488.92875633 306.76651481 1496.49083962 328.13466892 C1496.83066872 329.08309665 1497.17049782 330.03152438 1497.52062477 331.00869235 C1521.4761773 398.30420433 1524.82056337 467.17186318 1524.73793879 537.86068998 C1524.72904015 545.84494534 1524.73220802 553.82918661 1524.73553913 561.81344463 C1524.74143014 576.72701271 1524.73797467 591.64056502 1524.72925057 606.55413112 C1524.72046233 621.64425582 1524.71610908 636.73437236 1524.71705498 651.8244997 C1524.71714106 653.25967198 1524.71714106 653.25967198 1524.71722887 654.72383764 C1524.71754166 659.60335861 1524.71792556 664.48287957 1524.71833454 669.36240053 C1524.72114198 704.58734751 1524.7143142 739.81228725 1524.70229973 775.03723201 C1524.69043742 809.89968075 1524.68274607 844.76212639 1524.6805941 879.62457713 C1524.68052528 880.70900112 1524.68045646 881.7934251 1524.68038555 882.91071042 C1524.67975911 892.81588169 1524.67918373 902.72105297 1524.6786696 912.62622426 C1524.67739113 937.24461594 1524.67547269 961.86300755 1524.6731192 986.48139915 C1524.67301257 987.60221786 1524.67290593 988.72303656 1524.67279607 989.87781947 C1524.66755849 1044.34177371 1524.65494562 1098.8057259 1524.64171852 1153.26967868 C1524.63713502 1172.15965262 1524.63258421 1191.04962657 1524.62816872 1209.93960056 C1524.62789482 1211.1112277 1524.62762092 1212.28285484 1524.62733872 1213.48998583 C1524.61464035 1268.00031402 1524.60719609 1322.51064256 1524.60109913 1377.02097184 C1524.600703 1380.56171441 1524.60030462 1384.10245698 1524.59990577 1387.64319955 C1524.59726611 1411.10874053 1524.59471683 1434.57428152 1524.59222805 1458.03982251 C1524.58727561 1504.72669203 1524.58179227 1551.41356148 1524.57594396 1598.10043089 C1524.57566548 1600.32356333 1524.57538737 1602.54669576 1524.57510963 1604.76982819 C1524.56261042 1704.79468171 1524.54393669 1804.81953373 1524.5225779 1904.84438571 C1524.52227809 1906.2486778 1524.52227809 1906.2486778 1524.52197223 1907.68133943 C1524.5119722 1954.49911601 1524.50162426 2001.31689251 1524.49083962 2048.13466892 C1476.13545245 2048.15117246 1427.78006507 2048.16698048 1379.42467751 2048.18227634 C1378.47838192 2048.18257573 1377.53208634 2048.18287512 1376.55711513 2048.18318359 C1275.12978661 2048.2152551 1173.70245802 2048.24292184 1072.27512612 2048.26169833 C1070.0213 2048.26211669 1067.76747388 2048.26253504 1065.51364776 2048.2629534 C1018.20177633 2048.27172208 970.88990482 2048.27987216 923.57803317 2048.28730795 C899.81053501 2048.29104404 876.04303688 2048.29489895 852.27553876 2048.29886624 C848.69037597 2048.29946399 845.10521318 2048.30005834 841.5200504 2048.30065256 C786.33540557 2048.30982889 731.15076274 2048.32154847 675.96612038 2048.34066257 C674.78024985 2048.34107326 673.59437931 2048.34148396 672.37257331 2048.3419071 C653.25370535 2048.34854394 634.13483746 2048.35539487 615.01596958 2048.36227424 C559.9253076 2048.38209372 504.83464716 2048.40032136 449.74398197 2048.4080883 C448.0434258 2048.4083292 448.0434258 2048.4083292 446.30851496 2048.40857498 C421.41660181 2048.41207286 396.52468865 2048.41475715 371.63277533 2048.41667186 C361.61600071 2048.41745669 351.59922609 2048.41835856 341.58245148 2048.41930064 C340.48618226 2048.41940093 339.38991304 2048.41950121 338.26042354 2048.41960453 C302.98107325 2048.42288987 267.70173435 2048.43568951 232.42238866 2048.45351554 C196.86269999 2048.47143944 161.30302234 2048.47995851 125.74332905 2048.47554088 C120.82091352 2048.4749317 115.898498 2048.47442953 110.97608246 2048.47399196 C109.52877748 2048.4738575 109.52877748 2048.4738575 108.05223401 2048.47372032 C92.8203397 2048.47258171 77.58846883 2048.48150239 62.35658089 2048.4946985 C47.35087235 2048.50748934 32.34519396 2048.50944729 17.33948251 2048.50016436 C9.32374063 2048.49549716 1.30807015 2048.49544837 -6.70766304 2048.50931846 C-68.65444687 2048.61169303 -68.65444687 2048.61169303 -94.50916038 2045.13466892 C-95.47075781 2045.00784776 -96.43235524 2044.88102661 -97.42309198 2044.75036239 C-102.62073215 2044.05276271 -107.78437219 2043.24420911 -112.94666038 2042.32216892 C-114.4585368 2042.06017663 -115.97041845 2041.79821454 -117.48230491 2041.53628024 C-208.83790071 2025.4910231 -303.39508775 1982.33748855 -368.72009788 1914.92763767 C-370.57833074 1913.06534753 -372.51389864 1911.34874513 -374.50916038 1909.63466892 C-380.64312134 1904.34097658 -386.19492806 1898.59730244 -391.47009788 1892.45498142 C-393.54439379 1890.09457573 -395.67325161 1887.79579451 -397.81824241 1885.49990329 C-403.65472475 1879.24665936 -409.20392027 1872.85016274 -414.50916038 1866.13466892 C-415.02736351 1865.48369235 -415.54556663 1864.83271579 -416.07947288 1864.16201267 C-424.33897693 1853.771632 -432.1771619 1843.19878146 -439.50916038 1832.13466892 C-439.9585598 1831.46113376 -440.40795921 1830.7875986 -440.87097679 1830.09365329 C-453.03788869 1811.81091515 -463.61180829 1792.72939235 -473.50916038 1773.13466892 C-474.16464866 1771.8398862 -474.16464866 1771.8398862 -474.83337913 1770.51894626 C-509.13406582 1702.1946169 -523.73458304 1625.69202069 -523.63779484 1549.63832053 C-523.63914575 1547.76692282 -523.64093202 1545.89552538 -523.64310707 1544.02412844 C-523.6477881 1538.9257894 -523.6463515 1533.82746845 -523.6438293 1528.72912858 C-523.6421842 1523.16543821 -523.64634699 1517.60175152 -523.64973847 1512.03806236 C-523.65487464 1502.30107728 -523.65631278 1492.56409716 -523.65528236 1482.82711086 C-523.65382543 1469.02582249 -523.6574338 1455.22453858 -523.66242194 1441.42325134 C-523.67254516 1413.3726683 -523.67562715 1385.32208727 -523.67621405 1357.27150262 C-523.6762788 1354.25576436 -523.67634674 1351.2400261 -523.67641745 1348.22428784 C-523.67643446 1347.47584611 -523.67645146 1346.72740439 -523.67646898 1345.95628262 C-523.67687812 1329.34205754 -523.67907024 1312.72783284 -523.6815733 1296.11360797 C-523.68260172 1289.26397656 -523.68359178 1282.41434515 -523.68458955 1275.56471375 C-523.68470014 1274.80779437 -523.68481073 1274.050875 -523.68492467 1273.27101868 C-523.69124561 1229.91655197 -523.69537413 1186.56208552 -523.69491611 1143.20761833 C-523.69490034 1141.58641523 -523.6948846 1139.96521214 -523.69486891 1138.34400905 C-523.69479553 1131.02507275 -523.69470736 1123.70613645 -523.69461502 1116.38720015 C-523.6945739 1113.12377455 -523.69453375 1109.86034894 -523.69449371 1106.59692334 C-523.69447331 1104.96352297 -523.69445229 1103.3301226 -523.69443065 1101.69672222 C-523.69375071 1050.07015921 -523.70106366 998.44360306 -523.71497093 946.81704196 C-523.71847228 933.81235658 -523.72194189 920.80767119 -523.72523533 907.80298576 C-523.72553964 906.60167138 -523.72553964 906.60167138 -523.7258501 905.37608803 C-523.73207097 880.66835008 -523.7358318 855.96061269 -523.73709331 831.25287399 C-523.73713326 830.47645194 -523.73717322 829.70002989 -523.73721438 828.9000799 C-523.7380679 811.85065106 -523.73832877 794.80122225 -523.738044 777.75179339 C-523.73794753 771.65022219 -523.73789548 765.54865098 -523.73786527 759.44707978 C-523.73785736 757.92931129 -523.73784715 756.4115428 -523.73783465 754.89377431 C-523.73765877 730.77171467 -523.74333805 706.64966093 -523.75198846 682.52760299 C-523.76066391 658.21201375 -523.7628079 633.89643264 -523.75622714 609.5808425 C-523.75215076 594.51432933 -523.75331402 579.44783758 -523.76361868 564.38132647 C-523.76964797 554.74809541 -523.76829067 545.11488291 -523.76114818 535.48165268 C-523.7572914 530.00783304 -523.75641855 524.53406308 -523.76460553 519.06024707 C-523.87233482 441.79517582 -514.24520088 366.27365129 -482.50916038 295.13466892 C-482.04396995 294.08231052 -481.57877952 293.02995212 -481.09949241 291.94570407 C-467.30365677 260.87396065 -450.51545007 231.62941177 -430.50916038 204.13466892 C-429.98048363 203.4063486 -429.45180687 202.67802829 -428.9071096 201.92763767 C-422.93732031 193.74092568 -416.72059178 185.837723 -410.10291038 178.16591892 C-407.61724391 175.2609834 -405.21385286 172.30421707 -402.82166038 169.32216892 C-399.54929337 165.29733248 -396.10368689 161.61631867 -392.38416038 158.00576267 C-390.61439238 156.23968168 -388.99790418 154.41792095 -387.38416038 152.50966892 C-380.09970435 144.05300156 -371.99562846 136.02861655 -363.47400413 128.82216892 C-361.04958308 126.73996237 -358.72566006 124.55964685 -356.38416038 122.38466892 C-350.64049233 117.1531249 -344.60644147 112.38310428 -338.45300804 107.64589938 C-336.43847418 106.07971443 -334.44718793 104.48727328 -332.45837913 102.88857517 C-310.99704692 85.74067053 -287.69063204 71.44767178 -263.6258596 58.29726657 C-261.73691736 57.2597645 -259.85818701 56.20638366 -257.98181663 55.14638767 C-239.02447888 44.65796369 -218.77892604 36.41006113 -198.39050804 29.15957126 C-196.51754852 28.49335502 -194.64724574 27.81960511 -192.78015648 27.13711032 C-130.4127687 4.405705 -65.75258645 -0.03284178 0 0 Z " fill="#74AA9C" transform="translate(523.5091603836045,-0.13466891553252935)"/>
<path d="M0 0 C3.4156137 -0.00969243 6.8306204 -0.04083188 10.24609375 -0.07226562 C24.31295169 -0.1394524 37.92417839 0.81207021 51.83862305 2.87359619 C55.04431794 3.34794364 58.25660111 3.76914036 61.46875 4.19726562 C131.07705072 14.23580849 196.59159858 45.14839437 250.31640625 90.24023438 C251.28707031 91.02527344 252.25773437 91.8103125 253.2578125 92.61914062 C259.27631312 97.56449629 264.8785727 102.75648419 270.265625 108.38085938 C271.33369823 109.48628733 272.40181384 110.59167435 273.4699707 111.69702148 C275.60400697 113.90812901 277.70344532 116.14654216 279.78979492 118.40258789 C280.78458034 119.43933597 281.78038795 120.47510445 282.77734375 121.50976562 C283.65181152 122.44409424 284.5262793 123.37842285 285.42724609 124.34106445 C288.76069818 126.53228668 290.48085935 126.44468307 294.34326172 125.68507385 C294.99439941 125.53827682 295.64553711 125.3914798 296.31640625 125.24023438 C297.88902222 125.01799194 297.88902222 125.01799194 299.4934082 124.79125977 C301.00874146 124.56684204 301.00874146 124.56684204 302.5546875 124.33789062 C303.70646484 124.16966797 304.85824219 124.00144531 306.04492188 123.828125 C308.39162059 123.48411304 310.73798997 123.13784516 313.08398438 122.7890625 C316.8247097 122.24522018 320.56847212 121.73136911 324.31640625 121.24023438 C325.36640808 121.10042648 325.36640808 121.10042648 326.43762207 120.95779419 C338.94189957 119.33557924 351.29505353 118.95632417 363.89648438 119.03442383 C366.94539773 119.05275838 369.9940057 119.05493189 373.04296875 119.0546875 C387.52542048 119.08045764 401.97890222 119.45083214 416.37890625 121.11523438 C417.12237305 121.2005542 417.86583984 121.28587402 418.63183594 121.3737793 C426.2662855 122.2928009 433.79651285 123.64862595 441.31640625 125.24023438 C442.11997559 125.40894043 442.92354492 125.57764648 443.75146484 125.75146484 C499.47803783 137.5895335 554.11324723 159.10630381 599.62841797 193.94921875 C601.28843894 195.21884428 602.95919101 196.47298845 604.6328125 197.72460938 C626.4536737 214.14659562 648.43507532 233.06161124 665.265625 254.63085938 C667.17064812 257.05477451 669.15828429 259.38464963 671.18359375 261.70825195 C699.72903996 294.62320767 720.95912711 334.70407828 736.31640625 375.24023438 C736.6191748 376.02736816 736.92194336 376.81450195 737.23388672 377.62548828 C741.59967544 389.0351954 744.72265333 400.70995985 747.65234375 412.56152344 C748.23548974 414.91383144 748.83530048 417.26095805 749.44140625 419.60742188 C752.57484884 432.00066572 754.44145405 444.60563816 756.31640625 457.24023438 C756.43258301 458.00706543 756.54875977 458.77389648 756.66845703 459.56396484 C759.0663937 475.49827304 759.50306458 491.38211089 759.50170898 507.46484375 C759.50388762 510.34064735 759.52210277 513.21606097 759.54101562 516.09179688 C759.60514856 536.15287722 757.58283099 555.6427787 754.00390625 575.36523438 C753.85022583 576.22844299 753.69654541 577.09165161 753.53820801 577.98101807 C750.81172273 593.28347855 747.91524288 608.58035227 742.69921875 623.26757812 C742.16173295 626.03727535 742.38007281 627.54975728 743.31640625 630.24023438 C745.15175942 632.56442961 746.99527255 634.70240311 749.00390625 636.86523438 C791.22619667 683.96091407 820.0276542 745.63686526 832.44140625 807.30273438 C832.61382843 808.14797668 832.78625061 808.99321899 832.96389771 809.86407471 C835.58039076 822.73106409 837.77396607 835.55649425 839.05444336 848.63427734 C839.20557646 850.13772072 839.36794532 851.64031005 839.56100464 853.13894653 C840.32922261 859.31078271 840.49253605 865.40757834 840.51953125 871.62304688 C840.5266362 872.70271225 840.53374115 873.78237762 840.5410614 874.89476013 C840.75964036 917.96098894 837.81446311 960.03785404 824.31640625 1001.24023438 C823.76025635 1002.97756836 823.76025635 1002.97756836 823.19287109 1004.75 C807.80436242 1052.68803248 784.58914805 1097.42311949 752.31640625 1136.24023438 C751.51332031 1137.21605469 750.71023438 1138.191875 749.8828125 1139.19726562 C736.90120158 1154.84380074 722.87218502 1170.11681374 707.31640625 1183.24023438 C706.42179687 1184.02398438 705.5271875 1184.80773438 704.60546875 1185.61523438 C690.77325212 1197.65997873 675.78516798 1208.39995773 660.31640625 1218.24023438 C659.74599609 1218.60391113 659.17558594 1218.96758789 658.58789062 1219.34228516 C646.9086018 1226.71954828 634.63398519 1233.00833079 622.31640625 1239.24023438 C621.506875 1239.65305664 620.69734375 1240.06587891 619.86328125 1240.49121094 C595.76145542 1252.69583448 560.96213039 1269.71288613 533.31640625 1269.24023438 C533.16800293 1269.85954834 533.01959961 1270.4788623 532.86669922 1271.11694336 C530.74253523 1279.45645066 527.69732175 1287.35499039 524.44140625 1295.30273438 C524.15806427 1295.99765991 523.87472229 1296.69258545 523.58279419 1297.40856934 C509.88622264 1330.87539166 491.90507453 1361.9760213 469.31640625 1390.24023438 C468.55714844 1391.19285156 467.79789063 1392.14546875 467.015625 1393.12695312 C462.68091081 1398.49481163 458.19613104 1403.69363852 453.546875 1408.79101562 C452.0990173 1410.38086988 450.66329982 1411.9818976 449.2421875 1413.59570312 C440.27010539 1423.76185161 430.71429261 1433.52637481 420.31640625 1442.24023438 C418.99576172 1443.39458984 418.99576172 1443.39458984 417.6484375 1444.57226562 C357.87190112 1496.5743406 280.29237721 1530.27703694 201.31640625 1537.24023438 C199.75937988 1537.37945313 199.75937988 1537.37945313 198.17089844 1537.52148438 C127.18517328 1543.0575285 58.77907974 1531.7418375 -5.68359375 1501.24023438 C-6.50714355 1500.85109863 -7.33069336 1500.46196289 -8.17919922 1500.06103516 C-25.46860358 1491.81978617 -41.95880661 1482.17827502 -57.68359375 1471.24023438 C-58.76382813 1470.49644531 -59.8440625 1469.75265625 -60.95703125 1468.98632812 C-69.5617925 1462.99594966 -77.725906 1456.52476935 -85.78125 1449.81787109 C-87.49834111 1448.39386664 -89.2290387 1446.98894843 -90.96484375 1445.58789062 C-92.0395918 1444.7033925 -93.11248528 1443.81663649 -94.18359375 1442.92773438 C-94.73265381 1442.47857666 -95.28171387 1442.02941895 -95.84741211 1441.56665039 C-99.99444055 1438.03747141 -103.58144022 1434.14210122 -107.15625 1430.04492188 C-116.36946939 1418.73165508 -116.36946939 1418.73165508 -128.46533203 1411.40234375 C-133.96410159 1411.09949248 -138.86641806 1412.64895316 -144.02001953 1414.42138672 C-148.66530742 1415.84946147 -153.43369429 1416.2971096 -158.24609375 1416.86523438 C-159.97670148 1417.10642678 -161.70717445 1417.34858836 -163.4375 1417.59179688 C-173.11718965 1418.83903504 -182.73584511 1419.39744952 -192.4921875 1419.40820312 C-193.57959732 1419.41153152 -194.66700714 1419.41485992 -195.78736877 1419.41828918 C-198.07560814 1419.4233168 -200.36385473 1419.42569881 -202.65209961 1419.42553711 C-206.08134654 1419.4277092 -209.51026347 1419.44587072 -212.93945312 1419.46484375 C-231.43661153 1419.51301148 -249.45946027 1418.07748863 -267.74609375 1415.30273438 C-268.83857422 1415.14611328 -269.93105469 1414.98949219 -271.05664062 1414.828125 C-277.48379402 1413.86958935 -283.72290283 1412.57544789 -290.01000977 1410.93432617 C-293.36046778 1410.06451043 -296.73848429 1409.34881233 -300.12109375 1408.61523438 C-353.7445293 1396.20402391 -404.76758771 1370.54993503 -447.68359375 1336.24023438 C-448.58980469 1335.51578125 -449.49601563 1334.79132813 -450.4296875 1334.04492188 C-453.20127982 1331.80029413 -455.94342207 1329.52308085 -458.68359375 1327.24023438 C-459.66972656 1326.44101563 -460.65585937 1325.64179687 -461.671875 1324.81835938 C-469.70655434 1318.21204018 -477.12889191 1311.00925327 -484.49609375 1303.67773438 C-485.22789856 1302.95369415 -485.22789856 1302.95369415 -485.9744873 1302.21502686 C-492.67619057 1295.56944846 -498.79035978 1288.61179125 -504.68359375 1281.24023438 C-505.61860621 1280.13860387 -506.55995797 1279.04227153 -507.51171875 1277.95507812 C-520.12110651 1263.49495764 -530.78007575 1247.64477459 -540.68359375 1231.24023438 C-541.17182617 1230.43279785 -541.66005859 1229.62536133 -542.16308594 1228.79345703 C-555.79603784 1206.05239916 -566.74486784 1182.18438519 -575.68359375 1157.24023438 C-576.01584961 1156.32048828 -576.34810547 1155.40074219 -576.69042969 1154.453125 C-584.16277691 1133.57338303 -589.04675512 1112.32272403 -592.2980957 1090.40307617 C-592.66028701 1088.06873031 -592.66028701 1088.06873031 -593.68359375 1085.24023438 C-594.05617802 1082.34397384 -594.38739747 1079.45684635 -594.68359375 1076.55273438 C-594.76609375 1075.79412109 -594.84859375 1075.03550781 -594.93359375 1074.25390625 C-596.45476767 1059.6482598 -596.88950787 1045.10020888 -596.87109375 1030.42773438 C-596.8704895 1029.53249054 -596.86988525 1028.6372467 -596.8692627 1027.71487427 C-596.80473873 992.3144311 -591.47648332 958.90716372 -582.83203125 924.66601562 C-582.6422168 923.91271973 -582.45240234 923.15942383 -582.25683594 922.38330078 C-581.7248777 920.39457444 -581.10229124 918.43069593 -580.47265625 916.47070312 C-579.62840494 913.01428811 -579.38232092 911.52711475 -580.68359375 908.24023438 C-582.51894692 905.91603914 -584.36246005 903.77806564 -586.37109375 901.61523438 C-601.96464241 884.22184416 -615.06235853 864.47232982 -626.68359375 844.24023438 C-627.13992188 843.44794434 -627.59625 842.6556543 -628.06640625 841.83935547 C-641.30860957 818.66992554 -651.15562923 794.4925058 -659.68359375 769.24023438 C-660.01343262 768.29067871 -660.34327148 767.34112305 -660.68310547 766.36279297 C-666.8619942 748.47211618 -670.14694187 730.02274391 -673.30932617 711.41027832 C-673.65236077 709.42132655 -674.01374506 707.43556222 -674.37695312 705.45019531 C-680.30930645 672.74923845 -679.83912687 637.1662828 -675.68359375 604.24023438 C-675.57112305 603.32161621 -675.45865234 602.40299805 -675.34277344 601.45654297 C-674.03708942 591.03445084 -672.44382781 580.65670974 -670.16113281 570.39990234 C-669.8187082 568.8512888 -669.4858244 567.30055376 -669.15917969 565.74853516 C-657.70047763 511.68323789 -633.94025942 460.32490836 -600.68359375 416.24023438 C-600.24063965 415.6456543 -599.79768555 415.05107422 -599.34130859 414.43847656 C-583.68905148 393.42849333 -565.70936238 373.17959422 -545.68359375 356.24023438 C-544.71679688 355.38429688 -543.75 354.52835938 -542.75390625 353.64648438 C-524.3796532 337.44913349 -504.09338195 323.63626293 -482.85742188 311.48583984 C-481.42360308 310.66426039 -479.99253468 309.83785966 -478.56445312 309.00634766 C-446.7681376 290.50253615 -407.70065668 272.84627033 -370.68359375 269.24023438 C-370.44382812 267.99242187 -370.2040625 266.74460937 -369.95703125 265.45898438 C-368.65781992 259.64541046 -366.54414366 254.25009215 -364.30859375 248.74023438 C-363.87232666 247.65871094 -363.43605957 246.5771875 -362.98657227 245.46289062 C-358.070738 233.47009207 -352.48377705 221.82624917 -346.68359375 210.24023438 C-346.29349121 209.45213379 -345.90338867 208.6640332 -345.50146484 207.85205078 C-336.62273276 190.00288889 -325.59354267 173.20589679 -313.68359375 157.24023438 C-313.08949707 156.43996826 -313.08949707 156.43996826 -312.48339844 155.62353516 C-296.5361466 134.21726831 -278.17472855 113.39916594 -257.68359375 96.24023438 C-256.75675781 95.43585938 -255.82992188 94.63148438 -254.875 93.80273438 C-184.04638679 32.52816095 -93.21036794 0.15906206 0 0 Z " fill="#FEFEFE" transform="translate(942.68359375,254.759765625)"/>
<path d="M0 0 C0.56207492 19.57496115 0.98452537 39.14827447 1.24349213 58.72964668 C1.36696933 67.82333069 1.53506796 76.91198713 1.81054688 86.00244141 C2.05071728 93.93157935 2.20480059 101.85707796 2.25812387 109.78975189 C2.28928412 113.98775556 2.3616979 118.17535623 2.53752136 122.36999893 C3.56388924 147.82183607 3.56388924 147.82183607 -2.35550308 154.7614994 C-8.08035804 159.39465819 -14.35579565 162.32561403 -21.21184158 164.91178703 C-24.79011105 166.30837885 -27.85958738 168.09648736 -31.1171875 170.12109375 C-33.03610652 171.22717308 -34.95536872 172.33265727 -36.875 173.4375 C-39.05990538 174.69659802 -41.24480092 175.95571311 -43.4296875 177.21484375 C-44.51475586 177.83987793 -45.59982422 178.46491211 -46.71777344 179.10888672 C-52.14659942 182.23680148 -57.57319281 185.36858448 -63 188.5 C-65.16665583 189.75001879 -67.3333225 191.00001878 -69.5 192.25 C-70.5725 192.86875 -71.645 193.4875 -72.75 194.125 C-160.49999999 244.75 -160.49999999 244.75 -163.75048828 246.62524414 C-165.91557071 247.87435518 -168.08060982 249.12354129 -170.24560547 250.37280273 C-175.68615706 253.51202309 -181.12747216 256.64990563 -186.5703125 259.78515625 C-197.02206199 265.80747329 -207.46299548 271.84669337 -217.875 277.9375 C-227.14394376 283.35859532 -236.45569272 288.70178873 -245.78543091 294.01721191 C-253.9896916 298.69234873 -262.16407938 303.41551151 -270.3125 308.1875 C-274.20673231 310.46108739 -278.10314858 312.73090552 -282 315 C-282.94649414 315.55284668 -283.89298828 316.10569336 -284.86816406 316.67529297 C-316.086102 334.85464904 -349.49143612 350.82978009 -385.52075195 356.47705078 C-388.1788904 357.03773345 -390.48913827 357.97431625 -393 359 C-422.53605118 366.38670474 -460.28608257 364.61947143 -490 359 C-491.03608398 358.81195801 -492.07216797 358.62391602 -493.13964844 358.43017578 C-520.35978985 353.35215296 -546.24422694 344.35142263 -571 332 C-571.73234863 331.63664551 -572.46469727 331.27329102 -573.21923828 330.89892578 C-595.99912783 319.47891396 -616.66365951 304.47038464 -635.45703125 287.3203125 C-637.23466568 285.69832348 -639.02481821 284.08999545 -640.82421875 282.4921875 C-645.61092388 278.22137556 -650.15180984 273.94677977 -654.27734375 269.03125 C-656.18066339 266.78697288 -658.18163188 264.65298903 -660.1875 262.5 C-697.3218865 221.20454472 -719.0912301 166.39189898 -727 112 C-727.17877686 110.88890869 -727.35755371 109.77781738 -727.54174805 108.63305664 C-729.11685258 98.20368968 -729.35180234 87.96745665 -729.3125 77.4375 C-729.31233887 76.55256866 -729.31217773 75.66763733 -729.31201172 74.75588989 C-729.29136037 58.35410998 -728.12923443 42.26183921 -726 26 C-721.89102713 27.2576107 -718.34593014 28.77976192 -714.640625 30.94921875 C-713.11115234 31.83867188 -713.11115234 31.83867188 -711.55078125 32.74609375 C-710.46152344 33.38675781 -709.37226562 34.02742188 -708.25 34.6875 C-707.09279028 35.36256639 -705.93523143 36.03703462 -704.77734375 36.7109375 C-702.37429418 38.11015805 -699.9727608 39.51192935 -697.57226562 40.91552734 C-692.06213188 44.13449365 -686.52992383 47.31519845 -681 50.5 C-678.83323021 51.74982124 -676.66656385 52.9998218 -674.5 54.25 C-672.89125 55.178125 -672.89125 55.178125 -671.25 56.125 C-668 58 -664.75 59.875 -661.5 61.75 C-660.42733887 62.36883057 -659.35467773 62.98766113 -658.24951172 63.62524414 C-656.08442929 64.87435518 -653.91939018 66.12354129 -651.75439453 67.37280273 C-646.31384294 70.51202309 -640.87252784 73.64990563 -635.4296875 76.78515625 C-624.97793801 82.80747329 -614.53700452 88.84669337 -604.125 94.9375 C-595.44737759 100.01275123 -586.73394432 105.02258767 -578 110 C-568.27884383 115.5400173 -558.59105342 121.13374809 -548.93310547 126.78344727 C-538.40915375 132.93766742 -527.84619863 139.02369996 -517.28222656 145.10888672 C-511.85340058 148.23680148 -506.42680719 151.36858448 -501 154.5 C-498.83334417 155.75001879 -496.6666775 157.00001878 -494.5 158.25 C-455.5 180.75 -455.5 180.75 -452.24633789 182.62744141 C-450.0922579 183.86996179 -447.93780166 185.11183012 -445.78295898 186.35302734 C-440.76199479 189.24615504 -435.74473573 192.14510543 -430.74136353 195.06854248 C-428.98412618 196.09486345 -427.22565213 197.11903272 -425.46679688 198.14257812 C-423.27161715 199.42089564 -421.0787265 200.70315612 -418.88867188 201.99023438 C-407.8119467 208.42853642 -398.48537763 213.16227195 -385.625 213.375 C-384.80644531 213.41238281 -383.98789062 213.44976563 -383.14453125 213.48828125 C-370.04489539 213.66938221 -358.71183154 207.13032691 -347.75 200.625 C-346.53614863 199.91633699 -345.32161443 199.20884245 -344.10644531 198.50244141 C-341.61711311 197.05345456 -339.13138771 195.59856634 -336.6484375 194.13867188 C-332.11011735 191.47328062 -327.54572669 188.85364831 -322.98193359 186.23217773 C-313.6726172 180.88273146 -304.39309151 175.48296651 -295.125 170.0625 C-285.85494485 164.64088505 -276.5416835 159.29795143 -267.21154785 153.98077393 C-258.0871716 148.77954871 -248.99867226 143.51972122 -239.93310547 138.21655273 C-229.40915375 132.06233258 -218.84619863 125.97630004 -208.28222656 119.89111328 C-202.85340058 116.76319852 -197.42680719 113.63141552 -192 110.5 C-189.83334417 109.24998121 -187.6666775 107.99998122 -185.5 106.75 C-184.4275 106.13125 -183.355 105.5125 -182.25 104.875 C-94.50000001 54.25 -94.50000001 54.25 -91.24951172 52.37475586 C-89.08442929 51.12564482 -86.91939018 49.87645871 -84.75439453 48.62719727 C-79.31384294 45.48797691 -73.87252784 42.35009437 -68.4296875 39.21484375 C-57.89740771 33.14636384 -47.3734357 27.06437986 -36.875 20.9375 C-35.90925049 20.37393799 -34.94350098 19.81037598 -33.94848633 19.22973633 C-28.69550651 16.16254256 -23.44614783 13.08925162 -18.19921875 10.01171875 C-16.53366943 9.03634155 -16.53366943 9.03634155 -14.83447266 8.04125977 C-12.68853712 6.78447362 -10.54364253 5.52590803 -8.39990234 4.26538086 C-7.44422363 3.7060083 -6.48854492 3.14663574 -5.50390625 2.5703125 C-4.23268921 1.82418701 -4.23268921 1.82418701 -2.93579102 1.06298828 C-1 0 -1 0 0 0 Z " fill="#74AA9C" transform="translate(1176,1211)"/>
<path d="M0 0 C1.19471924 0.38212646 1.19471924 0.38212646 2.41357422 0.77197266 C30.14437493 9.67328623 56.44412252 22.88893471 80 40 C80.9892749 40.70527832 80.9892749 40.70527832 81.99853516 41.42480469 C91.84992974 48.45573477 100.72547326 56.15014785 109.44628906 64.53173828 C111.36361384 66.34361623 113.35527379 68.05358965 115.375 69.75 C120.02212312 73.76751289 123.98658521 78.36213169 128 83 C129.30130859 84.48693359 129.30130859 84.48693359 130.62890625 86.00390625 C145.86772293 103.57580817 159.10535181 122.87658536 169.02148438 143.94580078 C170.0437818 146.09191119 171.10446226 148.215843 172.171875 150.33984375 C186.46845878 179.10343007 195.72338458 211.02310353 199 243 C199.1381311 244.15326782 199.1381311 244.15326782 199.27905273 245.32983398 C200.29722891 254.67378734 200.1972224 264.05030633 200.1875 273.4375 C200.18756042 274.32784943 200.18762085 275.21819885 200.18768311 276.13552856 C200.17226956 292.04213304 199.67011401 307.45717975 196 323 C188.09464461 319.15618294 180.43491929 315.04462732 172.875 310.5625 C170.76597714 309.32231764 168.65658939 308.08275562 166.546875 306.84375 C165.46857422 306.20953125 164.39027344 305.5753125 163.27929688 304.921875 C157.91005267 301.77515892 152.51791809 298.66841381 147.125 295.5625 C145.50634033 294.62966187 145.50634033 294.62966187 143.85498047 293.67797852 C141.66417049 292.41550269 139.4732524 291.15321444 137.28222656 289.89111328 C131.85340058 286.76319852 126.42680719 283.63141552 121 280.5 C118.83334417 279.24998121 116.6666775 277.99998122 114.5 276.75 C82 258 82 258 49.5 239.25 C48.42733887 238.63116943 47.35467773 238.01233887 46.24951172 237.37475586 C44.08442929 236.12564482 41.91939018 234.87645871 39.75439453 233.62719727 C34.31384294 230.48797691 28.87252784 227.35009437 23.4296875 224.21484375 C12.97793801 218.19252671 2.53700452 212.15330663 -7.875 206.0625 C-16.55262241 200.98724877 -25.26605568 195.97741233 -34 191 C-43.71744668 185.46209671 -53.40141036 179.87028188 -63.0559082 174.22314453 C-73.6365329 168.03625098 -84.25108234 161.90871839 -94.87548828 155.79736328 C-96.93679933 154.61160207 -98.99768135 153.42509468 -101.05810547 152.23779297 C-103.91234345 150.59359043 -106.76836298 148.95253009 -109.625 147.3125 C-110.45926514 146.83151855 -111.29353027 146.35053711 -112.15307617 145.85498047 C-127.2412513 137.21243423 -141.78779247 132.74045782 -159.25 137.1875 C-169.78939174 140.98487882 -179.39101902 147.33729111 -189 153 C-190.94463034 154.13528386 -192.88993434 155.26941466 -194.8359375 156.40234375 C-197.78067506 158.11753807 -200.72450865 159.83417056 -203.6652832 161.55615234 C-211.41313795 166.09126906 -219.19974154 170.5559659 -227 175 C-236.72134099 180.53968899 -246.40895092 186.13375063 -256.06689453 191.78344727 C-266.59084625 197.93766742 -277.15380137 204.02369996 -287.71777344 210.10888672 C-293.14659942 213.23680148 -298.57319281 216.36858448 -304 219.5 C-306.16665583 220.75001879 -308.3333225 222.00001878 -310.5 223.25 C-311.5725 223.86875 -312.645 224.4875 -313.75 225.125 C-369 257 -424.25 288.875 -479.5 320.75 C-481.11140869 321.67969604 -481.11140869 321.67969604 -482.75537109 322.62817383 C-484.90404727 323.86774495 -487.05280913 325.10716756 -489.20166016 326.34643555 C-494.28243093 329.27681778 -499.3623065 332.20872063 -504.43914795 335.14590454 C-506.83930101 336.53438027 -509.23994361 337.92200833 -511.640625 339.30957031 C-513.33641618 340.2901883 -515.03149776 341.27203309 -516.7265625 342.25390625 C-517.75265625 342.846875 -518.77875 343.43984375 -519.8359375 344.05078125 C-521.19017822 344.83449097 -521.19017822 344.83449097 -522.57177734 345.6340332 C-524.67983898 346.81989736 -526.83663269 347.91831634 -529 349 C-529 298.84 -529 248.68 -529 197 C-502.20019531 181.53857422 -502.20019531 181.53857422 -492.69140625 176.06054688 C-483.44592339 170.73253283 -474.21339048 165.38332611 -465 160 C-453.45270484 153.25298806 -441.87097973 146.56660682 -430.28222656 139.89111328 C-424.85340058 136.76319852 -419.42680719 133.63141552 -414 130.5 C-411.83334417 129.24998121 -409.6666775 127.99998122 -407.5 126.75 C-405.89125 125.821875 -405.89125 125.821875 -404.25 124.875 C-342.5 89.25 -342.5 89.25 -339.24951172 87.37475586 C-337.08442929 86.12564482 -334.91939018 84.87645871 -332.75439453 83.62719727 C-327.31384294 80.48797691 -321.87252784 77.35009437 -316.4296875 74.21484375 C-305.97793684 68.19252604 -295.53709733 62.15314911 -285.125 56.0625 C-275.19198987 50.25483671 -265.21903867 44.51889192 -255.21801758 38.8293457 C-249.94177869 35.82717644 -244.67124438 32.81805983 -239.4375 29.7421875 C-209.53803781 12.2283996 -178.07655735 -1.41163187 -143.80078125 -7.359375 C-140.81263226 -7.86837042 -140.81263226 -7.86837042 -138 -10 C-95.28832446 -21.16907602 -41.11699076 -13.54963245 0 0 Z " fill="#74AA9C" transform="translate(1401,488)"/>
<path d="M0 0 C1.08958008 0.18272461 2.17916016 0.36544922 3.30175781 0.55371094 C29.19743524 5.09197498 55.45375991 13.19365865 79 25 C79.88800293 25.43924805 80.77600586 25.87849609 81.69091797 26.33105469 C98.25730501 34.57378794 113.79401474 43.76546727 128.4609375 55.05859375 C130.68337672 56.75790497 132.94087062 58.35974825 135.25 59.9375 C136.1575 60.618125 137.065 61.29875 138 62 C138 62.66 138 63.32 138 64 C27.5 127.75 27.5 127.75 24.24951172 129.62524414 C22.08442929 130.87435518 19.91939018 132.12354129 17.75439453 133.37280273 C12.31384294 136.51202309 6.87252784 139.64990563 1.4296875 142.78515625 C-9.02206279 148.80747375 -19.46293115 154.84680257 -29.875 160.9375 C-38.51282001 165.98838019 -47.1831964 170.98024353 -55.875 175.9375 C-73.25801694 185.85201231 -90.60067715 195.83456905 -107.875 205.9375 C-116.55268434 211.0126654 -125.26636804 216.02202845 -134 221 C-143.03996641 226.15462746 -152.06690491 231.33065736 -161.0625 236.5625 C-162.00673828 237.10970703 -162.95097656 237.65691406 -163.92382812 238.22070312 C-179.89953362 247.5370139 -194.26530005 256.22411732 -199.57151508 275.12823868 C-201.53146709 283.2130192 -201.4249507 291.2066991 -201.39872742 299.46380615 C-201.40417453 301.21483297 -201.41092927 302.96585612 -201.41886932 304.71687341 C-201.43681865 309.50126869 -201.43634691 314.28550815 -201.43273985 319.06992912 C-201.43211417 324.23952594 -201.44875324 329.4090713 -201.46325684 334.5786438 C-201.48601509 343.52624649 -201.49792317 352.47381032 -201.50238609 361.42144012 C-201.50885447 374.3580769 -201.531804 387.29464352 -201.55872939 400.23125198 C-201.60197237 421.22186644 -201.63195335 442.21247794 -201.65356445 463.203125 C-201.67458159 483.5892075 -201.70186313 503.9752658 -201.73754883 524.36132812 C-201.73974765 525.61868758 -201.74194648 526.87604703 -201.74421193 528.17150828 C-201.75528177 534.47953892 -201.76647454 540.78756934 -201.77772844 547.09559965 C-201.8708783 599.39704503 -201.94249262 651.69850412 -202 704 C-203.88619268 703.06691809 -205.77121634 702.13147286 -207.65576172 701.19506836 C-209.23053787 700.41407021 -209.23053787 700.41407021 -210.83712769 699.61729431 C-215.71409749 697.12351817 -220.41477917 694.35509721 -225.125 691.5625 C-227.23402286 690.32231764 -229.34341061 689.08275562 -231.453125 687.84375 C-232.53142578 687.20953125 -233.60972656 686.5753125 -234.72070312 685.921875 C-240.08994733 682.77515892 -245.48208191 679.66841381 -250.875 676.5625 C-252.49365967 675.62966187 -252.49365967 675.62966187 -254.14501953 674.67797852 C-256.33582951 673.41550269 -258.5267476 672.15321444 -260.71777344 670.89111328 C-267.2235961 667.1426677 -273.72644083 663.38905819 -280.22973633 659.63623047 C-285.75737281 656.44671205 -291.28599381 653.25892179 -296.81640625 650.07421875 C-297.94626953 649.42324219 -299.07613281 648.77226563 -300.24023438 648.1015625 C-302.35445854 646.88349096 -304.46900619 645.6659806 -306.58398438 644.44921875 C-308.54907361 643.31675082 -310.49574395 642.15160922 -312.42088604 640.95248985 C-314.98399236 639.44175066 -317.43538526 638.50388082 -320.27806568 637.63974953 C-325.50224701 635.78709085 -329.72575254 633.59529058 -333 629 C-336.14744069 619.11867911 -335.2094095 607.93256474 -335.00243366 597.67114162 C-334.93290058 593.29722248 -334.96205877 588.92379926 -334.97892761 584.54951477 C-334.9966943 575.98437429 -334.92472313 567.42222415 -334.82353743 558.857756 C-334.70951851 548.86525494 -334.69049799 538.87324181 -334.67663638 528.8801821 C-334.64919266 511.02883757 -334.54444088 493.17880908 -334.39233398 475.328125 C-334.24525644 458.05112403 -334.13879195 440.77462157 -334.0847168 423.49707031 C-334.0813813 422.43496182 -334.07804581 421.37285333 -334.07460924 420.27855973 C-334.06133769 416.00782859 -334.04828708 411.73709686 -334.03554542 407.46636411 C-333.93660087 374.62496415 -333.80105471 341.78309428 -333.53720284 308.94257164 C-333.50989091 305.51468524 -333.48658016 302.08681283 -333.46720123 298.6588726 C-333.19020074 251.00099803 -333.19020074 251.00099803 -328.625 231.5 C-328.40440918 230.50484375 -328.18381836 229.5096875 -327.95654297 228.484375 C-327.32222975 225.6517514 -326.6653135 222.82547696 -326 220 C-325.74863281 218.90365234 -325.74863281 218.90365234 -325.4921875 217.78515625 C-324.60030897 213.90775213 -323.63310793 210.05570328 -322.59521484 206.21484375 C-322.1626167 204.60511023 -321.73974454 202.99275319 -321.32275391 201.37890625 C-317.16162356 185.38173278 -311.33477183 170.79679884 -304 156 C-303.63181152 155.23671387 -303.26362305 154.47342773 -302.88427734 153.68701172 C-292.08303158 131.34119763 -277.13520321 110.62374975 -260.27734375 92.4609375 C-258.24097846 90.26040554 -256.26738147 88.02271297 -254.3125 85.75 C-248.67821261 79.28636657 -242.50673804 73.569419 -236 68 C-234.61361328 66.77990234 -234.61361328 66.77990234 -233.19921875 65.53515625 C-194.0084547 31.32367468 -144.88605477 9.5093259 -94 0 C-93.16291504 -0.16516113 -92.32583008 -0.33032227 -91.46337891 -0.50048828 C-62.31277082 -6.06147428 -29.17093414 -4.95458781 0 0 Z " fill="#74AA9C" transform="translate(988,358)"/>
<path d="M0 0 C0.00097681 0.77835213 0.00195362 1.55670426 0.00296003 2.35864282 C0.06124921 48.50401564 0.135059 94.64934131 0.22898628 140.79465605 C0.24025426 146.33706214 0.25139274 151.87946849 0.26245117 157.421875 C0.2657567 159.07694461 0.2657567 159.07694461 0.269129 160.76544997 C0.30448829 178.62434846 0.32936016 196.48324691 0.35034702 214.34216741 C0.37211996 232.67105448 0.4051846 250.99989618 0.44870156 269.32874465 C0.4751925 280.63594395 0.49290672 291.94308673 0.49934604 303.25031552 C0.50460773 311.00718215 0.52085099 318.7639777 0.54566566 326.52080622 C0.55965382 330.99411609 0.5688615 335.46729878 0.56500816 339.94063187 C0.56158256 344.04190581 0.57205077 348.14290875 0.59323552 352.24412724 C0.59847722 353.7221144 0.59876606 355.2001299 0.59339563 356.67811659 C0.53915892 373.30781484 3.9203908 387.48821516 15.64941406 399.8112793 C22.90247731 406.56488462 32.50132334 411.10554672 41.0625 416 C42.77677756 416.98466941 44.49105296 417.96934262 46.2052002 418.95423889 C47.9695131 419.96752547 49.73444333 420.97972932 51.49951172 421.99169922 C57.04656697 425.17289227 62.58586794 428.36753697 68.125 431.5625 C69.20289795 432.18390869 70.2807959 432.80531738 71.39135742 433.44555664 C78.56670345 437.58557333 85.72456302 441.75464271 92.875 445.9375 C101.55262241 451.01275123 110.26605568 456.02258767 119 461 C128.72115617 466.5400173 138.40894658 472.13374809 148.06689453 477.78344727 C158.59084625 483.93766742 169.15380137 490.02369996 179.71777344 496.10888672 C185.14659942 499.23680148 190.57319281 502.36858448 196 505.5 C198.16665583 506.75001879 200.3333225 508.00001878 202.5 509.25 C241.5 531.75 280.5 554.25 319.5 576.75 C320.5729834 577.3689917 321.6459668 577.9879834 322.75146484 578.62573242 C324.91337884 579.87306548 327.07516317 581.1206233 329.23681641 582.3684082 C334.72514585 585.53608832 340.21582533 588.69956761 345.7109375 591.85546875 C358.89273456 599.43197607 372.00097526 607.1136277 385 615 C382.04996214 617.30552433 379.01454714 619.22399315 375.765625 621.08203125 C374.72921875 621.67693359 373.6928125 622.27183594 372.625 622.88476562 C371.51125 623.52091797 370.3975 624.15707031 369.25 624.8125 C366.87950415 626.1719515 364.51010527 627.53331061 362.140625 628.89453125 C361.53980103 629.23936554 360.93897705 629.58419983 360.31994629 629.93948364 C354.52993969 633.26447175 348.76324502 636.62886337 343 640 C329.26987317 648.02339426 315.48921423 655.95858611 301.70898438 663.89550781 C299.51868723 665.1572387 297.32866407 666.41944531 295.13891602 667.68212891 C292.9792822 668.92631319 290.81832993 670.16821198 288.65600586 671.40771484 C283.13117906 674.58170365 277.64688847 677.80719477 272.20703125 681.125 C270.56468506 682.11584595 270.56468506 682.11584595 268.88916016 683.12670898 C266.80018943 684.38974459 264.71991028 685.6673019 262.64990234 686.96118164 C261.71742676 687.52184326 260.78495117 688.08250488 259.82421875 688.66015625 C259.01041748 689.16168213 258.19661621 689.66320801 257.3581543 690.17993164 C255 691 255 691 252.51806641 690.3190918 C251.68710449 689.8837915 250.85614258 689.44849121 250 689 C249.18104248 688.57428711 248.36208496 688.14857422 247.51831055 687.70996094 C246.64988525 687.22301758 245.78145996 686.73607422 244.88671875 686.234375 C243.40473999 685.40498413 243.40473999 685.40498413 241.89282227 684.55883789 C240.83506592 683.96192139 239.77730957 683.36500488 238.6875 682.75 C237.57882568 682.12665771 236.47015137 681.50331543 235.32788086 680.86108398 C225.86059123 675.52126695 216.46700035 670.05876975 207.08984375 664.5625 C200.78429581 660.8678669 194.45705564 657.21147319 188.125 653.5625 C187.04484619 652.93996338 185.96469238 652.31742676 184.85180664 651.67602539 C182.66203666 650.41423174 180.47217645 649.15259466 178.28222656 647.89111328 C172.85340058 644.76319852 167.42680719 641.63141552 162 638.5 C159.83334417 637.24998121 157.6666775 635.99998122 155.5 634.75 C107.83333333 607.25 60.16666667 579.75 12.5 552.25 C10.8907666 551.3216333 10.8907666 551.3216333 9.24902344 550.37451172 C7.08552524 549.12628966 4.92211357 547.87791761 2.75878906 546.62939453 C-2.70565017 543.47594744 -8.17163645 540.32523904 -13.640625 537.1796875 C-19.06504054 534.05896055 -24.48440052 530.92962578 -29.89990234 527.79345703 C-31.93265164 526.61747843 -33.96678586 525.44388981 -36.00244141 524.27294922 C-52.63910789 514.69443087 -68.36789477 504.47292638 -83 492 C-84.09574764 491.08911364 -85.1921373 490.1789992 -86.2890625 489.26953125 C-97.08823164 480.2470581 -107.44762715 470.57112865 -116.47265625 459.74609375 C-117.73698809 458.30068114 -119.07851744 456.92321096 -120.4375 455.56640625 C-135.27389565 440.70739415 -146.44673529 421.56748607 -156 403 C-156.40669922 402.21254395 -156.81339844 401.42508789 -157.23242188 400.61376953 C-167.68127336 380.13581371 -175.98295985 358.45646404 -181 336 C-181.28230469 334.74832031 -181.56460937 333.49664063 -181.85546875 332.20703125 C-185.21237936 316.3085663 -187.60304452 300.25363436 -188 284 C-188.02723145 282.99420898 -188.05446289 281.98841797 -188.08251953 280.95214844 C-188.75572083 252.03413056 -186.44329093 224.02644803 -179 196 C-178.73703125 195.00709961 -178.4740625 194.01419922 -178.203125 192.99121094 C-171.60126879 168.66304719 -162.05329773 141.73688082 -146.76953125 121.40625 C-144.56516079 118.40869547 -142.60453071 115.27254263 -140.625 112.125 C-124.94282883 87.45016192 -104.2195117 63.88694668 -81 46 C-79.73641473 44.99680428 -78.47343816 43.99284158 -77.2109375 42.98828125 C-22.68780039 0 -22.68780039 0 0 0 Z " fill="#74AA9C" transform="translate(553,634)"/>
<path d="M0 0 C1.39992188 0.81017578 1.39992188 0.81017578 2.828125 1.63671875 C3.94703125 2.24902344 5.0659375 2.86132812 6.21875 3.4921875 C7.50831485 4.26436679 8.79455314 5.04211796 10.078125 5.82421875 C11.59431415 6.7317028 13.11129388 7.63786681 14.62890625 8.54296875 C15.45729004 9.03796875 16.28567383 9.53296875 17.13916016 10.04296875 C22.15480365 13.01574165 27.21230727 15.91611347 32.265625 18.82421875 C33.37131836 19.46125732 34.47701172 20.0982959 35.61621094 20.75463867 C37.88836582 22.06372532 40.16066509 23.37256137 42.43310547 24.68115234 C47.8998248 27.83003929 53.36387387 30.98355139 58.828125 34.13671875 C60.99477811 35.38674225 63.16144479 36.63674222 65.328125 37.88671875 C149.828125 86.63671875 149.828125 86.63671875 234.328125 135.38671875 C235.40054443 136.00538818 236.47296387 136.62405762 237.57788086 137.26147461 C239.74548056 138.51208178 241.91296096 139.76289574 244.08032227 141.01391602 C249.48175654 144.13132913 254.88518638 147.24517278 260.29296875 150.3515625 C266.81311783 154.09879158 273.32299883 157.86347905 279.828125 161.63671875 C280.40018677 161.96776611 280.97224854 162.29881348 281.56164551 162.63989258 C313.56329235 181.1593333 344.11062836 202.24914561 368.16015625 230.75 C369.48085108 232.24390071 370.87016701 233.67710146 372.28125 235.0859375 C387.10890556 249.93633486 398.28902587 269.07424921 407.828125 287.63671875 C408.2725293 288.49958496 408.71693359 289.36245117 409.17480469 290.25146484 C423.03236874 317.46717759 431.66590433 345.62817871 436.828125 375.63671875 C437.0446875 376.89226562 437.26125 378.1478125 437.484375 379.44140625 C447.75873872 444.86492818 433.39630194 518.71159478 395.828125 573.63671875 C395.16167969 574.65378906 394.49523438 575.67085937 393.80859375 576.71875 C377.26644618 601.91038649 356.76855519 626.13023835 332.828125 644.63671875 C331.56341309 645.64143762 330.2991197 646.64668346 329.03515625 647.65234375 C318.75599699 655.75365323 308.06336335 662.93117625 296.828125 669.63671875 C296.09513184 670.07612793 295.36213867 670.51553711 294.60693359 670.96826172 C281.45519497 678.77184332 266.77086581 687.05330383 251.828125 690.63671875 C251.82752791 689.85663037 251.82693082 689.07654199 251.82631564 688.27281457 C251.79040681 642.01881648 251.73374496 595.7648836 251.65020405 549.51094576 C251.64018682 543.9548072 251.63034265 538.39866835 251.62060547 532.8425293 C251.6186641 531.73642125 251.61672272 530.63031321 251.61472252 529.49068674 C251.5837176 511.59042706 251.56672607 493.6901802 251.55493078 475.78989873 C251.54251142 457.41692782 251.51499225 439.04402406 251.47351193 420.67109555 C251.44839907 409.33777739 251.43500611 398.00457064 251.43669543 386.67122426 C251.43672523 378.89517838 251.42206262 371.11924582 251.39596072 363.34324411 C251.38134083 358.85964777 251.37308944 354.37628382 251.38232231 349.89266777 C251.3906461 345.7807864 251.38035411 341.66937073 251.35578838 337.5575582 C251.35013288 336.07686244 251.35107623 334.59612212 251.35961255 333.11544017 C251.4212654 321.41042806 249.66938651 310.64029381 243.703125 300.38671875 C243.20554687 299.4946875 242.70796875 298.60265625 242.1953125 297.68359375 C235.58059171 289.16959669 227.16361361 283.65827914 217.828125 278.51171875 C216.10693796 277.54082745 214.38576199 276.5699159 212.66525269 275.5978241 C210.89386517 274.59898428 209.11955953 273.60549538 207.34472656 272.61279297 C201.76690874 269.48668503 196.23758734 266.276229 190.703125 263.07421875 C189.62675781 262.45337402 188.55039063 261.8325293 187.44140625 261.19287109 C179.23226129 256.45730086 171.04499264 251.6849017 162.86230469 246.90380859 C152.30192218 240.73752821 141.70685734 234.63175925 131.11035156 228.52783203 C125.68152558 225.39991727 120.25493219 222.26813427 114.828125 219.13671875 C112.66146917 217.88669996 110.4948025 216.63669997 108.328125 215.38671875 C10.828125 159.13671875 10.828125 159.13671875 -86.671875 102.88671875 C-87.74638916 102.26692139 -88.82090332 101.64712402 -89.92797852 101.00854492 C-92.07470207 99.76982065 -94.2210299 98.53041031 -96.36694336 97.2902832 C-101.46679408 94.34419451 -106.57057977 91.40558904 -111.68838501 88.49081421 C-114.11956227 87.10561644 -116.54851407 85.71654271 -118.97729492 84.32714844 C-120.70340048 83.3418988 -122.43272877 82.36230214 -124.16210938 81.3828125 C-125.19787109 80.78984375 -126.23363281 80.196875 -127.30078125 79.5859375 C-128.21931885 79.06346436 -129.13785645 78.54099121 -130.08422852 78.00268555 C-132.171875 76.63671875 -132.171875 76.63671875 -133.171875 74.63671875 C-132.1509375 74.07726562 -131.13 73.5178125 -130.078125 72.94140625 C-120.17385297 67.4891834 -110.37475634 61.87415079 -100.61865234 56.16137695 C-93.19348748 51.81361718 -85.75193404 47.49551593 -78.296875 43.19921875 C-77.21728516 42.57700439 -76.13769531 41.95479004 -75.02539062 41.3137207 C-72.8350498 40.05160358 -70.64461998 38.7896409 -68.45410156 37.52783203 C-61.95339537 33.7823344 -55.45562468 30.0317461 -48.95751953 26.28173828 C-43.93533798 23.38376986 -38.91260434 20.48677588 -33.88745117 17.59396362 C-32.12141978 16.57724677 -30.35560069 15.56016217 -28.58984375 14.54296875 C-26.38453345 13.27271002 -24.17883284 12.00312857 -21.97265625 10.734375 C-20.96589844 10.15429688 -19.95914062 9.57421875 -18.921875 8.9765625 C-17.47167969 8.14874268 -17.47167969 8.14874268 -15.9921875 7.30419922 C-14.10220955 6.18676939 -12.24185881 5.01775082 -10.4140625 3.80126953 C-3.95289652 -0.45273322 -3.95289652 -0.45273322 0 0 Z " fill="#74AA9C" transform="translate(1243.171875,723.36328125)"/>
<path d="M0 0 C1.88765657 0.93381627 3.77414561 1.86999284 5.66015625 2.80712891 C6.71082275 3.32820221 7.76148926 3.84927551 8.84399414 4.38613892 C13.67750785 6.85781356 18.33335357 9.60458043 23 12.375 C25.1034897 13.61313001 27.20768605 14.85006006 29.3125 16.0859375 C30.40304687 16.7262793 31.49359375 17.36662109 32.6171875 18.02636719 C38.38746924 21.39292013 44.19444779 24.6948233 50 28 C59.71525076 33.53512448 69.39653123 39.12514556 79.04711914 44.77246094 C87.5041619 49.71928545 95.98828835 54.6182541 104.48291016 59.50024414 C106.47049585 60.64412853 108.43967254 61.82069636 110.38750172 63.03103924 C112.96458399 64.54755905 115.42647208 65.49380043 118.28381634 66.36113453 C123.50880953 68.21154879 127.72770437 70.40337823 131 75 C134.1560785 84.90257661 133.22896258 96.11055762 133.03175175 106.39533103 C132.96634518 110.77966496 132.99955559 115.1634165 133.020401 119.54803467 C133.04587356 128.13552122 132.98131182 136.72008482 132.88706086 145.30699911 C132.78084608 155.33276283 132.76798143 165.3580061 132.75965764 175.38424984 C132.74196411 193.30408338 132.6455028 211.22261195 132.50219727 229.1418457 C132.36375189 246.46806374 132.27132889 263.79361843 132.2355957 281.12036133 C132.23339102 282.18448599 132.23118633 283.24861065 132.22891483 284.34498151 C132.220151 288.62440394 132.2114774 292.90382652 132.20298024 297.18324948 C132.16675507 314.76617027 132.09331427 332.34896384 132.0144918 349.93173814 C131.99672492 353.9164354 131.98042609 357.90113447 131.96541238 361.88584304 C131.92529662 372.37615939 131.87272495 382.86617959 131.78572986 393.35622349 C131.74988819 397.68814528 131.71926296 402.01988452 131.70561218 406.35193825 C131.58757353 440.73797177 128.05804416 473.98246044 117.5859375 506.890625 C116.61482318 509.94667956 115.73173936 512.98381773 115 516.10546875 C108.23619333 544.07243111 90.66637162 571.65137575 73 594 C72.33484375 594.85722656 71.6696875 595.71445313 70.984375 596.59765625 C66.93612057 601.75360234 62.68543412 606.67882924 58.26171875 611.515625 C56.80758885 613.11290758 55.37099172 614.72642639 53.95703125 616.359375 C43.26604202 628.63495738 31.02946529 639.28813682 18 649 C17.44521973 649.41701172 16.89043945 649.83402344 16.31884766 650.26367188 C-20.86321963 678.06618588 -64.22327343 696.48131805 -110 704 C-111.20150192 704.20365425 -111.20150192 704.20365425 -112.42727661 704.41142273 C-125.11883537 706.53949849 -137.47443576 707.45251937 -150.33935547 707.33618164 C-153.13147775 707.31244493 -155.92264468 707.3156768 -158.71484375 707.32226562 C-200.97476926 707.25804152 -243.04059434 697.60515082 -281 679 C-281.91104492 678.55672363 -282.82208984 678.11344727 -283.76074219 677.65673828 C-298.29017178 670.52117397 -311.77738173 662.3233308 -325 653 C-325.78068848 652.4529541 -326.56137695 651.9059082 -327.36572266 651.34228516 C-329.52351601 649.82346125 -331.67101593 648.29171335 -333.8125 646.75 C-334.44736328 646.29616943 -335.08222656 645.84233887 -335.73632812 645.37475586 C-337.19654287 644.30093449 -338.60493315 643.15719831 -340 642 C-340 641.34 -340 640.68 -340 640 C-73.5 486.25 -73.5 486.25 -70.24609375 484.37304688 C-68.09210055 483.1301591 -65.93845128 481.88667507 -63.78515625 480.64257812 C-58.7682553 477.74493776 -53.74842786 474.85287118 -48.71557617 471.98303223 C-46.94884176 470.97521977 -45.18324498 469.9654422 -43.41796875 468.95507812 C-41.21446291 467.69467279 -39.00888309 466.43788302 -36.80078125 465.18554688 C-21.21245801 456.25369713 -8.01481216 447.30757557 -2.85665512 429.26791286 C-0.53468433 420.58431321 -0.43559372 412.15025575 -0.48101807 403.21339417 C-0.47512987 401.46390088 -0.46749613 399.71441277 -0.458287 397.96493381 C-0.43816973 393.19866911 -0.44254297 388.43270447 -0.45119452 383.666417 C-0.45616387 378.51117977 -0.43802415 373.35601556 -0.42277527 368.20080566 C-0.39951937 359.28270825 -0.39071223 350.36469202 -0.39188385 341.44656563 C-0.39355664 328.55267318 -0.37318219 315.65888862 -0.34752855 302.76502501 C-0.30649547 281.84262284 -0.28314681 260.92024015 -0.27099609 239.99780273 C-0.2591589 219.68072642 -0.23894535 199.36368673 -0.20751953 179.04663086 C-0.20558343 177.79304657 -0.20364733 176.53946229 -0.20165256 175.2478906 C-0.19188763 168.9586559 -0.18195859 162.66942147 -0.17194796 156.38018715 C-0.08918953 104.25347606 -0.03516362 52.12676344 0 0 Z " fill="#74AA9C" transform="translate(1262,986)"/>
<path d="M0 0 C0.79937988 0.41725342 1.59875977 0.83450684 2.42236328 1.2644043 C3.02927002 1.56894531 3.63617676 1.87348633 4.26147461 2.18725586 C5.12421997 2.66630371 5.12421997 2.66630371 6.00439453 3.1550293 C6.67599609 3.52716553 7.34759766 3.89930176 8.03955078 4.28271484 C9.12623047 4.89240112 9.12623047 4.89240112 10.23486328 5.5144043 C11.4046875 6.16759644 11.4046875 6.16759644 12.59814453 6.83398438 C21.15590171 11.63685845 29.61854046 16.60234418 38.08642578 21.5612793 C44.4751832 25.30075019 50.88352404 29.00565464 57.29736328 32.7019043 C58.37695312 33.32411865 59.45654297 33.94633301 60.56884766 34.58740234 C62.75918848 35.84951946 64.9496183 37.11148215 67.14013672 38.37329102 C72.5689627 41.50120578 77.99555609 44.63298878 83.42236328 47.7644043 C85.58901911 49.01442309 87.75568578 50.26442308 89.92236328 51.5144043 C102.92236328 59.0144043 102.92236328 59.0144043 106.17822266 60.89282227 C108.32531464 62.13150432 110.47244942 63.3701122 112.61962891 64.60864258 C117.71825137 67.5497378 122.81641624 70.49161843 127.91308594 73.43609619 C130.33283993 74.8339903 132.75283591 76.23146519 135.17285156 77.62890625 C136.8903738 78.62092754 138.6075438 79.61355859 140.32470703 80.60620117 C141.35724609 81.20239258 142.38978516 81.79858398 143.45361328 82.4128418 C144.36691406 82.94055176 145.28021484 83.46826172 146.22119141 84.01196289 C147.6022502 84.79776941 149.00114823 85.55379677 150.42236328 86.2644043 C150.42236328 145.0044043 150.42236328 203.7444043 150.42236328 264.2644043 C142.17236328 268.8844043 133.92236328 273.5044043 125.42236328 278.2644043 C116.45922138 283.46970777 116.45922138 283.46970777 107.51220703 288.7019043 C101.20665909 292.3965374 94.87941892 296.05293111 88.54736328 299.7019043 C87.46720947 300.32444092 86.38705566 300.94697754 85.27416992 301.58837891 C83.08439994 302.85017256 80.89453973 304.11180964 78.70458984 305.37329102 C73.2757639 308.50120576 67.84914321 311.63294161 62.42236328 314.7644043 C55.90003053 318.52804349 49.37722566 322.29085052 42.85205078 326.04956055 C41.76754639 326.67483643 40.68304199 327.3001123 39.56567383 327.94433594 C37.40437023 329.18926102 35.24179138 330.43197505 33.07788086 331.67236328 C27.55323956 334.8463082 22.06909606 338.07169402 16.62939453 341.3894043 C15.53449707 342.04996826 14.43959961 342.71053223 13.31152344 343.39111328 C11.22255271 344.65414888 9.14227356 345.9317062 7.07226562 347.22558594 C6.13979004 347.78624756 5.20731445 348.34690918 4.24658203 348.92456055 C3.43278076 349.42608643 2.61897949 349.9276123 1.78051758 350.44433594 C-0.57763672 351.2644043 -0.57763672 351.2644043 -3.04418945 350.59228516 C-3.88022705 350.15408447 -4.71626465 349.71588379 -5.57763672 349.2644043 C-6.86105957 348.59441406 -6.86105957 348.59441406 -8.17041016 347.91088867 C-9.53987793 347.14228516 -9.53987793 347.14228516 -10.93701172 346.3581543 C-12.4731311 345.49782593 -12.4731311 345.49782593 -14.0402832 344.62011719 C-15.12510986 344.00773193 -16.20993652 343.39534668 -17.32763672 342.7644043 C-18.45435791 342.13074951 -19.5810791 341.49709473 -20.74194336 340.84423828 C-27.53281415 337.01439866 -34.28748418 333.13104829 -40.99291992 329.15380859 C-47.30488197 325.41135767 -53.65705273 321.74036951 -60.01513672 318.0769043 C-61.6759729 317.11989624 -61.6759729 317.11989624 -63.37036133 316.14355469 C-65.64100739 314.83550953 -67.9117603 313.52764982 -70.18261719 312.2199707 C-75.64933652 309.07108376 -81.11338559 305.91757166 -86.57763672 302.7644043 C-88.74428983 301.5143808 -90.91095651 300.26438083 -93.07763672 299.0144043 C-106.07763672 291.51440429 -106.07763672 291.51440429 -109.33349609 289.63598633 C-111.48058808 288.39730427 -113.62772286 287.15869639 -115.77490234 285.92016602 C-120.87352481 282.9790708 -125.97168968 280.03719016 -131.06835938 277.0927124 C-133.48811337 275.69481829 -135.90810935 274.29734341 -138.328125 272.89990234 C-140.04564724 271.90788106 -141.76281723 270.91525 -143.47998047 269.92260742 C-144.51251953 269.32641602 -145.54505859 268.73022461 -146.60888672 268.1159668 C-147.5221875 267.58825684 -148.43548828 267.06054688 -149.37646484 266.5168457 C-150.75752363 265.73103918 -152.15642167 264.97501182 -153.57763672 264.2644043 C-153.57763672 205.5244043 -153.57763672 146.7844043 -153.57763672 86.2644043 C-145.32763672 81.6444043 -137.07763672 77.0244043 -128.57763672 72.2644043 C-119.61449482 67.05910082 -119.61449482 67.05910082 -110.66748047 61.8269043 C-104.36193253 58.13227119 -98.03469236 54.47587748 -91.70263672 50.8269043 C-90.62248291 50.20436768 -89.5423291 49.58183105 -88.42944336 48.94042969 C-86.23967338 47.67863603 -84.04981317 46.41699896 -81.85986328 45.15551758 C-76.43103734 42.02760284 -71.00441665 38.89586699 -65.57763672 35.7644043 C-59.05530397 32.0007651 -52.5324991 28.23795808 -46.00732422 24.47924805 C-44.92281982 23.85397217 -43.83831543 23.22869629 -42.72094727 22.58447266 C-40.55964366 21.33954757 -38.39706482 20.09683355 -36.2331543 18.85644531 C-30.708513 15.6825004 -25.2243695 12.45711458 -19.78466797 9.1394043 C-18.68977051 8.47884033 -17.59487305 7.81827637 -16.46679688 7.13769531 C-14.37782615 5.87465971 -12.297547 4.59710239 -10.22753906 3.30322266 C-9.29506348 2.74256104 -8.36258789 2.18189941 -7.40185547 1.60424805 C-6.5880542 1.10272217 -5.77425293 0.60119629 -4.93579102 0.08447266 C-2.57763672 -0.7355957 -2.57763672 -0.7355957 0 0 Z " fill="#74AA9C" transform="translate(1025.57763671875,848.735595703125)"/>
</svg>
