<?xml version="1.0" encoding="UTF-8"?>
<svg version="1.1" xmlns="http://www.w3.org/2000/svg" width="512" height="512">
<path d="M0 0 C1.01790619 0.00215515 2.03581238 0.0043103 3.08456421 0.00653076 C17.69363523 0.05620146 32.02575853 0.30709809 46.375 3.3125 C47.34985352 3.51117676 48.32470703 3.70985352 49.32910156 3.91455078 C97.7109774 14.03517194 141.69928269 35.9516877 177.375 70.3125 C178.3640332 71.26068604 178.3640332 71.26068604 179.37304688 72.22802734 C188.86130305 81.37247479 197.6012044 90.66984009 205.375 101.3125 C206.23306152 102.46355017 207.09113451 103.61459177 207.94921875 104.765625 C213.98736829 112.95680614 219.34595521 121.47054105 224.375 130.3125 C224.73948242 130.94430176 225.10396484 131.57610352 225.47949219 132.22705078 C247.08534998 169.97532572 256.85198095 212.74189997 256.6875 255.9375 C256.68534485 256.95540619 256.6831897 257.97331238 256.68096924 259.02206421 C256.63129854 273.63113523 256.38040191 287.96325853 253.375 302.3125 C253.07698486 303.77478027 253.07698486 303.77478027 252.77294922 305.26660156 C242.65232806 353.6484774 220.7358123 397.63678269 186.375 433.3125 C185.74287598 433.97185547 185.11075195 434.63121094 184.45947266 435.31054688 C175.31502521 444.79880305 166.01765991 453.5387044 155.375 461.3125 C154.22394983 462.17056152 153.07290823 463.02863451 151.921875 463.88671875 C143.73224019 469.92427396 135.22961724 475.30707302 126.375 480.3125 C125.66778809 480.7146875 124.96057617 481.116875 124.23193359 481.53125 C101.09654164 494.5566741 75.92537591 503.30551461 49.9375 508.625 C49.21860596 508.77235596 48.49971191 508.91971191 47.7590332 509.0715332 C33.08339502 511.86090125 18.55831162 512.66142619 3.64770508 512.62817383 C0.70811513 512.6250221 -2.2304558 512.64854926 -5.16992188 512.67382812 C-18.54306192 512.71848737 -31.43916711 511.51301542 -44.625 509.3125 C-46.33055054 509.03031616 -46.33055054 509.03031616 -48.07055664 508.74243164 C-91.33802759 500.97044532 -132.38793216 480.98345309 -165.625 452.3125 C-166.37007813 451.67828125 -167.11515625 451.0440625 -167.8828125 450.390625 C-181.38779833 438.57948485 -194.05918743 425.82889772 -204.625 411.3125 C-205.48149066 410.16255169 -206.33826433 409.01281411 -207.1953125 407.86328125 C-213.23534209 399.67315742 -218.61867614 391.16870382 -223.625 382.3125 C-224.0271875 381.60528809 -224.429375 380.89807617 -224.84375 380.16943359 C-237.8691741 357.03404164 -246.61801461 331.86287591 -251.9375 305.875 C-252.08485596 305.15610596 -252.23221191 304.43721191 -252.3840332 303.6965332 C-255.35789088 288.05024391 -255.99800362 272.57681954 -255.9375 256.6875 C-255.93534485 255.66959381 -255.9331897 254.65168762 -255.93096924 253.60293579 C-255.88129854 238.99386477 -255.63040191 224.66174147 -252.625 210.3125 C-252.42632324 209.33764648 -252.22764648 208.36279297 -252.02294922 207.35839844 C-241.90232806 158.9765226 -219.9858123 114.98821731 -185.625 79.3125 C-184.99287598 78.65314453 -184.36075195 77.99378906 -183.70947266 77.31445312 C-174.56502521 67.82619695 -165.26765991 59.0862956 -154.625 51.3125 C-153.47394983 50.45443848 -152.32290823 49.59636549 -151.171875 48.73828125 C-142.98224019 42.70072604 -134.47961724 37.31792698 -125.625 32.3125 C-124.91778809 31.9103125 -124.21057617 31.508125 -123.48193359 31.09375 C-100.34654164 18.0683259 -75.17537591 9.31948539 -49.1875 4 C-48.46860596 3.85264404 -47.74971191 3.70528809 -47.0090332 3.5534668 C-31.36274391 0.57960912 -15.88931954 -0.06050362 0 0 Z " fill="#65B0FB" transform="translate(255.625,-0.3125)"/>
<path d="M0 0 C1.01790619 0.00215515 2.03581238 0.0043103 3.08456421 0.00653076 C17.69363523 0.05620146 32.02575853 0.30709809 46.375 3.3125 C47.34985352 3.51117676 48.32470703 3.70985352 49.32910156 3.91455078 C97.7109774 14.03517194 141.69928269 35.9516877 177.375 70.3125 C178.3640332 71.26068604 178.3640332 71.26068604 179.37304688 72.22802734 C188.86130305 81.37247479 197.6012044 90.66984009 205.375 101.3125 C206.23306152 102.46355017 207.09113451 103.61459177 207.94921875 104.765625 C213.98736829 112.95680614 219.34595521 121.47054105 224.375 130.3125 C224.73948242 130.94430176 225.10396484 131.57610352 225.47949219 132.22705078 C238.83054397 155.55309403 247.46952689 181.36744675 252.875 207.625 C253.04757324 208.46135986 253.22014648 209.29771973 253.39794922 210.15942383 C254.50255075 215.92984774 254.50255075 215.92984774 253.375 219.3125 C225.985 191.9225 198.595 164.5325 170.375 136.3125 C170.045 145.8825 169.715 155.4525 169.375 165.3125 C145.285 165.3125 121.195 165.3125 96.375 165.3125 C96.045 155.0825 95.715 144.8525 95.375 134.3125 C87.47760768 122.58419324 87.47760768 122.58419324 75.51318359 116.54541016 C69.21252012 115.55200101 63.90466971 115.92331439 57.375 116.3125 C57.375 128.5225 57.375 140.7325 57.375 153.3125 C52.86772131 149.44911827 48.57686948 145.65068181 44.4375 141.4375 C42.766875 139.74625 41.09625 138.055 39.375 136.3125 C39.045 145.8825 38.715 155.4525 38.375 165.3125 C14.285 165.3125 -9.805 165.3125 -34.625 165.3125 C-34.955 155.0825 -35.285 144.8525 -35.625 134.3125 C-43.52239232 122.58419324 -43.52239232 122.58419324 -55.48681641 116.54541016 C-61.78747988 115.55200101 -67.09533029 115.92331439 -73.625 116.3125 C-73.625 128.1925 -73.625 140.0725 -73.625 152.3125 C-74.285 152.3125 -74.945 152.3125 -75.625 152.3125 C-77.10546875 150.80859375 -77.10546875 150.80859375 -78.8125 148.75 C-84.47595856 141.6546461 -84.47595856 141.6546461 -91.625 136.3125 C-91.61976318 137.15546631 -91.61452637 137.99843262 -91.60913086 138.86694336 C-91.59212174 141.98477936 -91.57956594 145.10259177 -91.57006836 148.22045898 C-91.56502943 149.57170386 -91.55819823 150.92294326 -91.54956055 152.27416992 C-91.53747581 154.21270434 -91.53230172 156.151278 -91.52734375 158.08984375 C-91.52210693 159.25765381 -91.51687012 160.42546387 -91.51147461 161.62866211 C-91.625 164.3125 -91.625 164.3125 -92.625 165.3125 C-94.80231389 165.43651914 -96.98363454 165.4905151 -99.16430664 165.51782227 C-99.84720261 165.52772186 -100.53009857 165.53762146 -101.23368835 165.54782104 C-103.50080853 165.57951935 -105.76794969 165.60422613 -108.03515625 165.62890625 C-109.60315001 165.6494686 -111.17113813 165.67046488 -112.73912048 165.69187927 C-116.87370248 165.74717424 -121.00833511 165.79655062 -125.14300537 165.84472656 C-129.35905483 165.89488753 -133.57503043 165.95060174 -137.79101562 166.00585938 C-146.06894803 166.1135317 -154.34694208 166.21495635 -162.625 166.3125 C-154.99828719 175.78663348 -154.99828719 175.78663348 -143.9543457 179.75073242 C-141.56988938 179.78347126 -139.18392787 179.75350237 -136.80078125 179.66796875 C-134.89875191 179.67223625 -134.89875191 179.67223625 -132.95829773 179.67658997 C-129.6261957 179.6742639 -126.30327593 179.62138463 -122.97271729 179.54174805 C-119.56341752 179.47181369 -116.1540574 179.46497335 -112.74414062 179.45507812 C-108.91971052 179.44166229 -105.09742832 179.41983247 -101.27351379 179.35453796 C-99.58992012 179.32635735 -99.58992012 179.32635735 -97.87231445 179.29760742 C-96.88036575 179.27695724 -95.88841705 179.25630707 -94.8664093 179.23503113 C-92.625 179.3125 -92.625 179.3125 -91.625 180.3125 C-91.53166295 181.90860982 -91.50754628 183.50883428 -91.51147461 185.10766602 C-91.51159546 186.14298462 -91.51171631 187.17830322 -91.51184082 188.24499512 C-91.51695679 189.34106079 -91.52207275 190.43712646 -91.52734375 191.56640625 C-91.52835083 192.56796753 -91.52935791 193.56952881 -91.53039551 194.60144043 C-91.53564571 198.35930519 -91.54960683 202.11715369 -91.5625 205.875 C-91.583125 214.269375 -91.60375 222.66375 -91.625 231.3125 C-126.77 231.8075 -126.77 231.8075 -162.625 232.3125 C-156.685 238.2525 -150.745 244.1925 -144.625 250.3125 C-144.625 250.6425 -144.625 250.9725 -144.625 251.3125 C-151.225 251.3125 -157.825 251.3125 -164.625 251.3125 C-167.63865527 283.02884951 -167.63865527 283.02884951 -159.39501953 312.64794922 C-150.95923809 321.92236403 -140.46286386 322.07563944 -128.6434021 322.78697205 C-116.60140851 323.28290316 -104.71638677 322.64752583 -92.625 322.3125 C-92.625 339.1425 -92.625 355.9725 -92.625 373.3125 C-127.77 373.8075 -127.77 373.8075 -163.625 374.3125 C-118.745 419.1925 -73.865 464.0725 -27.625 510.3125 C-32.89148941 511.62912235 -37.01719716 510.7126468 -42.3125 509.8125 C-43.37251221 509.63235352 -44.43252441 509.45220703 -45.5246582 509.26660156 C-89.92272977 501.31119867 -131.37359384 481.58092977 -165.625 452.3125 C-166.37394531 451.67570312 -167.12289062 451.03890625 -167.89453125 450.3828125 C-181.39020621 438.56547532 -194.06058025 425.82698412 -204.625 411.3125 C-205.48149066 410.16255169 -206.33826433 409.01281411 -207.1953125 407.86328125 C-213.23534209 399.67315742 -218.61867614 391.16870382 -223.625 382.3125 C-224.0271875 381.60528809 -224.429375 380.89807617 -224.84375 380.16943359 C-237.8691741 357.03404164 -246.61801461 331.86287591 -251.9375 305.875 C-252.08485596 305.15610596 -252.23221191 304.43721191 -252.3840332 303.6965332 C-255.35789088 288.05024391 -255.99800362 272.57681954 -255.9375 256.6875 C-255.93534485 255.66959381 -255.9331897 254.65168762 -255.93096924 253.60293579 C-255.88129854 238.99386477 -255.63040191 224.66174147 -252.625 210.3125 C-252.42632324 209.33764648 -252.22764648 208.36279297 -252.02294922 207.35839844 C-241.90232806 158.9765226 -219.9858123 114.98821731 -185.625 79.3125 C-184.99287598 78.65314453 -184.36075195 77.99378906 -183.70947266 77.31445312 C-174.56502521 67.82619695 -165.26765991 59.0862956 -154.625 51.3125 C-153.47394983 50.45443848 -152.32290823 49.59636549 -151.171875 48.73828125 C-142.98224019 42.70072604 -134.47961724 37.31792698 -125.625 32.3125 C-124.91778809 31.9103125 -124.21057617 31.508125 -123.48193359 31.09375 C-100.34654164 18.0683259 -75.17537591 9.31948539 -49.1875 4 C-48.46860596 3.85264404 -47.74971191 3.70528809 -47.0090332 3.5534668 C-31.36274391 0.57960912 -15.88931954 -0.06050362 0 0 Z " fill="#A2D3FE" transform="translate(255.625,-0.3125)"/>
<path d="M0 0 C6.6 0 13.2 0 20 0 C20 89.43 20 178.86 20 271 C13.4 271 6.8 271 0 271 C0 181.57 0 92.14 0 0 Z " fill="#414952" transform="translate(313,116)"/>
<path d="M0 0 C6.6 0 13.2 0 20 0 C20 89.43 20 178.86 20 271 C13.4 271 6.8 271 0 271 C0 181.57 0 92.14 0 0 Z " fill="#636A7A" transform="translate(182,116)"/>
<path d="M0 0 C24.09 0 48.18 0 73 0 C73 16.83 73 33.66 73 51 C48.91 51 24.82 51 0 51 C0 34.17 0 17.34 0 0 Z " fill="#606AEA" transform="translate(352,322)"/>
<path d="M0 0 C24.09 0 48.18 0 73 0 C73 16.83 73 33.66 73 51 C48.91 51 24.82 51 0 51 C0 34.17 0 17.34 0 0 Z " fill="#414952" transform="translate(221,322)"/>
<path d="M0 0 C24.09 0 48.18 0 73 0 C73 16.83 73 33.66 73 51 C48.91 51 24.82 51 0 51 C0 34.17 0 17.34 0 0 Z " fill="#FC6A18" transform="translate(352,251)"/>
<path d="M0 0 C24.09 0 48.18 0 73 0 C73 16.83 73 33.66 73 51 C48.91 51 24.82 51 0 51 C0 34.17 0 17.34 0 0 Z " fill="#606AEA" transform="translate(221,251)"/>
<path d="M0 0 C24.09 0 48.18 0 73 0 C73 16.83 73 33.66 73 51 C48.91 51 24.82 51 0 51 C0 34.17 0 17.34 0 0 Z " fill="#414952" transform="translate(221,180)"/>
<path d="M0 0 C23.76 0 47.52 0 72 0 C72 16.83 72 33.66 72 51 C48.24 51 24.48 51 0 51 C0 34.17 0 17.34 0 0 Z " fill="#FE9501" transform="translate(91,322)"/>
<path d="M0 0 C23.76 0 47.52 0 72 0 C72 16.83 72 33.66 72 51 C48.24 51 24.48 51 0 51 C0 34.17 0 17.34 0 0 Z " fill="#7484F2" transform="translate(91,251)"/>
<path d="M0 0 C23.76 0 47.52 0 72 0 C72 16.5 72 33 72 50 C48.24 50 24.48 50 0 50 C0 33.5 0 17 0 0 Z " fill="#414952" transform="translate(352,180)"/>
<path d="M0 0 C23.76 0 47.52 0 72 0 C72 16.5 72 33 72 50 C48.24 50 24.48 50 0 50 C0 33.5 0 17 0 0 Z " fill="#FF9500" transform="translate(91,180)"/>
<path d="M0 0 C23.76 0 47.52 0 72 0 C72 9.9 72 19.8 72 30 C48.24 30 24.48 30 0 30 C0 20.1 0 10.2 0 0 Z " fill="#E8ECF5" transform="translate(352,134)"/>
<path d="M0 0 C23.76 0 47.52 0 72 0 C72 9.9 72 19.8 72 30 C48.24 30 24.48 30 0 30 C0 20.1 0 10.2 0 0 Z " fill="#FEFEFF" transform="translate(91,134)"/>
<path d="M0 0 C23.76 0 47.52 0 72 0 C72 9.9 72 19.8 72 30 C48.24 30 24.48 30 0 30 C0 20.1 0 10.2 0 0 Z " fill="#E8EDF5" transform="translate(222,134)"/>
<path d="M0 0 C11.55 0 23.1 0 35 0 C35 16.83 35 33.66 35 51 C23.45 51 11.9 51 0 51 C0 34.17 0 17.34 0 0 Z " fill="#62697A" transform="translate(221,322)"/>
<path d="M0 0 C11.55 0 23.1 0 35 0 C35 16.83 35 33.66 35 51 C23.45 51 11.9 51 0 51 C0 34.17 0 17.34 0 0 Z " fill="#7484F2" transform="translate(221,251)"/>
<path d="M0 0 C11.55 0 23.1 0 35 0 C35 16.83 35 33.66 35 51 C23.45 51 11.9 51 0 51 C0 34.17 0 17.34 0 0 Z " fill="#626A7A" transform="translate(221,180)"/>
<path d="M0 0 C11.22 0 22.44 0 34 0 C34 9.57 34 19.14 34 29 C22.78 29 11.56 29 0 29 C0 19.43 0 9.86 0 0 Z " fill="#FEFEFE" transform="translate(222,135)"/>
</svg>
