<?xml version="1.0" encoding="UTF-8"?>
<svg version="1.1" xmlns="http://www.w3.org/2000/svg" width="225" height="225">
<path d="M0 0 C7.92 0 15.84 0 24 0 C24 49.5 24 99 24 150 C20.25855477 150.74828905 17.98311047 151.10100676 14.35546875 150.87890625 C13.51435547 150.83056641 12.67324219 150.78222656 11.80664062 150.73242188 C10.94232422 150.67634766 10.07800781 150.62027344 9.1875 150.5625 C8.30384766 150.51029297 7.42019531 150.45808594 6.50976562 150.40429688 C4.33949592 150.27525381 2.16969307 150.13840044 0 150 C-0.15503837 133.83854443 -0.30302313 117.67704124 -0.4429636 101.51544857 C-0.50812164 94.00871902 -0.57545416 86.50202156 -0.64819336 78.99536133 C-0.71170205 72.44068353 -0.77083818 65.88598215 -0.82505554 59.33122069 C-0.85381774 55.8713338 -0.88454292 52.41149338 -0.92053413 48.95167351 C-1.08612292 32.58576857 -0.86216465 16.3462934 0 0 Z " fill="#281F63" transform="translate(152,14)"/>
<path d="M0 0 C1.40958984 -0.00193359 1.40958984 -0.00193359 2.84765625 -0.00390625 C3.83636719 -0.00003906 4.82507813 0.00382812 5.84375 0.0078125 C7.32681641 0.00201172 7.32681641 0.00201172 8.83984375 -0.00390625 C9.77957031 -0.00261719 10.71929687 -0.00132813 11.6875 0 C12.55568359 0.00112793 13.42386719 0.00225586 14.31835938 0.00341797 C16.34375 0.1328125 16.34375 0.1328125 17.34375 1.1328125 C17.44254672 3.05412027 17.47007217 4.97910798 17.47073364 6.9029541 C17.47355347 8.15659256 17.47637329 9.41023102 17.47927856 10.70185852 C17.47733397 12.10397353 17.47528578 13.5060884 17.47314453 14.90820312 C17.47449852 16.37469018 17.47627845 17.8411769 17.47845459 19.30766296 C17.48302916 23.3013536 17.48123927 27.29501853 17.4780755 31.28870964 C17.47555202 35.45895332 17.47788941 39.62919472 17.47946167 43.79943848 C17.4812834 50.80395912 17.47887697 57.80846923 17.47412109 64.81298828 C17.46867847 72.92286539 17.47044112 81.03271736 17.4759475 89.14259386 C17.48047853 96.09289278 17.48112923 103.04318411 17.47850883 109.99348402 C17.476946 114.15014527 17.47675245 118.3067947 17.48004532 122.4634552 C17.48292389 126.37037654 17.4809486 130.27726532 17.47515106 134.18418312 C17.47382339 135.62216449 17.47421771 137.06014858 17.47641373 138.49812889 C17.47912491 140.45297526 17.4751307 142.40782759 17.47073364 144.3626709 C17.47035662 145.45922752 17.46997959 146.55578415 17.46959114 147.68556976 C17.34375 150.1328125 17.34375 150.1328125 16.34375 151.1328125 C13.04578855 151.51320118 9.72162457 151.60265388 6.40625 151.7578125 C5.47361328 151.809375 4.54097656 151.8609375 3.58007812 151.9140625 C2.68869141 151.95789063 1.79730469 152.00171875 0.87890625 152.046875 C-0.35267212 152.1080249 -0.35267212 152.1080249 -1.60913086 152.17041016 C-3.65625 152.1328125 -3.65625 152.1328125 -5.65625 151.1328125 C-5.67957758 131.59251455 -5.69722848 112.05221941 -5.70806217 92.51191044 C-5.71322543 83.43965757 -5.72026869 74.36741334 -5.73168945 65.29516602 C-5.74163538 57.39072538 -5.74810321 49.48629099 -5.75033849 41.58184427 C-5.75164576 37.39386531 -5.75473259 33.20590423 -5.76198006 29.01793098 C-5.76873884 25.08065952 -5.77086725 21.14341342 -5.76935768 17.2061367 C-5.76963407 15.75686633 -5.77164004 14.30759515 -5.77545547 12.85832977 C-5.78039043 10.88810836 -5.77864809 8.91787352 -5.77650452 6.94764709 C-5.77742631 5.84241731 -5.7783481 4.73718752 -5.77929783 3.59846592 C-5.566326 -0.66909992 -3.80596076 0.00494464 0 0 Z " fill="#120653" transform="translate(55.65625,61.8671875)"/>
<path d="M0 0 C0.91644287 0.00523682 1.83288574 0.01047363 2.77709961 0.01586914 C3.76645508 0.0190918 4.75581055 0.02231445 5.77514648 0.02563477 C6.81606445 0.03401367 7.85698242 0.04239258 8.92944336 0.05102539 C10.49662109 0.05779297 10.49662109 0.05779297 12.09545898 0.06469727 C14.68600996 0.07652627 17.27644895 0.0930085 19.86694336 0.11352539 C19.89221338 6.64631325 19.90977628 13.1790886 19.921875 19.71191406 C19.92691653 21.93620271 19.93374959 24.16048802 19.94238281 26.38476562 C19.95445634 29.57430848 19.96017332 32.76380768 19.96459961 35.95336914 C19.96976089 36.9544017 19.97492218 37.95543427 19.98023987 38.98680115 C19.98035316 40.36811974 19.98035316 40.36811974 19.98046875 41.77734375 C19.98268936 42.5923082 19.98490997 43.40727264 19.98719788 44.24693298 C19.86694336 46.11352539 19.86694336 46.11352539 18.86694336 47.11352539 C17.4021583 47.21235876 15.93271378 47.24431828 14.46459961 47.24633789 C13.57450195 47.24762695 12.6844043 47.24891602 11.76733398 47.25024414 C10.83083008 47.24637695 9.89432617 47.24250977 8.92944336 47.23852539 C7.99680664 47.24239258 7.06416992 47.24625977 6.10327148 47.25024414 C5.21188477 47.24895508 4.32049805 47.24766602 3.40209961 47.24633789 C2.58104736 47.24520996 1.75999512 47.24408203 0.9140625 47.24291992 C-1.13305664 47.11352539 -1.13305664 47.11352539 -3.13305664 46.11352539 C-3.15832726 39.72315308 -3.17588981 33.33279356 -3.18798828 26.94238281 C-3.19302972 24.76659666 -3.19986271 22.59081392 -3.20849609 20.41503906 C-3.22057002 17.29499472 -3.22628669 14.17499501 -3.23071289 11.05493164 C-3.23587418 10.07577286 -3.24103546 9.09661407 -3.24635315 8.08778381 C-3.24642868 7.18692551 -3.24650421 6.2860672 -3.24658203 5.35791016 C-3.24880264 4.5607106 -3.25102325 3.76351105 -3.25331116 2.94215393 C-3.07678896 0.25790105 -2.68038851 0.14265545 0 0 Z " fill="#130654" transform="translate(122.133056640625,153.886474609375)"/>
<path d="M0 0 C1.11955078 -0.00193359 1.11955078 -0.00193359 2.26171875 -0.00390625 C3.02613281 -0.00003906 3.79054687 0.00382812 4.578125 0.0078125 C5.35800781 0.00394531 6.13789063 0.00007813 6.94140625 -0.00390625 C12.70142367 0.00611117 12.70142367 0.00611117 13.828125 1.1328125 C13.92617351 2.5395647 13.95610686 3.95116386 13.95751953 5.36132812 C13.96067169 6.25895874 13.96382385 7.15658936 13.96707153 8.0814209 C13.9650473 9.05744263 13.96302307 10.03346436 13.9609375 11.0390625 C13.96237259 12.5316156 13.96237259 12.5316156 13.96383667 14.05432129 C13.9645186 16.16267968 13.96266344 18.27104015 13.95849609 20.37939453 C13.95314803 23.61886277 13.95844067 26.85819235 13.96484375 30.09765625 C13.96418297 32.14062531 13.96290181 34.18359428 13.9609375 36.2265625 C13.96296173 37.20258423 13.96498596 38.17860596 13.96707153 39.1842041 C13.96391937 40.08183472 13.96076721 40.97946533 13.95751953 41.90429688 C13.95672394 42.69848022 13.95592834 43.49266357 13.95510864 44.31091309 C13.828125 46.1328125 13.828125 46.1328125 12.828125 47.1328125 C5.87040986 48.04770686 -1.16192902 48.36264679 -8.171875 48.1328125 C-9.171875 47.1328125 -9.171875 47.1328125 -9.29212952 45.26622009 C-9.28990891 44.45125565 -9.28768829 43.6362912 -9.28540039 42.79663086 C-9.28532486 41.8757518 -9.28524933 40.95487274 -9.28517151 40.00608826 C-9.28001022 39.00505569 -9.27484894 38.00402313 -9.26953125 36.97265625 C-9.2681163 35.95305313 -9.26670135 34.93345001 -9.26524353 33.88294983 C-9.25962597 30.61204143 -9.2470705 27.34120037 -9.234375 24.0703125 C-9.22936226 21.85872494 -9.22479896 19.64713632 -9.22070312 17.43554688 C-9.20965084 12.00127893 -9.19289563 6.56705053 -9.171875 1.1328125 C-6.06908409 0.45149753 -3.17610672 0.00527092 0 0 Z " fill="#22195F" transform="translate(128.171875,61.8671875)"/>
<path d="M0 0 C0.02527062 6.39037231 0.04283317 12.78073183 0.05493164 19.17114258 C0.05997308 21.34692873 0.06680607 23.52271147 0.07543945 25.69848633 C0.08751338 28.81853067 0.09323005 31.93853038 0.09765625 35.05859375 C0.10281754 36.03775253 0.10797882 37.01691132 0.11329651 38.02574158 C0.11340981 39.37702904 0.11340981 39.37702904 0.11352539 40.75561523 C0.115746 41.55281479 0.11796661 42.35001434 0.12025452 43.17137146 C0 45 0 45 -1 46 C-2.54955559 46.09899523 -4.10353673 46.13079524 -5.65625 46.1328125 C-7.06583984 46.13474609 -7.06583984 46.13474609 -8.50390625 46.13671875 C-9.49261719 46.13285156 -10.48132813 46.12898438 -11.5 46.125 C-12.48871094 46.12886719 -13.47742188 46.13273437 -14.49609375 46.13671875 C-15.43582031 46.13542969 -16.37554687 46.13414062 -17.34375 46.1328125 C-18.21193359 46.13168457 -19.08011719 46.13055664 -19.97460938 46.12939453 C-22 46 -22 46 -23 45 C-23.12713722 43.62498918 -23.18819063 42.2437629 -23.22119141 40.86328125 C-23.24436432 39.98567139 -23.26753723 39.10806152 -23.29141235 38.20385742 C-23.3112619 37.24970947 -23.33111145 36.29556152 -23.3515625 35.3125 C-23.37471527 34.33966064 -23.39786804 33.36682129 -23.42172241 32.36450195 C-23.46943442 30.30327711 -23.51465947 28.24199347 -23.55761719 26.18066406 C-23.62471499 23.01345309 -23.70244592 19.84662634 -23.78125 16.6796875 C-23.82616265 14.682306 -23.87045444 12.68491041 -23.9140625 10.6875 C-23.93796051 9.73335205 -23.96185852 8.7792041 -23.98648071 7.79614258 C-24.0033493 6.91853271 -24.0202179 6.04092285 -24.03759766 5.13671875 C-24.05456696 4.36030029 -24.07153625 3.58388184 -24.08901978 2.78393555 C-24 1 -24 1 -23 0 C-19.72304193 -0.3811199 -16.41956174 -0.47006902 -13.125 -0.625 C-11.73861328 -0.70234375 -11.73861328 -0.70234375 -10.32421875 -0.78125 C-8.99197266 -0.84699219 -8.99197266 -0.84699219 -7.6328125 -0.9140625 C-6.81699707 -0.9548291 -6.00118164 -0.9955957 -5.16064453 -1.03759766 C-3 -1 -3 -1 0 0 Z " fill="#130754" transform="translate(108,118)"/>
<path d="M0 0 C7.59 0 15.18 0 23 0 C23 15.18 23 30.36 23 46 C15.74 46 8.48 46 1 46 C-1.68625628 43.31374372 -0.50114595 35.61792725 -0.625 32 C-0.67003662 30.73317383 -0.71507324 29.46634766 -0.76147461 28.16113281 C-1.05205505 18.67649046 -0.78766328 9.45195935 0 0 Z " fill="#130754" transform="translate(85,26)"/>
<path d="M0 0 C1.40958984 -0.00193359 1.40958984 -0.00193359 2.84765625 -0.00390625 C3.83636719 -0.00003906 4.82507813 0.00382812 5.84375 0.0078125 C7.32681641 0.00201172 7.32681641 0.00201172 8.83984375 -0.00390625 C9.77957031 -0.00261719 10.71929687 -0.00132813 11.6875 0 C12.55568359 0.00112793 13.42386719 0.00225586 14.31835938 0.00341797 C16.34375 0.1328125 16.34375 0.1328125 17.34375 1.1328125 C17.44254672 3.05412027 17.47007217 4.97910798 17.47073364 6.9029541 C17.47355347 8.15659256 17.47637329 9.41023102 17.47927856 10.70185852 C17.47733397 12.10397353 17.47528578 13.5060884 17.47314453 14.90820312 C17.47449852 16.37469018 17.47627845 17.8411769 17.47845459 19.30766296 C17.48302916 23.3013536 17.48123927 27.29501853 17.4780755 31.28870964 C17.47555202 35.45895332 17.47788941 39.62919472 17.47946167 43.79943848 C17.4812834 50.80395912 17.47887697 57.80846923 17.47412109 64.81298828 C17.46867847 72.92286539 17.47044112 81.03271736 17.4759475 89.14259386 C17.48047853 96.09289278 17.48112923 103.04318411 17.47850883 109.99348402 C17.476946 114.15014527 17.47675245 118.3067947 17.48004532 122.4634552 C17.48292389 126.37037654 17.4809486 130.27726532 17.47515106 134.18418312 C17.47382339 135.62216449 17.47421771 137.06014858 17.47641373 138.49812889 C17.47912491 140.45297526 17.4751307 142.40782759 17.47073364 144.3626709 C17.47035662 145.45922752 17.46997959 146.55578415 17.46959114 147.68556976 C17.34375 150.1328125 17.34375 150.1328125 16.34375 151.1328125 C13.04578855 151.51320118 9.72162457 151.60265388 6.40625 151.7578125 C5.47361328 151.809375 4.54097656 151.8609375 3.58007812 151.9140625 C2.68869141 151.95789063 1.79730469 152.00171875 0.87890625 152.046875 C-0.35267212 152.1080249 -0.35267212 152.1080249 -1.60913086 152.17041016 C-3.65625 152.1328125 -3.65625 152.1328125 -5.65625 151.1328125 C-5.67957758 131.59251455 -5.69722848 112.05221941 -5.70806217 92.51191044 C-5.71322543 83.43965757 -5.72026869 74.36741334 -5.73168945 65.29516602 C-5.74163538 57.39072538 -5.74810321 49.48629099 -5.75033849 41.58184427 C-5.75164576 37.39386531 -5.75473259 33.20590423 -5.76198006 29.01793098 C-5.76873884 25.08065952 -5.77086725 21.14341342 -5.76935768 17.2061367 C-5.76963407 15.75686633 -5.77164004 14.30759515 -5.77545547 12.85832977 C-5.78039043 10.88810836 -5.77864809 8.91787352 -5.77650452 6.94764709 C-5.77742631 5.84241731 -5.7783481 4.73718752 -5.77929783 3.59846592 C-5.566326 -0.66909992 -3.80596076 0.00494464 0 0 Z M-3.65625 3.1328125 C-3.65625 51.3128125 -3.65625 99.4928125 -3.65625 149.1328125 C2.61375 149.1328125 8.88375 149.1328125 15.34375 149.1328125 C15.34375 100.9528125 15.34375 52.7728125 15.34375 3.1328125 C9.07375 3.1328125 2.80375 3.1328125 -3.65625 3.1328125 Z " fill="#515182" transform="translate(55.65625,61.8671875)"/>
<path d="M0 0 C0.9583374 0.00523682 1.9166748 0.01047363 2.90405273 0.01586914 C3.83548096 0.0183667 4.76690918 0.02086426 5.7265625 0.0234375 C7.51404907 0.03709351 7.51404907 0.03709351 9.33764648 0.05102539 C13.11202148 0.07165039 16.88639648 0.09227539 20.77514648 0.11352539 C20.77514648 8.03352539 20.77514648 15.95352539 20.77514648 24.11352539 C15.39202148 24.17540039 15.39202148 24.17540039 9.90014648 24.23852539 C8.20462646 24.2658374 8.20462646 24.2658374 6.47485352 24.29370117 C5.58652832 24.29869629 4.69820313 24.30369141 3.78295898 24.30883789 C2.4161499 24.32454834 2.4161499 24.32454834 1.02172852 24.34057617 C-1.22485352 24.11352539 -1.22485352 24.11352539 -3.22485352 22.11352539 C-3.46777344 19.97460938 -3.46777344 19.97460938 -3.45532227 17.35961914 C-3.45338867 16.42311523 -3.45145508 15.48661133 -3.44946289 14.52172852 C-3.4372168 13.54139648 -3.4249707 12.56106445 -3.41235352 11.55102539 C-3.41170898 10.56682617 -3.41106445 9.58262695 -3.41040039 8.56860352 C-3.3583155 0.17136143 -3.3583155 0.17136143 0 0 Z " fill="#E60687" transform="translate(121.224853515625,119.886474609375)"/>
<path d="M0 0 C7.26 0 14.52 0 22 0 C22 7.92 22 15.84 22 24 C18.69931952 24.82517012 16.91815177 25.08759547 13.671875 24.87890625 C12.87265625 24.83056641 12.0734375 24.78222656 11.25 24.73242188 C10.425 24.67634766 9.6 24.62027344 8.75 24.5625 C7.90953125 24.51029297 7.0690625 24.45808594 6.203125 24.40429688 C4.1350648 24.27504311 2.0674778 24.13825726 0 24 C-1.50575891 19.28554055 -2.27365641 15.30991745 -2.25 10.3125 C-2.25515625 9.21550781 -2.2603125 8.11851563 -2.265625 6.98828125 C-2 4 -2 4 0 0 Z " fill="#FFC904" transform="translate(86,83)"/>
<path d="M0 0 C0.91644287 0.00523682 1.83288574 0.01047363 2.77709961 0.01586914 C3.76645508 0.0190918 4.75581055 0.02231445 5.77514648 0.02563477 C6.81606445 0.03401367 7.85698242 0.04239258 8.92944336 0.05102539 C10.49662109 0.05779297 10.49662109 0.05779297 12.09545898 0.06469727 C14.68600996 0.07652627 17.27644895 0.0930085 19.86694336 0.11352539 C19.89221338 6.64631325 19.90977628 13.1790886 19.921875 19.71191406 C19.92691653 21.93620271 19.93374959 24.16048802 19.94238281 26.38476562 C19.95445634 29.57430848 19.96017332 32.76380768 19.96459961 35.95336914 C19.96976089 36.9544017 19.97492218 37.95543427 19.98023987 38.98680115 C19.98035316 40.36811974 19.98035316 40.36811974 19.98046875 41.77734375 C19.98268936 42.5923082 19.98490997 43.40727264 19.98719788 44.24693298 C19.86694336 46.11352539 19.86694336 46.11352539 18.86694336 47.11352539 C17.4021583 47.21235876 15.93271378 47.24431828 14.46459961 47.24633789 C13.57450195 47.24762695 12.6844043 47.24891602 11.76733398 47.25024414 C10.83083008 47.24637695 9.89432617 47.24250977 8.92944336 47.23852539 C7.99680664 47.24239258 7.06416992 47.24625977 6.10327148 47.25024414 C5.21188477 47.24895508 4.32049805 47.24766602 3.40209961 47.24633789 C2.58104736 47.24520996 1.75999512 47.24408203 0.9140625 47.24291992 C-1.13305664 47.11352539 -1.13305664 47.11352539 -3.13305664 46.11352539 C-3.15832726 39.72315308 -3.17588981 33.33279356 -3.18798828 26.94238281 C-3.19302972 24.76659666 -3.19986271 22.59081392 -3.20849609 20.41503906 C-3.22057002 17.29499472 -3.22628669 14.17499501 -3.23071289 11.05493164 C-3.23587418 10.07577286 -3.24103546 9.09661407 -3.24635315 8.08778381 C-3.24642868 7.18692551 -3.24650421 6.2860672 -3.24658203 5.35791016 C-3.24880264 4.5607106 -3.25102325 3.76351105 -3.25331116 2.94215393 C-3.07678896 0.25790105 -2.68038851 0.14265545 0 0 Z M-0.13305664 4.11352539 C-0.13305664 17.31352539 -0.13305664 30.51352539 -0.13305664 44.11352539 C5.47694336 44.11352539 11.08694336 44.11352539 16.86694336 44.11352539 C16.86694336 30.91352539 16.86694336 17.71352539 16.86694336 4.11352539 C11.25694336 4.11352539 5.64694336 4.11352539 -0.13305664 4.11352539 Z " fill="#0C0650" transform="translate(122.133056640625,153.886474609375)"/>
<path d="M0 0 C0.02527062 6.39037231 0.04283317 12.78073183 0.05493164 19.17114258 C0.05997308 21.34692873 0.06680607 23.52271147 0.07543945 25.69848633 C0.08751338 28.81853067 0.09323005 31.93853038 0.09765625 35.05859375 C0.10281754 36.03775253 0.10797882 37.01691132 0.11329651 38.02574158 C0.11340981 39.37702904 0.11340981 39.37702904 0.11352539 40.75561523 C0.115746 41.55281479 0.11796661 42.35001434 0.12025452 43.17137146 C0 45 0 45 -1 46 C-2.54955559 46.09899523 -4.10353673 46.13079524 -5.65625 46.1328125 C-7.06583984 46.13474609 -7.06583984 46.13474609 -8.50390625 46.13671875 C-9.49261719 46.13285156 -10.48132813 46.12898438 -11.5 46.125 C-12.48871094 46.12886719 -13.47742188 46.13273437 -14.49609375 46.13671875 C-15.43582031 46.13542969 -16.37554687 46.13414062 -17.34375 46.1328125 C-18.21193359 46.13168457 -19.08011719 46.13055664 -19.97460938 46.12939453 C-22 46 -22 46 -23 45 C-23.12713722 43.62498918 -23.18819063 42.2437629 -23.22119141 40.86328125 C-23.24436432 39.98567139 -23.26753723 39.10806152 -23.29141235 38.20385742 C-23.3112619 37.24970947 -23.33111145 36.29556152 -23.3515625 35.3125 C-23.37471527 34.33966064 -23.39786804 33.36682129 -23.42172241 32.36450195 C-23.46943442 30.30327711 -23.51465947 28.24199347 -23.55761719 26.18066406 C-23.62471499 23.01345309 -23.70244592 19.84662634 -23.78125 16.6796875 C-23.82616265 14.682306 -23.87045444 12.68491041 -23.9140625 10.6875 C-23.93796051 9.73335205 -23.96185852 8.7792041 -23.98648071 7.79614258 C-24.0033493 6.91853271 -24.0202179 6.04092285 -24.03759766 5.13671875 C-24.05456696 4.36030029 -24.07153625 3.58388184 -24.08901978 2.78393555 C-24 1 -24 1 -23 0 C-19.72304193 -0.3811199 -16.41956174 -0.47006902 -13.125 -0.625 C-11.73861328 -0.70234375 -11.73861328 -0.70234375 -10.32421875 -0.78125 C-8.99197266 -0.84699219 -8.99197266 -0.84699219 -7.6328125 -0.9140625 C-6.81699707 -0.9548291 -6.00118164 -0.9955957 -5.16064453 -1.03759766 C-3 -1 -3 -1 0 0 Z M-20 3 C-20 16.2 -20 29.4 -20 43 C-14.39 43 -8.78 43 -3 43 C-3 29.8 -3 16.6 -3 3 C-8.61 3 -14.22 3 -20 3 Z " fill="#3B386F" transform="translate(108,118)"/>
<path d="M0 0 C7.59 0 15.18 0 23 0 C23 15.18 23 30.36 23 46 C15.74 46 8.48 46 1 46 C-1.68625628 43.31374372 -0.50114595 35.61792725 -0.625 32 C-0.67003662 30.73317383 -0.71507324 29.46634766 -0.76147461 28.16113281 C-1.05205505 18.67649046 -0.78766328 9.45195935 0 0 Z M3 3 C3 16.2 3 29.4 3 43 C8.61 43 14.22 43 20 43 C20 29.8 20 16.6 20 3 C14.39 3 8.78 3 3 3 Z " fill="#37346D" transform="translate(85,26)"/>
<path d="M0 0 C0.91644287 0.00523682 1.83288574 0.01047363 2.77709961 0.01586914 C3.76645508 0.0190918 4.75581055 0.02231445 5.77514648 0.02563477 C6.81606445 0.03401367 7.85698242 0.04239258 8.92944336 0.05102539 C10.49662109 0.05779297 10.49662109 0.05779297 12.09545898 0.06469727 C14.68600996 0.07652627 17.27644895 0.0930085 19.86694336 0.11352539 C19.89221338 6.64631325 19.90977628 13.1790886 19.921875 19.71191406 C19.92691653 21.93620271 19.93374959 24.16048802 19.94238281 26.38476562 C19.95445634 29.57430848 19.96017332 32.76380768 19.96459961 35.95336914 C19.96976089 36.9544017 19.97492218 37.95543427 19.98023987 38.98680115 C19.98035316 40.36811974 19.98035316 40.36811974 19.98046875 41.77734375 C19.98268936 42.5923082 19.98490997 43.40727264 19.98719788 44.24693298 C19.86694336 46.11352539 19.86694336 46.11352539 18.86694336 47.11352539 C17.37822476 47.20021971 15.88549836 47.22056033 14.39428711 47.21118164 C13.49516602 47.20795898 12.59604492 47.20473633 11.66967773 47.20141602 C10.25138672 47.18884766 10.25138672 47.18884766 8.80444336 47.17602539 C7.85504883 47.17151367 6.9056543 47.16700195 5.92749023 47.16235352 C3.57391271 47.15052649 1.22045859 47.13404564 -1.13305664 47.11352539 C-1.13305664 46.78352539 -1.13305664 46.45352539 -1.13305664 46.11352539 C5.13694336 46.11352539 11.40694336 46.11352539 17.86694336 46.11352539 C17.86694336 31.59352539 17.86694336 17.07352539 17.86694336 2.11352539 C11.26694336 2.11352539 4.66694336 2.11352539 -2.13305664 2.11352539 C-2.13305664 16.63352539 -2.13305664 31.15352539 -2.13305664 46.11352539 C-2.46305664 46.11352539 -2.79305664 46.11352539 -3.13305664 46.11352539 C-3.15832726 39.72315308 -3.17588981 33.33279356 -3.18798828 26.94238281 C-3.19302972 24.76659666 -3.19986271 22.59081392 -3.20849609 20.41503906 C-3.22057002 17.29499472 -3.22628669 14.17499501 -3.23071289 11.05493164 C-3.23587418 10.07577286 -3.24103546 9.09661407 -3.24635315 8.08778381 C-3.24642868 7.18692551 -3.24650421 6.2860672 -3.24658203 5.35791016 C-3.24880264 4.5607106 -3.25102325 3.76351105 -3.25331116 2.94215393 C-3.07678896 0.25790105 -2.68038851 0.14265545 0 0 Z " fill="#7E7EA2" transform="translate(122.133056640625,153.886474609375)"/>
<path d="M0 0 C0.9583374 0.00523682 1.9166748 0.01047363 2.90405273 0.01586914 C3.83548096 0.0183667 4.76690918 0.02086426 5.7265625 0.0234375 C7.51404907 0.03709351 7.51404907 0.03709351 9.33764648 0.05102539 C13.11202148 0.07165039 16.88639648 0.09227539 20.77514648 0.11352539 C20.77514648 8.03352539 20.77514648 15.95352539 20.77514648 24.11352539 C15.39202148 24.17540039 15.39202148 24.17540039 9.90014648 24.23852539 C8.20462646 24.2658374 8.20462646 24.2658374 6.47485352 24.29370117 C5.58652832 24.29869629 4.69820313 24.30369141 3.78295898 24.30883789 C2.4161499 24.32454834 2.4161499 24.32454834 1.02172852 24.34057617 C-1.22485352 24.11352539 -1.22485352 24.11352539 -3.22485352 22.11352539 C-3.46777344 19.97460938 -3.46777344 19.97460938 -3.45532227 17.35961914 C-3.45338867 16.42311523 -3.45145508 15.48661133 -3.44946289 14.52172852 C-3.4372168 13.54139648 -3.4249707 12.56106445 -3.41235352 11.55102539 C-3.41170898 10.56682617 -3.41106445 9.58262695 -3.41040039 8.56860352 C-3.3583155 0.17136143 -3.3583155 0.17136143 0 0 Z M-1.22485352 2.11352539 C-1.22485352 8.71352539 -1.22485352 15.31352539 -1.22485352 22.11352539 C5.70514648 22.11352539 12.63514648 22.11352539 19.77514648 22.11352539 C19.77514648 15.51352539 19.77514648 8.91352539 19.77514648 2.11352539 C12.84514648 2.11352539 5.91514648 2.11352539 -1.22485352 2.11352539 Z " fill="#F6B8D9" transform="translate(121.224853515625,119.886474609375)"/>
<path d="M0 0 C7.26 0 14.52 0 22 0 C22 7.92 22 15.84 22 24 C18.69931952 24.82517012 16.91815177 25.08759547 13.671875 24.87890625 C12.87265625 24.83056641 12.0734375 24.78222656 11.25 24.73242188 C10.425 24.67634766 9.6 24.62027344 8.75 24.5625 C7.90953125 24.51029297 7.0690625 24.45808594 6.203125 24.40429688 C4.1350648 24.27504311 2.0674778 24.13825726 0 24 C-1.50575891 19.28554055 -2.27365641 15.30991745 -2.25 10.3125 C-2.25515625 9.21550781 -2.2603125 8.11851563 -2.265625 6.98828125 C-2 4 -2 4 0 0 Z M0 2 C0 8.6 0 15.2 0 22 C6.93 22 13.86 22 21 22 C21 15.4 21 8.8 21 2 C14.07 2 7.14 2 0 2 Z " fill="#FEEAAF" transform="translate(86,83)"/>
</svg>
