<?xml version="1.0" encoding="UTF-8"?>
<svg version="1.1" xmlns="http://www.w3.org/2000/svg" width="225" height="225">
<path d="M0 0 C74.25 0 148.5 0 225 0 C225 74.25 225 148.5 225 225 C150.75 225 76.5 225 0 225 C0 150.75 0 76.5 0 0 Z " fill="#FDFDFD" transform="translate(0,0)"/>
<path d="M0 0 C7.26 0 14.52 0 22 0 C22 49.17 22 98.34 22 149 C14.74 149 7.48 149 0 149 C0 99.83 0 50.66 0 0 Z " fill="#170C57" transform="translate(153,15)"/>
<path d="M0 0 C6.93 0 13.86 0 21 0 C21 48.84 21 97.68 21 148 C14.07 148 7.14 148 0 148 C0 99.16 0 50.32 0 0 Z " fill="#100653" transform="translate(51,64)"/>
<path d="M0 0 C6.93 0 13.86 0 21 0 C21 14.52 21 29.04 21 44 C14.07 44 7.14 44 0 44 C0 29.48 0 14.96 0 0 Z " fill="#100552" transform="translate(120,156)"/>
<path d="M0 0 C6.93 0 13.86 0 21 0 C21 14.52 21 29.04 21 44 C14.07 44 7.14 44 0 44 C0 29.48 0 14.96 0 0 Z " fill="#100652" transform="translate(86,119)"/>
<path d="M0 0 C6.93 0 13.86 0 21 0 C21 14.52 21 29.04 21 44 C14.07 44 7.14 44 0 44 C0 29.48 0 14.96 0 0 Z " fill="#100552" transform="translate(120,64)"/>
<path d="M0 0 C6.93 0 13.86 0 21 0 C21 14.52 21 29.04 21 44 C14.07 44 7.14 44 0 44 C0 29.48 0 14.96 0 0 Z " fill="#100652" transform="translate(86,27)"/>
<path d="M0 0 C6.93 0 13.86 0 21 0 C21 6.6 21 13.2 21 20 C14.07 20 7.14 20 0 20 C0 13.4 0 6.8 0 0 Z " fill="#E60387" transform="translate(120,122)"/>
<path d="M0 0 C6.93 0 13.86 0 21 0 C21 6.6 21 13.2 21 20 C14.07 20 7.14 20 0 20 C0 13.4 0 6.8 0 0 Z " fill="#FFCA00" transform="translate(86,85)"/>
</svg>
