<?xml version="1.0" encoding="UTF-8"?>
<svg version="1.1" xmlns="http://www.w3.org/2000/svg" width="768" height="768">
<path d="M0 0 C13.33140742 12.37916403 23.17125505 32.02198765 23.97194099 50.22555161 C24.00547329 52.62345894 24.00650468 55.01935761 23.99633789 57.41748047 C23.99648392 58.32543869 23.99662994 59.23339691 23.9967804 60.16886902 C23.99608641 63.15557281 23.98831813 66.14221342 23.98046875 69.12890625 C23.97860274 71.20541347 23.9771797 73.28192114 23.97618103 75.35842896 C23.97237024 80.8131228 23.96255225 86.26778985 23.95147705 91.72247314 C23.94123199 97.29284299 23.93667678 102.86321719 23.93164062 108.43359375 C23.92092867 119.3554805 23.90386954 130.27734739 23.8828125 141.19921875 C24.92913849 141.19477753 25.97546448 141.1903363 27.05349731 141.1857605 C36.96780391 141.14502105 46.88209327 141.11514221 56.79646492 141.09559441 C61.89217778 141.08520651 66.98782246 141.07113974 72.08349609 141.04833984 C77.01129694 141.02643185 81.93903267 141.01461268 86.86687851 141.00946426 C88.7365102 141.00580046 90.60613877 140.99864713 92.47574234 140.98775864 C119.7028937 140.8356555 142.787847 145.63161108 163.02734375 165.28125 C194.15995727 198.3788411 204.8505904 257.95234873 205.0859375 301.80859375 C205.09295181 302.689673 205.09996613 303.57075226 205.10719299 304.47853088 C205.12458118 307.30214623 205.13104417 310.12555185 205.1328125 312.94921875 C205.13382462 314.39667984 205.13382462 314.39667984 205.13485718 315.87338257 C205.11928596 329.87365042 204.71277561 343.44565426 201.8828125 357.19921875 C201.72184082 358.04967773 201.56086914 358.90013672 201.39501953 359.77636719 C194.10838201 397.9804667 179.31992971 445.14010674 146.8125 469.5 C135.7974088 476.68552018 123.21652781 481.33694035 109.98120117 481.31274414 C108.97061142 481.31296318 108.97061142 481.31296318 107.93960571 481.31318665 C105.72663076 481.31249347 103.51374139 481.30472911 101.30078125 481.296875 C99.76093085 481.2950087 98.22107985 481.2935858 96.68122864 481.29258728 C92.63870591 481.28877877 88.59621941 481.27896277 84.55371094 481.2678833 C80.42448415 481.2576333 76.29525148 481.25308198 72.16601562 481.24804688 C64.071598 481.23733895 55.97720977 481.22028261 47.8828125 481.19921875 C47.8828125 484.82921875 47.8828125 488.45921875 47.8828125 492.19921875 C50.01556641 492.59947266 50.01556641 492.59947266 52.19140625 493.0078125 C89.51105791 500.49795505 128.56370819 515.59022325 157.8828125 540.19921875 C158.49382813 540.66457031 159.10484375 541.12992188 159.734375 541.609375 C169.55523917 549.30014306 178.12495286 561.65547958 179.8828125 574.19921875 C181.12273995 589.90496639 175.51131272 601.58035478 165.50390625 613.37890625 C106.47390116 676.89554362 -13.45891467 684.99883335 -95.1171875 688.19921875 C-107.02201778 688.5605966 -118.93619321 688.54341527 -130.84532166 688.51707458 C-133.4104324 688.51162691 -135.9755339 688.50926468 -138.54064941 688.50720215 C-164.83145075 688.47429105 -190.94294639 687.85730091 -217.1171875 685.19921875 C-218.61113964 685.05295969 -220.1051174 684.90696204 -221.59912109 684.76123047 C-289.25441061 678.05714822 -370.04074642 666.28751487 -424.1171875 622.19921875 C-425.44169922 621.12220703 -425.44169922 621.12220703 -426.79296875 620.0234375 C-436.94216016 611.35273224 -446.05035012 599.74848602 -448.1171875 586.19921875 C-449.22731135 571.10580411 -444.19670451 559.22369198 -434.5546875 547.63671875 C-404.3966608 515.43308946 -356.42534424 501.77261001 -315.1171875 491.26171875 C-313.96621582 490.96692627 -312.81524414 490.67213379 -311.62939453 490.3684082 C-305.12951302 488.7622912 -298.80236285 487.62836023 -292.1171875 487.19921875 C-292.189375 486.39742187 -292.2615625 485.595625 -292.3359375 484.76953125 C-292.91135881 477.72062025 -293.18590711 470.76091371 -293.1484375 463.69140625 C-293.14618164 462.86954834 -293.14392578 462.04769043 -293.14160156 461.20092773 C-293.1357817 459.20034999 -293.12681717 457.19978179 -293.1171875 455.19921875 C-294.73972191 455.2092115 -294.73972191 455.2092115 -296.39503479 455.21940613 C-306.6474825 455.28053149 -316.89989266 455.32534109 -327.15248203 455.35465527 C-332.42196378 455.37023318 -337.69129704 455.39132559 -342.96069336 455.42553711 C-348.05708692 455.45841392 -353.15333872 455.47613078 -358.24983025 455.48385048 C-360.18284266 455.48934362 -362.11584836 455.50006845 -364.04879951 455.51640892 C-389.72627823 455.7246125 -410.48433812 450.44009771 -429.7421875 432.56640625 C-459.35110419 403.05488731 -467.19607834 353.84789925 -472.1171875 314.19921875 C-472.2195874 313.38388672 -472.3219873 312.56855469 -472.42749023 311.72851562 C-475.17293933 286.33126146 -474.51038664 259.15257999 -469.1171875 234.19921875 C-468.80370361 232.74757324 -468.80370361 232.74757324 -468.48388672 231.26660156 C-461.29730714 199.2580606 -449.60896374 162.93601516 -427.1171875 138.19921875 C-426.53324219 137.54566406 -425.94929688 136.89210937 -425.34765625 136.21875 C-413.41345845 123.55787974 -396.15673001 115.70358631 -378.76979065 115.07896423 C-377.03438271 115.08229515 -377.03438271 115.08229515 -375.26391602 115.08569336 C-374.61915817 115.08554733 -373.97440033 115.08540131 -373.31010437 115.08525085 C-371.20539843 115.08594058 -369.10078399 115.09368833 -366.99609375 115.1015625 C-365.52636259 115.10343003 -364.05663081 115.10485235 -362.5868988 115.10585022 C-358.73839569 115.10964905 -354.88993094 115.11945654 -351.04144287 115.1305542 C-347.1064099 115.14082525 -343.17137067 115.14535999 -339.23632812 115.15039062 C-331.52993052 115.16108143 -323.82356441 115.17812583 -316.1171875 115.19921875 C-316.12606995 114.30100906 -316.13495239 113.40279938 -316.144104 112.47737122 C-316.22466796 103.96082625 -316.28536266 95.44441157 -316.32443619 86.9275713 C-316.3452005 82.55026133 -316.37331063 78.17326951 -316.41894531 73.79614258 C-316.46280577 69.56209429 -316.4864082 65.32834958 -316.49669647 61.09409142 C-316.50401649 59.48874834 -316.518308 57.88341952 -316.54010773 56.27820778 C-316.80649673 35.82613677 -310.3022234 20.16207769 -296.1171875 5.19921875 C-227.28315754 -57.93955624 -97.58572437 -61.07308582 0 0 Z " fill="#FFECA0" transform="translate(518.1171875,61.80078125)"/>
<path d="M0 0 C13.80706692 12.82084785 23.27267324 32.74708297 24.01424026 51.52770424 C24.01721493 52.74547743 24.02018959 53.96325062 24.02325439 55.21792603 C24.02771108 56.24197086 24.02771108 56.24197086 24.0322578 57.28670347 C24.0408911 59.56175375 24.04244848 61.83675108 24.04394531 64.11181641 C24.04857736 65.7483837 24.05360254 67.38494992 24.05899048 69.02151489 C24.07208085 73.45983991 24.07855308 77.89814982 24.08300114 82.33649111 C24.08593783 85.11359515 24.0900438 87.89069511 24.09450531 90.66779709 C24.10817256 99.36882177 24.1178425 108.06983708 24.1217072 116.77087176 C24.12618353 126.79210083 24.14371494 136.81319322 24.1727078 146.83438075 C24.1943761 154.59513742 24.20441425 162.35585578 24.20574832 170.11664236 C24.20679284 174.74479332 24.21262486 179.37281566 24.23056793 184.0009346 C24.24713746 188.35943908 24.24916137 192.71771946 24.24042892 197.07624435 C24.23966323 198.66764682 24.2439389 200.25906179 24.25388718 201.85043335 C24.41866878 229.8741808 12.08983556 252.81489515 -7.1796875 272.69921875 C-23.138673 288.6512006 -43.68561847 298.56003037 -66.44827271 298.59150696 C-67.87005749 298.5839572 -69.29184093 298.57615157 -70.71362305 298.56811523 C-72.24444344 298.57058919 -73.77526213 298.5744336 -75.30607605 298.57952881 C-78.57987339 298.58781037 -81.85349641 298.58710744 -85.12729454 298.5793438 C-90.32076782 298.56765981 -95.51402181 298.5800083 -100.70747375 298.59596252 C-113.60715438 298.63199054 -126.50682873 298.63839579 -139.40655518 298.63586426 C-149.43728767 298.63414595 -159.46783813 298.64147767 -169.4985202 298.67584282 C-174.64381713 298.69248413 -179.78866714 298.69097539 -184.93396127 298.6750201 C-188.15687122 298.6691571 -191.37957652 298.68008002 -194.60244942 298.69526672 C-196.07725815 298.6989425 -197.55210341 298.69603459 -199.02687836 298.68539619 C-212.49024093 298.59488364 -226.50969711 300.36971182 -238.4921875 306.94921875 C-239.47276123 307.46464233 -239.47276123 307.46464233 -240.47314453 307.99047852 C-262.65151675 319.9513275 -280.42725002 339.0265858 -288.1171875 363.19921875 C-289.73665906 368.88070727 -290.41921585 373.9266609 -290.43603516 379.81835938 C-290.44608078 380.63882751 -290.4561264 381.45929565 -290.46647644 382.30462646 C-290.49710829 384.98823411 -290.5142874 387.67174294 -290.53125 390.35546875 C-290.54997778 392.22734414 -290.56955237 394.09921124 -290.5899353 395.97106934 C-290.64109251 400.87657766 -290.68080573 405.7821133 -290.71807861 410.68774414 C-290.75822154 415.7020535 -290.80926679 420.71625082 -290.859375 425.73046875 C-290.95593979 435.55330652 -291.04040638 445.3762078 -291.1171875 455.19921875 C-302.72301417 455.2690777 -314.32878988 455.32221094 -325.93478489 455.35465527 C-331.32533315 455.37023578 -336.71573636 455.39133313 -342.10620117 455.42553711 C-347.3193038 455.4584044 -352.53226789 455.47612884 -357.74546623 455.48385048 C-359.72313552 455.48934529 -361.70079821 455.50007352 -363.67840767 455.51640892 C-389.51169852 455.72108984 -410.34969654 450.56506192 -429.7421875 432.56640625 C-459.35110419 403.05488731 -467.19607834 353.84789925 -472.1171875 314.19921875 C-472.2195874 313.38388672 -472.3219873 312.56855469 -472.42749023 311.72851562 C-475.17293933 286.33126146 -474.51038664 259.15257999 -469.1171875 234.19921875 C-468.80370361 232.74757324 -468.80370361 232.74757324 -468.48388672 231.26660156 C-461.29730714 199.2580606 -449.60896374 162.93601516 -427.1171875 138.19921875 C-426.53324219 137.54566406 -425.94929688 136.89210937 -425.34765625 136.21875 C-413.41345845 123.55787974 -396.15673001 115.70358631 -378.76979065 115.07896423 C-377.03438271 115.08229515 -377.03438271 115.08229515 -375.26391602 115.08569336 C-374.61915817 115.08554733 -373.97440033 115.08540131 -373.31010437 115.08525085 C-371.20539843 115.08594058 -369.10078399 115.09368833 -366.99609375 115.1015625 C-365.52636259 115.10343003 -364.05663081 115.10485235 -362.5868988 115.10585022 C-358.73839569 115.10964905 -354.88993094 115.11945654 -351.04144287 115.1305542 C-347.1064099 115.14082525 -343.17137067 115.14535999 -339.23632812 115.15039062 C-331.52993052 115.16108143 -323.82356441 115.17812583 -316.1171875 115.19921875 C-316.12606995 114.30100906 -316.13495239 113.40279938 -316.144104 112.47737122 C-316.22466796 103.96082625 -316.28536266 95.44441157 -316.32443619 86.9275713 C-316.3452005 82.55026133 -316.37331063 78.17326951 -316.41894531 73.79614258 C-316.46280577 69.56209429 -316.4864082 65.32834958 -316.49669647 61.09409142 C-316.50401649 59.48874834 -316.518308 57.88341952 -316.54010773 56.27820778 C-316.80649673 35.82613677 -310.3022234 20.16207769 -296.1171875 5.19921875 C-227.28315754 -57.93955624 -97.58572437 -61.07308582 0 0 Z " fill="#5587AF" transform="translate(518.1171875,61.80078125)"/>
<path d="M0 0 C0.00546844 1.11181641 0.00546844 1.11181641 0.01104736 2.24609375 C0.04925318 9.30512402 0.10646552 16.3637023 0.18390274 23.4223938 C0.22305385 27.04951525 0.25539767 30.67640567 0.27099609 34.30371094 C0.15804403 61.22364358 0.15804403 61.22364358 8.8125 86.4375 C9.15506836 87.0972583 9.49763672 87.7570166 9.85058594 88.43676758 C12.68933594 93.75517225 16.05397346 98.44327888 20 103 C20.59425781 103.7940625 21.18851563 104.588125 21.80078125 105.40625 C24.38743565 108.45694009 27.28809908 110.87826016 30.4375 113.3125 C31.05729736 113.79251465 31.67709473 114.2725293 32.31567383 114.76708984 C69.29776553 142.97305214 119.26600508 153.25858167 164.9375 153.1875 C165.71511688 153.18656342 166.49273376 153.18562683 167.29391479 153.18466187 C213.9610615 153.06297205 269.43244665 142.46575956 307 113 C308.0209375 112.23300781 309.041875 111.46601562 310.09375 110.67578125 C325.66586978 98.46582369 335.271863 82.45699506 339 63 C339.42085697 58.37752327 339.48715026 53.78041118 339.51171875 49.140625 C339.52966995 47.87023376 339.54762115 46.59984253 339.56611633 45.29095459 C339.61072537 41.95704827 339.6432272 38.62349594 339.66955566 35.28942871 C339.69964305 31.86990524 339.74607424 28.45060479 339.79101562 25.03125 C339.87552357 18.35427096 339.94404061 11.67727612 340 5 C378.87314497 12.54181553 419.42225056 27.33456049 450 53 C450.61101563 53.46535156 451.22203125 53.93070313 451.8515625 54.41015625 C461.67242667 62.10092431 470.24214036 74.45626083 472 87 C473.23992745 102.70574764 467.62850022 114.38113603 457.62109375 126.1796875 C398.59108866 189.69632487 278.65827283 197.7996146 197 201 C185.09516972 201.36137785 173.18099429 201.34419652 161.27186584 201.31785583 C158.7067551 201.31240816 156.1416536 201.31004593 153.57653809 201.3079834 C127.28573675 201.2750723 101.17424111 200.65808216 75 198 C73.50604786 197.85374094 72.0120701 197.70774329 70.51806641 197.56201172 C2.86277689 190.85792947 -77.92355892 179.08829612 -132 135 C-132.88300781 134.28199219 -133.76601562 133.56398438 -134.67578125 132.82421875 C-144.82497266 124.15351349 -153.93316262 112.54926727 -156 99 C-157.11012385 83.90658536 -152.07951701 72.02447323 -142.4375 60.4375 C-111.79902357 27.72083234 -44.77880852 -0.49589548 0 0 Z " fill="#000000" transform="translate(226,549)"/>
<path d="M0 0 C13.80706692 12.82084785 23.27267324 32.74708297 24.01424026 51.52770424 C24.01721493 52.74547743 24.02018959 53.96325062 24.02325439 55.21792603 C24.02771108 56.24197086 24.02771108 56.24197086 24.0322578 57.28670347 C24.0408911 59.56175375 24.04244848 61.83675108 24.04394531 64.11181641 C24.04857736 65.7483837 24.05360254 67.38494992 24.05899048 69.02151489 C24.07208085 73.45983991 24.07855308 77.89814982 24.08300114 82.33649111 C24.08593783 85.11359515 24.0900438 87.89069511 24.09450531 90.66779709 C24.10817256 99.36882177 24.1178425 108.06983708 24.1217072 116.77087176 C24.12618353 126.79210083 24.14371494 136.81319322 24.1727078 146.83438075 C24.1943761 154.59513742 24.20441425 162.35585578 24.20574832 170.11664236 C24.20679284 174.74479332 24.21262486 179.37281566 24.23056793 184.0009346 C24.24713746 188.35943908 24.24916137 192.71771946 24.24042892 197.07624435 C24.23966323 198.66764682 24.2439389 200.25906179 24.25388718 201.85043335 C24.41866878 229.8741808 12.08983556 252.81489515 -7.1796875 272.69921875 C-23.138673 288.6512006 -43.68561847 298.56003037 -66.44827271 298.59150696 C-67.87005749 298.5839572 -69.29184093 298.57615157 -70.71362305 298.56811523 C-72.24444344 298.57058919 -73.77526213 298.5744336 -75.30607605 298.57952881 C-78.57987339 298.58781037 -81.85349641 298.58710744 -85.12729454 298.5793438 C-90.32076782 298.56765981 -95.51402181 298.5800083 -100.70747375 298.59596252 C-113.60715438 298.63199054 -126.50682873 298.63839579 -139.40655518 298.63586426 C-149.43728767 298.63414595 -159.46783813 298.64147767 -169.4985202 298.67584282 C-174.64381713 298.69248413 -179.78866714 298.69097539 -184.93396127 298.6750201 C-188.15687122 298.6691571 -191.37957652 298.68008002 -194.60244942 298.69526672 C-196.07725815 298.6989425 -197.55210341 298.69603459 -199.02687836 298.68539619 C-212.49024093 298.59488364 -226.50969711 300.36971182 -238.4921875 306.94921875 C-239.47276123 307.46464233 -239.47276123 307.46464233 -240.47314453 307.99047852 C-262.65151675 319.9513275 -280.42725002 339.0265858 -288.1171875 363.19921875 C-289.73665906 368.88070727 -290.41921585 373.9266609 -290.43603516 379.81835938 C-290.44608078 380.63882751 -290.4561264 381.45929565 -290.46647644 382.30462646 C-290.49710829 384.98823411 -290.5142874 387.67174294 -290.53125 390.35546875 C-290.54997778 392.22734414 -290.56955237 394.09921124 -290.5899353 395.97106934 C-290.64109251 400.87657766 -290.68080573 405.7821133 -290.71807861 410.68774414 C-290.75822154 415.7020535 -290.80926679 420.71625082 -290.859375 425.73046875 C-290.95593979 435.55330652 -291.04040638 445.3762078 -291.1171875 455.19921875 C-302.72301417 455.2690777 -314.32878988 455.32221094 -325.93478489 455.35465527 C-331.32533315 455.37023578 -336.71573636 455.39133313 -342.10620117 455.42553711 C-347.3193038 455.4584044 -352.53226789 455.47612884 -357.74546623 455.48385048 C-359.72313552 455.48934529 -361.70079821 455.50007352 -363.67840767 455.51640892 C-389.51169852 455.72108984 -410.34969654 450.56506192 -429.7421875 432.56640625 C-459.35110419 403.05488731 -467.19607834 353.84789925 -472.1171875 314.19921875 C-472.2195874 313.38388672 -472.3219873 312.56855469 -472.42749023 311.72851562 C-475.17293933 286.33126146 -474.51038664 259.15257999 -469.1171875 234.19921875 C-468.80370361 232.74757324 -468.80370361 232.74757324 -468.48388672 231.26660156 C-461.29730714 199.2580606 -449.60896374 162.93601516 -427.1171875 138.19921875 C-426.53324219 137.54566406 -425.94929688 136.89210937 -425.34765625 136.21875 C-413.41345845 123.55787974 -396.15673001 115.70358631 -378.76979065 115.07896423 C-377.03438271 115.08229515 -377.03438271 115.08229515 -375.26391602 115.08569336 C-374.61915817 115.08554733 -373.97440033 115.08540131 -373.31010437 115.08525085 C-371.20539843 115.08594058 -369.10078399 115.09368833 -366.99609375 115.1015625 C-365.52636259 115.10343003 -364.05663081 115.10485235 -362.5868988 115.10585022 C-358.73839569 115.10964905 -354.88993094 115.11945654 -351.04144287 115.1305542 C-347.1064099 115.14082525 -343.17137067 115.14535999 -339.23632812 115.15039062 C-331.52993052 115.16108143 -323.82356441 115.17812583 -316.1171875 115.19921875 C-316.12606995 114.30100906 -316.13495239 113.40279938 -316.144104 112.47737122 C-316.22466796 103.96082625 -316.28536266 95.44441157 -316.32443619 86.9275713 C-316.3452005 82.55026133 -316.37331063 78.17326951 -316.41894531 73.79614258 C-316.46280577 69.56209429 -316.4864082 65.32834958 -316.49669647 61.09409142 C-316.50401649 59.48874834 -316.518308 57.88341952 -316.54010773 56.27820778 C-316.80649673 35.82613677 -310.3022234 20.16207769 -296.1171875 5.19921875 C-227.28315754 -57.93955624 -97.58572437 -61.07308582 0 0 Z M-190.1171875 -13.80078125 C-190.98682129 -13.62998047 -191.85645508 -13.45917969 -192.75244141 -13.28320312 C-204.65695862 -10.92036842 -216.73999172 -8.12721058 -228.03125 -3.625 C-229.63823907 -2.99002866 -231.26153854 -2.39622898 -232.890625 -1.8203125 C-247.24739115 3.37293748 -260.32486012 10.47663615 -272.1171875 20.19921875 C-272.94992187 20.86824219 -273.78265625 21.53726563 -274.640625 22.2265625 C-283.50672124 29.66406848 -286.74550404 35.96027388 -290.1171875 47.19921875 C-290.1171875 69.63921875 -290.1171875 92.07921875 -290.1171875 115.19921875 C-236.9871875 115.19921875 -183.8571875 115.19921875 -129.1171875 115.19921875 C-129.1171875 124.10921875 -129.1171875 133.01921875 -129.1171875 142.19921875 C-132.29772766 142.18811569 -135.47826782 142.17701263 -138.75518799 142.16557312 C-167.95111818 142.0659849 -197.14700541 141.99138806 -226.34306474 141.9438921 C-230.1730461 141.9376389 -234.00302705 141.93116726 -237.83300781 141.92456055 C-238.59545747 141.92324899 -239.35790713 141.92193744 -240.14346132 141.92058615 C-252.47354916 141.89885576 -264.80351991 141.85944738 -277.1335384 141.81345477 C-289.79424797 141.76662406 -302.45489641 141.73890941 -315.11568904 141.72877628 C-322.92214459 141.72193077 -330.72826914 141.70034496 -338.53462276 141.65963642 C-344.53019054 141.6299718 -350.52547626 141.62696122 -356.52112579 141.63368034 C-358.97364331 141.63230848 -361.42617375 141.62241199 -363.87861633 141.60319138 C-380.45296794 141.47969985 -392.44649173 141.78287192 -404.8828125 153.90234375 C-405.62015625 154.6603125 -406.3575 155.41828125 -407.1171875 156.19921875 C-407.73078125 156.7921875 -408.344375 157.38515625 -408.9765625 157.99609375 C-439.70392506 189.85106595 -448.03728538 249.35040534 -447.3671875 291.62890625 C-446.20443657 331.01128008 -438.87619859 385.22166461 -409.84765625 414.63671875 C-396.6533243 427.01938222 -382.13408395 429.53344585 -364.578125 429.39453125 C-363.20236417 429.39079212 -361.82660065 429.38794941 -360.45083618 429.38595581 C-356.86371253 429.37839007 -353.27675583 429.35880406 -349.68969727 429.33654785 C-346.01581072 429.31593556 -342.34189669 429.3069215 -338.66796875 429.296875 C-331.48429962 429.27555 -324.30076713 429.24150161 -317.1171875 429.19921875 C-317.11354187 428.48528458 -317.10989624 427.7713504 -317.10614014 427.03578186 C-317.06789021 420.22726103 -317.01063044 413.41912102 -316.93328476 406.61093998 C-316.89417948 403.11276239 -316.8618142 399.6148226 -316.84619141 396.11645508 C-316.67713129 360.88083922 -308.94244314 333.7907768 -284.0546875 307.76171875 C-273.69020548 297.62628605 -261.77263855 290.13192062 -249.1171875 283.19921875 C-248.30894531 282.68488281 -247.50070312 282.17054688 -246.66796875 281.640625 C-243.52115079 279.86240781 -240.36068394 278.77090307 -236.9296875 277.63671875 C-235.69863281 277.22292969 -234.46757812 276.80914062 -233.19921875 276.3828125 C-223.29414534 273.4013087 -213.78734866 272.91333829 -203.50073242 272.94384766 C-201.94401365 272.9410927 -200.38729628 272.93740976 -198.83058167 272.93287659 C-195.49566431 272.92480669 -192.16081382 272.92258548 -188.82588768 272.92482376 C-183.54128497 272.92767454 -178.25681404 272.91323911 -172.97224426 272.89584351 C-157.95083583 272.8489851 -142.92943734 272.82488557 -127.90795898 272.81835938 C-119.59820355 272.81459693 -111.28859842 272.79647563 -102.97890741 272.76326501 C-97.73718957 272.74316631 -92.49586244 272.74062345 -87.25412214 272.75154519 C-83.97894925 272.7541712 -80.70399916 272.74005729 -77.42888451 272.72146416 C-75.92337867 272.716188 -74.41783061 272.71755947 -72.91234207 272.72649956 C-53.62315004 272.83170506 -38.17936879 266.40544118 -24.1171875 253.19921875 C-11.32136398 239.9857274 -2.03960992 223.24390199 -1.97001648 204.53564453 C-1.96450145 203.56884435 -1.96450145 203.56884435 -1.958875 202.58251286 C-1.94791836 200.4365107 -1.94400803 198.29055709 -1.94018555 196.14453125 C-1.93391467 194.59987741 -1.92726732 193.05522507 -1.92027283 191.51057434 C-1.89929849 186.44846636 -1.88887436 181.38635831 -1.87890625 176.32421875 C-1.87485575 174.57553085 -1.87073875 172.82684311 -1.86655617 171.07815552 C-1.84751642 162.85767184 -1.83328471 154.63719706 -1.8249442 146.41669559 C-1.81518611 136.95746517 -1.78889887 127.49846964 -1.74844331 118.0393219 C-1.71817934 110.70910454 -1.70346549 103.37895411 -1.70016319 96.04867554 C-1.6978238 91.67974399 -1.68900979 87.3110637 -1.66370201 82.94219971 C-1.64023642 78.82494378 -1.63626131 74.70810126 -1.64646339 70.59079552 C-1.64695446 69.09052839 -1.64076271 67.59023962 -1.62690735 66.09003639 C-1.47697856 48.87484693 -5.52809037 33.34610701 -17.6171875 20.640625 C-28.24557606 10.26133929 -40.11916325 3.18908403 -54.0078125 -2.0078125 C-55.82663591 -2.69155537 -57.60293506 -3.48651089 -59.3671875 -4.30078125 C-69.26243828 -8.55449305 -80.17279891 -10.58687701 -90.70385742 -12.55615234 C-92.68348217 -12.92649114 -94.66113216 -13.30619929 -96.63867188 -13.6875 C-100.46098204 -14.41501494 -104.28785089 -15.11133784 -108.1171875 -15.80078125 C-109.15713867 -16.0023584 -110.19708984 -16.20393555 -111.26855469 -16.41162109 C-121.22691409 -18.18910391 -131.15832786 -18.19602816 -141.2421875 -18.17578125 C-142.16660645 -18.1759021 -143.09102539 -18.17602295 -144.04345703 -18.17614746 C-159.72363422 -18.1470399 -174.7203701 -16.94487609 -190.1171875 -13.80078125 Z " fill="#274E70" transform="translate(518.1171875,61.80078125)"/>
<path d="M0 0 C10.97119908 -0.04656822 21.94237422 -0.08199268 32.91365242 -0.10362434 C38.00936528 -0.11401224 43.10500996 -0.12807901 48.20068359 -0.15087891 C53.12848444 -0.1727869 58.05622017 -0.18460607 62.98406601 -0.18975449 C64.8536977 -0.19341829 66.72332627 -0.20057162 68.59292984 -0.21146011 C95.8200812 -0.36356325 118.9050345 4.43239233 139.14453125 24.08203125 C170.27714477 57.17962235 180.9677779 116.75312998 181.203125 160.609375 C181.21013931 161.49045425 181.21715363 162.37153351 181.22438049 163.27931213 C181.24176868 166.10292748 181.24823167 168.9263331 181.25 171.75 C181.25067474 172.71497406 181.25134949 173.67994812 181.25204468 174.67416382 C181.23647346 188.67443167 180.82996311 202.24643551 178 216 C177.83902832 216.85045898 177.67805664 217.70091797 177.51220703 218.57714844 C170.22556951 256.78124795 155.43711721 303.94088799 122.9296875 328.30078125 C111.9145963 335.48630143 99.33371531 340.1377216 86.09838867 340.11352539 C85.08779892 340.11374443 85.08779892 340.11374443 84.05679321 340.1139679 C81.84381826 340.11327472 79.63092889 340.10551036 77.41796875 340.09765625 C75.87811835 340.09578995 74.33826735 340.09436705 72.79841614 340.09336853 C68.75589341 340.08956002 64.71340691 340.07974402 60.67089844 340.06866455 C56.54167165 340.05841455 52.41243898 340.05386323 48.28320312 340.04882812 C40.1887855 340.0381202 32.09439727 340.02106386 24 340 C24.00888245 340.83112808 24.01776489 341.66225616 24.0269165 342.51856995 C24.10763079 350.41640914 24.16824972 358.31410644 24.20724869 366.21226597 C24.22797367 370.27116802 24.25600853 374.32972449 24.30175781 378.38842773 C24.34576292 382.31774647 24.36924997 386.24673643 24.37950897 390.17628288 C24.38680377 391.66275128 24.40104306 393.14920517 24.42292023 394.63553047 C24.72644239 416.14556892 17.57369015 434.89708537 2.55664062 450.47998047 C-27.40692191 479.73862858 -72.63632274 492.2665775 -113 498 C-114.03664795 498.1544458 -114.03664795 498.1544458 -115.09423828 498.31201172 C-162.84158664 505.1453989 -215.58790326 498.11633337 -259 477 C-259.95229492 476.54222168 -259.95229492 476.54222168 -260.92382812 476.07519531 C-270.5257236 471.40020584 -278.7611781 465.79730528 -287 459 C-288.01964844 458.18273437 -289.03929687 457.36546875 -290.08984375 456.5234375 C-304.3627447 444.14720393 -314.71248422 424.60464507 -316.17931747 405.68740463 C-316.49110196 399.18450691 -316.49179621 392.67697137 -316.51171875 386.16796875 C-316.52859371 384.07903508 -316.54674767 381.99011138 -316.56611633 379.90119934 C-316.61331664 374.44500855 -316.64331899 368.98885823 -316.66955566 363.53253174 C-316.69951353 357.94803884 -316.745991 352.36368503 -316.79101562 346.77929688 C-316.87670719 335.8529378 -316.94420318 324.92654982 -317 314 C-316.34 314 -315.68 314 -315 314 C-315.01110306 312.98317139 -315.02220612 311.96634277 -315.03364563 310.91870117 C-315.13562463 301.26999508 -315.2102518 291.62140032 -315.25906086 281.97227478 C-315.28499901 277.01318657 -315.32010338 272.05453826 -315.37719727 267.09570312 C-315.43208672 262.29753382 -315.46153872 257.49978384 -315.47438622 252.70132446 C-315.48352512 250.88352876 -315.50136674 249.06575234 -315.52865028 247.24813843 C-315.88594525 222.42630658 -307.06320552 202.41213474 -289.8125 184.375 C-270.446926 165.68184176 -247.69038948 156.29277217 -220.80419922 156.51757812 C-219.26939549 156.51538392 -217.73459347 156.51137458 -216.19979858 156.50572205 C-212.93312038 156.49725319 -209.66677325 156.50080191 -206.40011215 156.5141449 C-201.21936353 156.53474115 -196.03893759 156.52439433 -190.85818481 156.5098877 C-179.86375956 156.4833062 -168.86944351 156.48982957 -157.875 156.5 C-145.99231292 156.51098706 -134.10979709 156.51600222 -122.22713864 156.48270559 C-117.09212759 156.46944538 -111.95761576 156.47512683 -106.82263541 156.49607086 C-103.61404136 156.50514055 -100.40563421 156.49750905 -97.19705582 156.48565865 C-95.72623286 156.48355217 -94.2553803 156.48810395 -92.78460693 156.5003643 C-79.76809371 156.60263166 -67.43135592 154.48080848 -55.8125 148.3125 C-55.15016357 147.96856201 -54.48782715 147.62462402 -53.80541992 147.27026367 C-29.43028169 134.23157858 -11.48015504 111.16128552 -3 85 C-0.46457227 76.0224921 -0.65199181 66.86066563 -0.5859375 57.6171875 C-0.56719564 55.94995193 -0.54762006 54.28272554 -0.5272522 52.61550903 C-0.47624342 48.25912935 -0.43645188 43.90271901 -0.39910889 39.54620361 C-0.35887164 35.08801894 -0.30786996 30.62995831 -0.2578125 26.171875 C-0.16142401 17.44800186 -0.07690241 8.72406658 0 0 Z M25 27 C24.99635437 27.58199158 24.99270874 28.16398315 24.98895264 28.76361084 C24.94649358 34.93067584 24.87672883 41.0970396 24.79248047 47.26367188 C24.76459734 49.55201128 24.74322414 51.84044116 24.72900391 54.12890625 C24.58363924 76.22433624 22.18294021 95.22042428 12 115 C11.6695166 115.64727051 11.3390332 116.29454102 10.99853516 116.96142578 C6.59452591 125.44655681 1.30733392 132.82268899 -5 140 C-5.68578125 140.83015625 -6.3715625 141.6603125 -7.078125 142.515625 C-14.36306253 151.09566254 -23.24465952 158.24666383 -32.875 164.0625 C-33.90625 164.701875 -34.9375 165.34125 -36 166 C-36 166.66 -36 167.32 -36 168 C-36.87527344 168.27070313 -37.75054687 168.54140625 -38.65234375 168.8203125 C-41.82958207 169.93994607 -44.59941601 171.28424838 -47.5625 172.875 C-63.15695691 180.7587575 -79.31113263 182.30900842 -96.56396484 182.25537109 C-98.06714568 182.25812956 -99.57032504 182.26181459 -101.07350159 182.26634216 C-104.28120272 182.27438075 -107.48883447 182.27664136 -110.69654465 182.27439499 C-115.78486431 182.27153117 -120.87304859 182.2860268 -125.96133423 182.30337524 C-140.4204915 182.35011303 -154.87963758 182.37433071 -169.33886719 182.38085938 C-177.34727244 182.38462765 -185.35552214 182.40279206 -193.36386073 182.43595374 C-198.40571488 182.45598841 -203.44716298 182.45862792 -208.48904014 182.44767356 C-211.64417683 182.44503851 -214.79908419 182.4592039 -217.95416069 182.47775459 C-219.39874491 182.48300847 -220.84337321 182.48169901 -222.28793907 182.47271919 C-232.78704325 182.41280047 -241.99613561 184.08786191 -252 187 C-252 187.66 -252 188.32 -252 189 C-253.2375 189.37125 -253.2375 189.37125 -254.5 189.75 C-269.45506691 195.09109532 -277.60440466 205.56656784 -284.375 219.5625 C-289.62370187 230.87329906 -290.44059523 242.13570278 -290.38818359 254.41015625 C-290.39225772 256.02790682 -290.39760428 257.64565461 -290.40411377 259.26339722 C-290.41769329 263.62292795 -290.41252778 267.98224371 -290.40297651 272.3417778 C-290.39533101 276.92455332 -290.40243901 281.50731158 -290.40713501 286.09008789 C-290.41257841 293.78307365 -290.40543825 301.47597274 -290.39111328 309.16894531 C-290.37478951 318.03722486 -290.38007902 326.90529743 -290.3965925 335.77357197 C-290.41024785 343.41556972 -290.4121073 351.05750551 -290.40427649 358.69951153 C-290.39962216 363.2515419 -290.39891296 367.80347529 -290.40888596 372.35549927 C-290.41761256 376.63696 -290.41143085 380.91815632 -290.39420319 385.19958878 C-290.39026853 386.76195972 -290.39131993 388.32435328 -290.39799118 389.88671494 C-290.46815255 408.00127226 -286.55149629 422.54272563 -274 436 C-256.00365034 453.35152931 -231.69068569 461.11914603 -208 467 C-207.23075195 467.19722656 -206.46150391 467.39445312 -205.66894531 467.59765625 C-176.44672988 475.04313831 -146.455242 476.03433072 -116.6875 471.75 C-115.97386292 471.64776123 -115.26022583 471.54552246 -114.52496338 471.44018555 C-100.69647129 469.41332382 -86.942147 466.53251084 -73.625 462.25 C-72.84737305 462.0010498 -72.06974609 461.75209961 -71.26855469 461.49560547 C-46.69895013 453.41259024 -19.92979874 441.94344921 -6.25390625 418.71484375 C5.42719509 393.42398571 -2 371.59477008 -2 340 C-54.8 340 -107.6 340 -162 340 C-162 331.42 -162 322.84 -162 314 C-158.90049454 314.00444122 -155.80098907 314.00888245 -152.6075592 314.01345825 C-124.17044482 314.05327435 -95.73333802 314.0831229 -67.29620266 314.10213066 C-63.5675042 314.10463201 -59.83880579 314.10722066 -56.11010742 314.10986328 C-54.996654 314.11065021 -54.996654 314.11065021 -53.86070656 314.11145304 C-41.84873704 314.12015057 -29.83678671 314.13591695 -17.82482857 314.15430559 C-5.49522101 314.17302279 6.83437652 314.18412057 19.16399771 314.18817699 C26.76919431 314.19091827 34.37433667 314.19956977 41.97951657 314.21583293 C47.81570664 314.22767587 53.65186902 314.22890674 59.48807144 314.22621536 C61.87894207 314.22676518 64.26981476 314.23073809 66.66067314 314.23841095 C69.9287593 314.24838383 73.19661475 314.24596019 76.46470642 314.24050903 C77.87865225 314.24924756 77.87865225 314.24924756 79.32116264 314.25816262 C93.54483893 314.19418315 104.56398398 309.70752789 115 300 C129.71399641 284.92913427 136.01539723 263.36046435 143 244 C143.29422852 243.20255371 143.58845703 242.40510742 143.89160156 241.58349609 C152.46600948 218.33995949 155.13212526 194.84157385 155.25 170.25 C155.2554483 169.5624765 155.26089661 168.874953 155.26651001 168.16659546 C155.32674891 157.95816024 154.48359181 148.09614858 153 138 C152.78102051 136.46351807 152.78102051 136.46351807 152.55761719 134.89599609 C147.64191751 101.53946258 140.91737274 59.75997192 113.44921875 36.75 C101.23733718 28.02444507 89.49580649 26.69291786 74.90234375 26.8046875 C73.45789284 26.80842494 72.01343936 26.81126845 70.56898499 26.81326294 C66.79607958 26.82084194 63.023332 26.84044 59.25048828 26.8626709 C55.3890191 26.88325399 51.52752403 26.89229111 47.66601562 26.90234375 C40.1106057 26.92369227 32.5553251 26.9577575 25 27 Z " fill="#BA9300" transform="translate(542,203)"/>
<path d="M0 0 C0.43966386 8.33732942 -0.24655022 16.41775778 -1.25 24.6875 C-1.41399292 26.09999023 -1.41399292 26.09999023 -1.58129883 27.54101562 C-3.55606675 42.98647558 -7.5153605 57.59370283 -12.84375 72.1965332 C-13.75129558 74.69106111 -14.63433553 77.19335811 -15.515625 79.69726562 C-25.98424104 109.00514201 -25.98424104 109.00514201 -36.97462177 115.09396839 C-46.84504207 119.39698864 -57.30405775 118.43374813 -67.83959961 118.26367188 C-70.01941933 118.24378467 -72.19925876 118.22596502 -74.37911129 118.21007538 C-78.95260803 118.17427848 -83.52581948 118.12792412 -88.09913254 118.07357788 C-94.73057169 117.99789299 -101.3616182 117.96399182 -107.99343872 117.94555664 C-109.06163969 117.9425214 -110.12984066 117.93948615 -111.23041135 117.93635893 C-113.40156653 117.93028688 -115.57272192 117.92429286 -117.74387753 117.91837597 C-123.346416 117.90105038 -128.94890657 117.87425808 -134.55140686 117.84753418 C-135.68902881 117.84216282 -136.82665076 117.83679147 -137.9987461 117.83125734 C-140.33199441 117.82022814 -142.66524257 117.80916563 -144.99849057 117.79807091 C-151.11747447 117.76922301 -157.2364643 117.74168676 -163.35545349 117.71398926 C-174.85339045 117.66175601 -186.35132192 117.60840664 -197.84925169 117.5546174 C-210.97709913 117.49326041 -224.10495245 117.43320685 -237.23280632 117.37324238 C-264.15521087 117.25024001 -291.07760695 117.12549521 -318 117 C-318 143.07 -318 169.14 -318 196 C-264.87 196 -211.74 196 -157 196 C-157 232 -157 232 -160 238 C-162.1875 239.875 -162.1875 239.875 -164 241 C-164.11214844 239.76636719 -164.11214844 239.76636719 -164.2265625 238.5078125 C-165.2791588 229.57106353 -167.19954888 222.26805359 -174.11328125 216.12109375 C-178.77616634 212.77895677 -183.30590895 210.70508445 -189 210 C-189.75925781 209.89429688 -190.51851562 209.78859375 -191.30078125 209.6796875 C-198.85226383 209.12567123 -204.81637713 211.79727796 -211 216 C-213.51244077 218.44333631 -215.2876308 220.95378533 -217 224 C-217.928125 225.546875 -217.928125 225.546875 -218.875 227.125 C-221.31482521 233.54791335 -221.20786062 241.57772824 -218.9453125 247.98828125 C-217.73272672 250.40986528 -216.42288048 252.69752067 -215 255 C-214.65324219 255.72960937 -214.30648437 256.45921875 -213.94921875 257.2109375 C-212.69500374 259.57484891 -211.41024433 259.89817402 -209 261 C-207.31885392 262.31502982 -205.650577 263.64679968 -204 265 C-240.04638056 276.69590008 -277.43188214 282.69223348 -315 275 C-315.89944336 274.82839355 -316.79888672 274.65678711 -317.72558594 274.47998047 C-340.91532065 270.05025818 -372.45908653 263.60956464 -388 244 C-392.36769755 236.11453524 -393.15487903 228.26992806 -393.33569336 219.42724609 C-393.36964455 217.98961914 -393.36964455 217.98961914 -393.40428162 216.52294922 C-393.60112565 207.69768698 -393.71683874 198.87106675 -393.80750179 190.04413414 C-393.86934709 184.12111349 -393.95805632 178.20121064 -394.11108398 172.27978516 C-394.25870594 166.54188945 -394.33685739 160.80683156 -394.36721992 155.06715775 C-394.39046208 152.88763588 -394.43795622 150.7082253 -394.51078606 148.5297966 C-395.03902019 131.97812789 -395.03902019 131.97812789 -391.66124344 127.04465485 C-388.46144327 123.7024083 -384.82511392 121.32374311 -380.80853462 119.07240677 C-377.82918701 117.30574303 -375.24722483 115.12205082 -372.5625 112.9375 C-365.6260606 107.5800328 -358.38736162 102.71103264 -351 98 C-350.13133301 97.44578369 -350.13133301 97.44578369 -349.24511719 96.88037109 C-317.37756298 76.75301908 -282.23310115 62.11036279 -245.31689453 54.49072266 C-243.35813152 54.07585293 -241.40990462 53.61170047 -239.46484375 53.13671875 C-231.6080369 51.23823382 -223.71258979 50.28133451 -215.6875 49.375 C-214.59671143 49.2517334 -213.50592285 49.1284668 -212.38208008 49.00146484 C-197.08288488 47.36867746 -181.86193238 46.89443923 -166.48754883 46.70996094 C-145.53041511 46.45777704 -124.7542685 46.17915089 -104 43 C-102.48188721 42.77666992 -102.48188721 42.77666992 -100.93310547 42.54882812 C-67.03125579 37.33731751 -30.91178951 24.7451786 -4.6171875 2.14453125 C-2 0 -2 0 0 0 Z " fill="#FFD22F" transform="translate(671,373)"/>
<path d="M0 0 C0.09310537 9.8322226 0.16396921 19.66433853 0.20724869 29.49691391 C0.22803159 34.06369464 0.25617696 38.63017146 0.30175781 43.19677734 C0.34555031 47.61236769 0.36920683 52.02766763 0.37950897 56.44345856 C0.38684091 58.11940322 0.40115674 59.79533387 0.42292023 61.47115326 C0.6011327 75.77617489 -1.68889594 86.98344149 -10 99 C-10.43957031 99.63679688 -10.87914062 100.27359375 -11.33203125 100.9296875 C-15.95113897 106.91988483 -22.84035485 111.61345162 -30 114 C-32.08203847 114.09715595 -34.1670897 114.13336416 -36.25138855 114.13803101 C-37.56182632 114.14348434 -38.8722641 114.14893768 -40.22241211 114.15455627 C-41.67846675 114.15567612 -43.13452144 114.15672663 -44.59057617 114.15771484 C-46.12169033 114.16238361 -47.65280309 114.16752728 -49.18391418 114.17311096 C-52.48564206 114.18439668 -55.78736089 114.19282904 -59.08910179 114.19923019 C-64.32353937 114.20992556 -69.55791263 114.23017909 -74.79231262 114.25234985 C-89.67913837 114.31420761 -104.56596173 114.36812881 -119.45288086 114.40136719 C-127.67177832 114.41979822 -135.8905692 114.44884713 -144.10938817 114.4893719 C-148.45263864 114.51031581 -152.79575547 114.52588093 -157.13905907 114.52817917 C-161.23740313 114.53035004 -165.33546992 114.5464634 -169.43372917 114.57256889 C-170.92506117 114.57967402 -172.41642711 114.58190648 -173.90777206 114.57846642 C-206.87604613 114.51465801 -238.89669665 126.73138666 -264 148 C-264.54253418 148.45745605 -265.08506836 148.91491211 -265.64404297 149.38623047 C-274.25022177 156.74023424 -281.42682189 164.7939755 -288 174 C-288.39670898 174.55381348 -288.79341797 175.10762695 -289.20214844 175.67822266 C-298.86930005 189.40104013 -306.16026662 204.64702383 -310 221 C-310.42732422 222.69962891 -310.42732422 222.69962891 -310.86328125 224.43359375 C-313.56315296 235.5017882 -314.20764475 246.18967998 -314.5625 257.5625 C-314.62727539 259.50479492 -314.62727539 259.50479492 -314.69335938 261.48632812 C-314.79867385 264.65746384 -314.90080617 267.82866793 -315 271 C-319.58558457 271.17571509 -324.16912755 271.30128134 -328.75732422 271.38452148 C-330.31105758 271.41928743 -331.86456981 271.46672049 -333.41748047 271.52807617 C-345.6325656 271.99788714 -355.81906854 270.54798309 -365.25463867 261.9440918 C-375.54419507 250.43943328 -379.29639072 232.52696783 -383 218 C-383.28786377 216.87537354 -383.28786377 216.87537354 -383.58154297 215.72802734 C-385.98889404 206.11823045 -387.65931775 196.40966921 -389.1875 186.625 C-389.35459473 185.55548096 -389.52168945 184.48596191 -389.69384766 183.3840332 C-391.4306151 171.81780592 -392.16597971 160.44287811 -392.125 148.75 C-392.12886719 147.63109375 -392.13273437 146.5121875 -392.13671875 145.359375 C-392.11783844 129.34887394 -392.11783844 129.34887394 -389.12890625 125.7421875 C-388.28199219 125.12601562 -387.43507813 124.50984375 -386.5625 123.875 C-385.5621875 123.12476563 -384.561875 122.37453125 -383.53125 121.6015625 C-382.96921875 121.19196289 -382.4071875 120.78236328 -381.828125 120.36035156 C-379.8351213 118.87730981 -377.90190189 117.33363697 -375.96875 115.7734375 C-320.52519434 71.23824799 -250.02811074 44.27509101 -178.640625 43.7890625 C-176.29947026 43.76333051 -173.95832451 43.73676989 -171.6171875 43.70947266 C-169.81072754 43.68956268 -169.81072754 43.68956268 -167.96777344 43.66925049 C-141.95047612 43.36477189 -141.95047612 43.36477189 -116 41.625 C-114.77829102 41.5110791 -113.55658203 41.3971582 -112.29785156 41.27978516 C-104.66186553 40.47853081 -97.20629565 39.15633464 -89.69140625 37.61743164 C-84.43712677 36.73859085 -79.30749444 36.72859403 -74 37 C-74 36.34 -74 35.68 -74 35 C-73.19071045 34.74420166 -72.3814209 34.48840332 -71.54760742 34.22485352 C-53.12274283 28.35853554 -15.60917233 0 0 0 Z " fill="#3672A4" transform="translate(489,193)"/>
<path d="M0 0 C2.75746427 0.01077039 5.51428319 0.00001068 8.27172852 -0.01269531 C17.90022739 -0.02161349 27.08488216 0.40158024 36.56274414 2.26074219 C38.35651489 2.58051025 38.35651489 2.58051025 40.18652344 2.90673828 C44.06730196 3.60198773 47.94140282 4.32761622 51.81274414 5.07324219 C52.48984436 5.20357849 53.16694458 5.33391479 53.86456299 5.46820068 C67.50854825 8.11443616 81.06110618 10.97982296 93.56274414 17.26074219 C94.82143708 17.86708699 96.08059908 18.47245854 97.34008789 19.07714844 C116.01695118 28.12583832 132.30580301 39.0784252 139.61743164 59.34277344 C142.75522669 69.02844658 142.1579523 79.28403995 142.31843376 89.38479519 C142.37484432 92.88052947 142.4559318 96.37161518 142.59838867 99.86499023 C143.62056357 125.57126425 143.62056357 125.57126425 137.15176392 132.73524475 C134.9695306 134.72699271 132.73167255 136.47578594 130.26756287 138.10456848 C127.43394572 140.02627053 124.94762691 142.31758654 122.37524414 144.57324219 C117.85358795 148.26074219 117.85358795 148.26074219 115.56274414 148.26074219 C115.55465729 147.28434784 115.54657043 146.30795349 115.53823853 145.30197144 C115.46068685 136.09141935 115.3729248 126.88101335 115.27521706 117.67065239 C115.2253137 112.93573806 115.17898313 108.20084539 115.14086914 103.46582031 C115.10394104 98.89456107 115.05756067 94.32348575 115.00468063 89.75238419 C114.98617665 88.01015582 114.97105399 86.26788809 114.95940018 84.52560043 C114.94246918 82.08149208 114.91341806 79.63780126 114.8815918 77.19384766 C114.87943161 76.47671097 114.87727142 75.75957428 114.87504578 75.02070618 C114.72759571 66.13200136 111.66271278 61.31351571 105.56274414 55.26074219 C92.16601833 42.42572396 72.98523664 37.79813244 55.56274414 33.26074219 C54.76755371 33.04933594 53.97236328 32.83792969 53.15307617 32.62011719 C33.90261532 27.58753921 13.44378769 25.21321807 -6.43725586 26.26074219 C-7.20682617 26.29796387 -7.97639648 26.33518555 -8.76928711 26.37353516 C-20.19566772 27.00346284 -31.29406399 28.84828458 -42.49975586 31.13574219 C-43.70027588 31.38018066 -44.9007959 31.62461914 -46.13769531 31.87646484 C-53.77010397 33.50483899 -61.09125162 35.62810899 -68.43725586 38.26074219 C-67.79739746 38.7715332 -67.15753906 39.28232422 -66.49829102 39.80859375 C-59.64441024 45.37802303 -55.14020054 50.74388167 -53.99975586 59.69433594 C-53.66582456 69.3887791 -55.61100837 75.94154325 -61.56225586 83.51074219 C-67.753858 90.04196808 -73.95849442 92.5417977 -82.93725586 92.88574219 C-91.88832947 92.54285832 -98.09579628 90.03888475 -104.31225586 83.57324219 C-109.31133459 77.32439378 -111.74967258 70.16794987 -112.43725586 62.26074219 C-122.09357836 73.52981871 -122.09357836 73.52981871 -119.43725586 107.26074219 C-66.30725586 107.26074219 -13.17725586 107.26074219 41.56274414 107.26074219 C41.56274414 133.33074219 41.56274414 159.40074219 41.56274414 186.26074219 C36.28274414 186.92074219 31.00274414 187.58074219 25.56274414 188.26074219 C21.72702859 188.82413909 21.72702859 188.82413909 17.89389038 189.40466309 C-5.17155793 192.92787582 -28.1751211 193.59044015 -51.47192383 193.79248047 C-65.59892255 193.92669924 -79.43449028 194.34570719 -93.43725586 196.26074219 C-95.31058662 196.47748114 -97.18423656 196.6915001 -99.05834961 196.90136719 C-134.1366306 201.19855443 -167.86205809 211.43518533 -199.43725586 227.26074219 C-200.27885254 227.67678711 -201.12044922 228.09283203 -201.98754883 228.52148438 C-224.25497721 239.59155226 -244.47935862 253.57173745 -263.88452148 269.03271484 C-266.71566381 271.27181011 -269.59376173 273.45041594 -272.47241211 275.62792969 C-274.95756564 277.69312685 -277.1743804 279.95415591 -279.43725586 282.26074219 C-280.41534529 283.24098491 -281.39454987 284.22011595 -282.37475586 285.19824219 C-283.12885742 285.95234375 -283.12885742 285.95234375 -283.89819336 286.72167969 C-285.43204753 288.25553385 -286.96590169 289.78938802 -288.49975586 291.32324219 C-288.99113037 291.81477783 -289.48250488 292.30631348 -289.98876953 292.81274414 C-291.38321096 294.2067155 -292.7793404 295.59899767 -294.17553711 296.99121094 C-295.67831049 298.49917525 -297.16176495 300.0266518 -298.62475586 301.57324219 C-300.43725586 303.26074219 -300.43725586 303.26074219 -302.43725586 303.26074219 C-303.84750141 261.73684537 -291.62342164 207.47840377 -263.84741211 175.17089844 C-257.42150005 168.30245585 -248.31385616 160.74645495 -238.42318088 160.13654369 C-237.6466528 160.13692341 -236.87012473 160.13730313 -236.0700655 160.13769436 C-234.72348188 160.13470779 -234.72348188 160.13470779 -233.34969455 160.13166088 C-232.36235031 160.13457372 -231.37500607 160.13748656 -230.35774231 160.14048767 C-229.30978963 160.13963325 -228.26183695 160.13877882 -227.18212813 160.1378985 C-223.65362819 160.13624504 -220.12517528 160.14176293 -216.59667969 160.1472168 C-214.07410178 160.14749872 -211.55152379 160.14734083 -209.02894592 160.14677429 C-203.58926096 160.14654622 -198.14959127 160.14939152 -192.70990944 160.15501213 C-184.84500974 160.16313334 -176.98011584 160.16574299 -169.1152124 160.16700012 C-156.35545082 160.16918966 -143.59569562 160.1758471 -130.8359375 160.18530273 C-118.43977897 160.19447938 -106.04362218 160.20155898 -93.64746094 160.20581055 C-92.50163689 160.20620463 -92.50163689 160.20620463 -91.33266488 160.20660668 C-87.50055456 160.2079117 -83.66844422 160.20917541 -79.83633387 160.21041858 C-48.03663637 160.22078815 -16.23694746 160.2386787 15.56274414 160.26074219 C15.56274414 151.35074219 15.56274414 142.44074219 15.56274414 133.26074219 C-37.56725586 133.26074219 -90.69725586 133.26074219 -145.43725586 133.26074219 C-145.43725586 55.93766526 -145.43725586 55.93766526 -132.40600586 42.10449219 C-115.20973459 25.93486398 -91.71052298 16.72560066 -69.43725586 10.26074219 C-68.76033691 10.0594873 -68.08341797 9.85823242 -67.38598633 9.65087891 C-56.50075892 6.42227199 -45.6841338 3.87500251 -34.43725586 2.26074219 C-33.33502686 2.09010254 -32.23279785 1.91946289 -31.09716797 1.74365234 C-20.70813721 0.26485692 -10.48623789 -0.04865569 0 0 Z " fill="#779FC0" transform="translate(373.437255859375,43.7392578125)"/>
<path d="M0 0 C0.33 0 0.66 0 1 0 C2.1210941 8.61010589 2.20182141 17.20712206 2.1875 25.875 C2.18656342 26.60643219 2.18562683 27.33786438 2.18466187 28.09146118 C2.06827388 70.09835019 -8.57693431 125.34761371 -38.64453125 156.8125 C-50.00257574 167.36060102 -61.08376746 170.16696967 -76.29478455 170.12025452 C-77.31757006 170.12110894 -78.34035557 170.12196337 -79.39413458 170.12284368 C-82.8134742 170.1244878 -86.23276452 170.11899458 -89.65209961 170.11352539 C-92.10630289 170.11324326 -94.56050625 170.11340175 -97.01470947 170.1139679 C-102.29444447 170.11419545 -107.57416418 170.11136318 -112.85389519 170.10573006 C-120.48742728 170.09759089 -128.12095341 170.09499736 -135.75448937 170.09374207 C-148.14044748 170.09155534 -160.52639899 170.08490555 -172.91235352 170.07543945 C-184.94165006 170.06625551 -196.9709448 170.05917948 -209.00024414 170.05493164 C-209.74216698 170.05466892 -210.48408981 170.05440619 -211.24849515 170.05413551 C-214.97063444 170.05283044 -218.69277375 170.05156674 -222.41491306 170.05032361 C-253.27661365 170.03996282 -284.13830546 170.02207893 -315 170 C-315 178.58 -315 187.16 -315 196 C-262.2 196 -209.4 196 -155 196 C-155 271.8962818 -155 271.8962818 -167 285 C-167.73089844 285.82242187 -168.46179688 286.64484375 -169.21484375 287.4921875 C-192.61626474 312.44864619 -232.49270939 321.65560123 -265 327 C-265.88171875 327.15098145 -266.7634375 327.30196289 -267.671875 327.45751953 C-315.49348066 335.46521976 -375.8940217 328.92203716 -416.69921875 300.484375 C-429.52552208 291.14947743 -439.44584328 279.25641432 -442.51097107 263.34799194 C-443.05289293 259.6378842 -443.25251222 255.97057398 -443.36743164 252.22900391 C-443.39327835 251.47354279 -443.41912506 250.71808167 -443.445755 249.93972778 C-443.6713064 242.97607117 -443.80562274 236.01050873 -443.91112614 229.04409218 C-443.9831961 224.37915727 -444.08559373 219.71938264 -444.26196289 215.05712891 C-445.52869739 180.70451088 -445.52869739 180.70451088 -437.59092712 171.84921265 C-434.91667493 169.43101212 -432.17965674 167.34835196 -429.13522339 165.41912842 C-426.04947615 163.36825561 -423.385379 160.90990544 -420.64881897 158.42153931 C-419 157 -419 157 -417 156 C-416.99635437 157.21141159 -416.99270874 158.42282318 -416.98895264 159.67094421 C-416.95188618 171.13093003 -416.89398672 182.59065004 -416.81609726 194.05043316 C-416.77671939 199.94094078 -416.74448342 205.83130108 -416.72900391 211.72192383 C-416.71377349 217.41500379 -416.67921494 223.10767845 -416.63169098 228.80057716 C-416.61694285 230.96405308 -416.60896279 233.12758688 -416.60811615 235.2911129 C-417.02803332 256.28611263 -417.02803332 256.28611263 -407.28515625 274.171875 C-402.27462327 278.18030138 -396.71081014 281.1372921 -391 284 C-390.10909668 284.45439453 -390.10909668 284.45439453 -389.20019531 284.91796875 C-372.44829687 293.30765654 -353.42168697 297.9932419 -335 301 C-333.89914062 301.20367188 -332.79828125 301.40734375 -331.6640625 301.6171875 C-297.46411009 307.03279819 -262.67456198 301.29784351 -230 291 C-232.44942726 288.53016085 -234.88145204 286.10372947 -237.5 283.8125 C-243.74936138 276.78196845 -245.91557418 269.94089156 -245.546875 260.5390625 C-244.30668782 252.51327976 -240.50715057 245.07246029 -233.90625 240.1796875 C-226.06246028 235.32553894 -219.57329798 233.79306668 -210.42578125 235.47265625 C-202.17017857 237.58396658 -196.35439367 241.50806219 -191.625 248.625 C-188.52630565 254.14875949 -187.62213341 259.75721307 -187 266 C-175.92564967 252.78222703 -181.63247279 244.76902039 -181 222 C-234.13 222 -287.26 222 -342 222 C-342 195.93 -342 169.86 -342 143 C-329.72687622 143.0314209 -329.72687622 143.0314209 -317.20581055 143.06347656 C-291.00660602 143.12771781 -264.80740359 143.17218756 -238.60814111 143.20426132 C-234.53653072 143.20926396 -230.46492057 143.21444127 -226.39331055 143.21972656 C-225.58274874 143.2207758 -224.77218694 143.22182505 -223.93706266 143.22290608 C-210.82387435 143.24029684 -197.7107564 143.27182718 -184.59760978 143.30861118 C-171.13572333 143.34605765 -157.67387365 143.36824368 -144.21193725 143.37635398 C-135.90957852 143.38183408 -127.6074187 143.39912334 -119.30512122 143.43166587 C-113.60683618 143.45285954 -107.90865351 143.45918911 -102.21033194 143.45400551 C-98.92585723 143.45145121 -95.64180095 143.45749022 -92.35737228 143.4768219 C-88.78763131 143.49679906 -85.21873309 143.49191004 -81.64897156 143.48101807 C-80.10952654 143.49849512 -80.10952654 143.49849512 -78.53898162 143.51632524 C-70.35470258 143.44908552 -62.24841734 141.74139562 -55.5703125 136.73046875 C-52.49882115 133.46759268 -50.71288006 130.36840359 -48.875 126.3125 C-48.32247559 125.11306763 -48.32247559 125.11306763 -47.75878906 123.8894043 C-35.09848577 95.44013196 -23.44838679 62.83994439 -25.4375 31.3125 C-25.50234515 25.65151871 -25.50234515 25.65151871 -23.4609375 23.00390625 C-21.3125 21.375 -21.3125 21.375 -18.859375 19.85546875 C-15.21661469 17.49165571 -12.21058167 14.66324624 -9.0625 11.6875 C-8.4950708 11.15882324 -7.9276416 10.63014648 -7.34301758 10.08544922 C-2.39094031 5.79788626 -2.39094031 5.79788626 0 0 Z " fill="#FEE17A" transform="translate(695,347)"/>
<path d="M0 0 C8.28493719 -0.06987341 16.56974882 -0.12299903 24.85490894 -0.15543652 C28.70310271 -0.17101414 32.55109314 -0.19210547 36.39916992 -0.22631836 C40.12097323 -0.25919704 43.84258241 -0.27691225 47.56451988 -0.28463173 C48.97612242 -0.29012461 50.38771575 -0.30084903 51.79923439 -0.31719017 C68.88409676 -0.50690277 81.98276485 3.40530247 94.46875 15.34765625 C107.51928785 29.02252539 114.41667078 47.9925048 119 66 C119.25491211 66.99185303 119.50982422 67.98370605 119.77246094 69.00561523 C123.28632259 82.85833907 126.39043497 96.78518969 128 111 C128.16628906 111.88945312 128.33257813 112.77890625 128.50390625 113.6953125 C129.04553029 118.0694408 128.62687696 120.16968373 125.9296875 123.7421875 C123.07561926 126.67756823 120.128575 129.36566307 117 132 C116.48244141 132.44359863 115.96488281 132.88719727 115.43164062 133.34423828 C107.12505595 140.43747202 107.12505595 140.43747202 104 142 C103.96559814 141.38930664 103.93119629 140.77861328 103.89575195 140.14941406 C101.90445526 106.84381919 97.4840204 68.26912757 79.41796875 39.35546875 C78 37 78 37 77 34 C75.15140901 32.88010108 75.15140901 32.88010108 73 32 C72.39800781 31.67 71.79601562 31.34 71.17578125 31 C70.56089844 30.67 69.94601562 30.34 69.3125 30 C68.71050781 29.67 68.10851562 29.34 67.48828125 29 C58.78394399 25.5018676 50.17912221 25.75657606 40.9375 25.875 C39.58138685 25.88505369 38.22526645 25.8941753 36.86914062 25.90234375 C33.579239 25.92575942 30.28971562 25.95855577 27 26 C26.98541748 26.63276855 26.97083496 27.26553711 26.95581055 27.91748047 C26.04707621 63.42555237 18.08799851 96.95400181 -5 125 C-5.45246094 125.5578418 -5.90492188 126.11568359 -6.37109375 126.69042969 C-25.81347003 150.57188511 -50.41689476 168.03181048 -80 177 C-80.64759277 177.19964355 -81.29518555 177.39928711 -81.96240234 177.60498047 C-103.45013227 184.0660208 -126.07212109 183.29674572 -148.28160453 183.30592227 C-152.28606222 183.31046465 -156.29045622 183.32850309 -160.2948761 183.34571838 C-172.14899881 183.39441277 -184.00315766 183.42582697 -195.85736084 183.44702148 C-205.11643597 183.46358525 -214.37538795 183.48644489 -223.63438064 183.53004223 C-228.37761505 183.55167962 -233.1206145 183.55989011 -237.86389482 183.55764949 C-240.81549009 183.55932491 -243.76693321 183.57342296 -246.71847343 183.59086227 C-248.72020777 183.59905639 -250.72198573 183.59256325 -252.72372437 183.585495 C-262.3302274 183.66197373 -271.31126409 184.29162763 -278.375 191.4375 C-288.13684533 201.91960708 -288.16978351 215.11447629 -287.78125 228.6171875 C-287.73451324 231.10542365 -287.69032097 233.59370867 -287.6484375 236.08203125 C-287.58065232 239.9826261 -287.4998241 243.88053815 -287.37597656 247.77978516 C-287.26041619 251.55937324 -287.2033119 255.33620336 -287.15625 259.1171875 C-287.10666138 260.27370819 -287.05707275 261.43022888 -287.00598145 262.62179565 C-286.98310624 269.04908105 -287.70339698 272.43393934 -292.30273438 277.08642578 C-293.84150943 278.42266884 -295.40655823 279.72944205 -297 281 C-298.33633873 282.16322297 -299.67023239 283.32927075 -301 284.5 C-301.64066406 285.04785156 -302.28132813 285.59570312 -302.94140625 286.16015625 C-306.17873976 289.05348468 -309.18753379 292.16695152 -312.21484375 295.27734375 C-314 297 -314 297 -315 297 C-315.09318713 286.04612701 -315.16401011 275.09235025 -315.20724869 264.13815975 C-315.22801398 259.05021476 -315.25612651 253.96254342 -315.30175781 248.87475586 C-315.34561386 243.9534141 -315.36921997 239.03233351 -315.37950897 234.11081123 C-315.38682969 232.24476581 -315.40112252 230.37873268 -315.42292023 228.51280022 C-315.67627928 205.89993011 -309.94575941 186.66511698 -294 170 C-289.01456754 165.87706631 -283.10747714 163.93651714 -277 162 C-277 161.34 -277 160.68 -277 160 C-266.27652438 156.8781248 -256.45596314 155.41878067 -245.22485352 155.50170898 C-243.72299667 155.497872 -242.22114353 155.49224134 -240.71929932 155.48498535 C-237.52027838 155.47315832 -234.3215864 155.47342691 -231.1225605 155.48357964 C-226.04634755 155.49933573 -220.9704625 155.48532869 -215.89427185 155.46754456 C-206.03019079 155.43690462 -196.16621338 155.43521587 -186.30209351 155.43719482 C-173.75097879 155.43859295 -161.19994417 155.42795993 -148.6488871 155.3886171 C-143.62071973 155.37383554 -138.59285135 155.37383812 -133.56468022 155.38609493 C-130.41719733 155.39086182 -127.269825 155.3832012 -124.12236023 155.37255096 C-122.68302255 155.37017925 -121.243665 155.37275513 -119.8043499 155.38115883 C-100.6458125 155.48617188 -82.28254036 152.00300993 -65.58203125 142.390625 C-63 141 -63 141 -61 141 C-61 140.34 -61 139.68 -61 139 C-59.33551663 137.81108331 -57.61440208 136.70134019 -55.875 135.625 C-33.51436314 121.00762255 -18.55790303 101.31599947 -8 77 C-7.27707764 75.43221802 -7.27707764 75.43221802 -6.53955078 73.83276367 C0.11652119 58.19059586 -0.35350887 40.40770646 -0.25 23.75 C-0.22175876 21.43227024 -0.1918204 19.11456052 -0.16015625 16.796875 C-0.08727627 11.19799572 -0.03507396 5.59923737 0 0 Z " fill="#FEF2BE" transform="translate(567,230)"/>
<path d="M0 0 C1.34656176 0.00120614 1.34656176 0.00120614 2.72032678 0.00243664 C5.70843438 0.00644076 8.6964673 0.0177493 11.68455505 0.0291748 C13.8059637 0.03374126 15.92737319 0.03792775 18.0487833 0.04175568 C23.63164312 0.05342194 29.21445758 0.07183276 34.79728937 0.09285355 C37.99690574 0.10488437 41.19652397 0.11592688 44.39614487 0.12667847 C58.16227597 0.17395966 71.92830275 0.23838384 85.69434047 0.30727577 C91.51037502 0.33613139 97.32641587 0.3636629 103.14245605 0.39135742 C114.0702628 0.44358259 124.99806373 0.49693383 135.92586285 0.55072927 C148.4031319 0.61209465 160.88040719 0.67214434 173.35768306 0.7321043 C198.94508164 0.8550938 224.53247229 0.97966796 250.11985779 1.10534668 C228.38770293 12.35521571 192.79727064 8.43144317 169.08518982 8.63708496 C154.9581911 8.77130374 141.12262336 9.19031168 127.11985779 11.10534668 C125.24652702 11.32208563 123.37287709 11.5361046 121.49876404 11.74597168 C86.42048305 16.04315893 52.69505556 26.27978982 21.11985779 42.10534668 C20.27826111 42.5213916 19.43666443 42.93743652 18.56956482 43.36608887 C-3.066517 54.12228803 -22.84289954 67.60524412 -41.72389221 82.60925293 C-45.38678472 85.51782675 -49.1204486 88.32317341 -52.88014221 91.10534668 C-54.47690391 86.07964158 -53.28491731 81.77943754 -52.13014221 76.79284668 C-51.91333801 75.85150879 -51.69653381 74.9101709 -51.47315979 73.94030762 C-37.76029276 17.68745906 -37.76029276 17.68745906 -23.88014221 6.10534668 C-15.89220326 1.51082413 -9.12396248 -0.04818457 0 0 Z " fill="#719DC1" transform="translate(152.88014221191406,228.8946533203125)"/>
<path d="M0 0 C6.37334437 4.27716837 10.39387513 10.58396914 12.8046875 17.81640625 C13.69937971 28.40604188 12.25495878 35.71907604 5.6796875 44.06640625 C0.49795934 49.67341664 -6.65648539 53.17038626 -14.23828125 54.0546875 C-20.42331524 54.2687415 -24.79632546 52.75108292 -30.1953125 49.81640625 C-31.2471875 49.25953125 -32.2990625 48.70265625 -33.3828125 48.12890625 C-39.24448965 43.30930504 -43.61779253 36.26442065 -44.6015625 28.6875 C-44.86808603 18.92607576 -42.95790259 11.44079835 -36.5546875 3.87890625 C-26.06515916 -5.92439126 -12.43291073 -6.70315294 0 0 Z " fill="#FFFEFD" transform="translate(494.1953125,586.18359375)"/>
<path d="M0 0 C6.06515633 4.46089143 11.35755048 10.31970419 13.2890625 17.68359375 C14.33509736 28.6338574 12.95155968 36.30079592 6.1640625 44.93359375 C-0.02753964 51.46481964 -6.23217606 53.96464926 -15.2109375 54.30859375 C-24.16201111 53.96570988 -30.36947792 51.46173631 -36.5859375 44.99609375 C-42.10059064 38.02129605 -44.56253727 30.67752792 -44.21875 21.7734375 C-42.84770691 13.43116761 -38.50254738 6.18276365 -31.828125 1.01953125 C-22.28625443 -5.00135387 -9.84760706 -5.66157214 0 0 Z " fill="#FDFEFE" transform="translate(305.7109375,82.31640625)"/>
<path d="M0 0 C0.66 0.33 1.32 0.66 2 1 C-2.46351289 6.22325977 -7.0744893 11.20922972 -12 16 C-12 12.08599994 -10.69693925 11.00062623 -8.25 8 C-7.20585937 6.700625 -7.20585937 6.700625 -6.140625 5.375 C-4.21631937 3.24000397 -2.3627117 1.61771251 0 0 Z " fill="#E9D894" transform="translate(277,397)"/>
</svg>
