<?xml version="1.0" encoding="UTF-8"?>
<svg version="1.1" xmlns="http://www.w3.org/2000/svg" width="1200" height="1200">
<path d="M0 0 C0.85255371 -0.01853027 1.70510742 -0.03706055 2.58349609 -0.05615234 C18.33265239 0.09445838 31.84300054 6.30340097 45.6875 13.125 C47.43221405 13.97073766 49.177589 14.81511309 50.92358398 15.65820312 C55.40877076 17.82824914 59.88520078 20.0157349 64.35949707 22.20812988 C68.57600146 24.27106114 72.79984008 26.31882854 77.0234375 28.3671875 C83.26532466 31.39628953 89.5032051 34.43346832 95.73828125 37.4765625 C105.22734658 42.1060418 114.75054591 46.66262646 124.28222656 51.20361328 C138.99418052 58.2212629 153.67504168 65.30394016 168.35186768 72.39468384 C176.72889266 76.44167665 185.11111371 80.47763657 193.5 84.5 C202.5070602 88.81876989 211.50576202 93.15461247 220.5 97.5 C228.54932677 101.38865733 236.60021149 105.27396365 244.65966797 109.14160156 C246.70621713 110.12397103 248.75212524 111.10767721 250.79736328 112.09277344 C256.09185033 114.64004874 261.39844222 117.15657818 266.7265625 119.6328125 C268.3957373 120.41567627 268.3957373 120.41567627 270.09863281 121.21435547 C272.2003318 122.19942899 274.30613847 123.17581276 276.41699219 124.14111328 C296.80303402 133.74076329 311.08464994 149.11074319 318.9921875 170.234375 C321.75496507 179.18663099 322.28670609 187.19203505 322.25726891 196.52794838 C322.25996507 197.9494056 322.26353447 199.37086138 322.26789337 200.79231447 C322.27733136 204.69721173 322.27435723 208.60201545 322.26933783 212.50691724 C322.26606749 216.75573614 322.27435684 221.00453521 322.28115618 225.25334775 C322.29146024 232.69976084 322.29429927 240.14614793 322.29224396 247.59256744 C322.28919503 258.66591494 322.29751558 269.73923364 322.30799321 280.81257554 C322.32734188 301.74054956 322.33296176 322.66851379 322.33410732 343.5964957 C322.3350262 359.75795984 322.33914177 375.91942014 322.34550858 392.08088303 C322.34730365 396.73195342 322.34908328 401.38302382 322.35085833 406.03409421 C322.35130043 407.1903473 322.35174252 408.34660039 322.35219802 409.53789145 C322.36450768 442.06448904 322.37239902 474.5910853 322.37151146 507.11768532 C322.3714803 508.34418691 322.37144914 509.57068851 322.37141704 510.83435682 C322.37125083 517.05085584 322.37105274 523.26735487 322.37084763 529.48385389 C322.37078779 531.33580025 322.37078779 531.33580025 322.37072675 533.22515966 C322.37064587 535.72188493 322.37056228 538.2186102 322.37047596 540.71533547 C322.36925047 579.55975034 322.3842628 618.40413028 322.41162109 657.24853516 C322.44234162 700.88481152 322.4595536 744.52106494 322.45769465 788.15735281 C322.45754539 792.81030933 322.45744797 797.46326585 322.45738602 802.11622238 C322.45735105 803.83474996 322.45735105 803.83474996 322.45731538 805.58799526 C322.45725384 824.02593182 322.4700262 842.46383806 322.48725055 860.90176561 C322.50420357 879.43253231 322.50618345 897.96325466 322.4930319 916.49402483 C322.48564052 927.50213283 322.4893064 938.51010612 322.50891658 949.51819985 C322.52091416 956.87472297 322.51832794 964.2311485 322.50397559 971.58766714 C322.49621076 975.77698999 322.49466601 979.96605211 322.51089029 984.1553566 C322.52554994 987.97419327 322.52145737 991.79255442 322.50304256 995.61137065 C322.49803069 997.61591497 322.51244387 999.62048 322.52788812 1001.62497109 C322.38701288 1019.7301233 316.17976517 1036.93673209 304 1050.5 C303.27167969 1051.32113281 302.54335937 1052.14226562 301.79296875 1052.98828125 C290.32433253 1065.19802482 274.98716079 1071.66000707 260.125 1078.8125 C258.18251678 1079.75344454 256.2402984 1080.69493599 254.29833984 1081.63696289 C248.87010898 1084.267459 243.43624762 1086.88611845 238 1089.5 C237.34016113 1089.81747192 236.68032227 1090.13494385 236.00048828 1090.46203613 C230.81824343 1092.9548746 225.63051987 1095.43594571 220.4375 1097.90625 C213.82032975 1101.05634003 207.2233158 1104.24817459 200.625 1107.4375 C190.57682032 1112.29350189 180.52119693 1117.13365726 170.45800781 1121.95849609 C162.42353032 1125.81244283 154.39829228 1129.68534592 146.375 1133.5625 C136.83968191 1138.17023757 127.29442743 1142.75649549 117.73730469 1147.31884766 C110.64543666 1150.70691052 103.56485671 1154.11808787 96.48800659 1157.53738403 C94.62566042 1158.43718092 92.76317284 1159.3366844 90.90063477 1160.23608398 C90.28862717 1160.53161667 89.67661957 1160.82714935 89.04606628 1161.13163757 C87.81658803 1161.72532416 86.58710603 1162.31900298 85.35762024 1162.91267395 C82.47986565 1164.30227487 79.60229011 1165.69224325 76.72509766 1167.08300781 C70.57342588 1170.0551531 64.41469065 1173.01181873 58.24658203 1175.94970703 C55.97453273 1177.0346456 53.70486633 1178.12458207 51.43701172 1179.21826172 C26.88203045 1191.05831207 4.06454959 1199.87231888 -23.35546875 1191.82421875 C-39.50712668 1185.95560992 -50.87967844 1175.7628056 -63.171875 1164.11328125 C-66.91929041 1160.56459241 -70.73642289 1157.10158892 -74.5859375 1153.6640625 C-77.36721707 1151.17081188 -80.12341129 1148.65088966 -82.875 1146.125 C-83.62740967 1145.43446533 -83.62740967 1145.43446533 -84.39501953 1144.72998047 C-86.44420961 1142.84855267 -88.49259342 1140.96624812 -90.54101562 1139.08398438 C-95.67473745 1134.36774437 -100.81247157 1129.65717409 -106 1125 C-112.22569011 1119.41080217 -118.38053078 1113.74475942 -124.54101562 1108.08398438 C-129.65310374 1103.3876188 -134.76885156 1098.6967486 -139.9375 1094.0625 C-144.3920991 1090.06551622 -148.78918479 1086.00925591 -153.18115234 1081.94384766 C-157.24881588 1078.18272573 -161.3556163 1074.46790461 -165.48046875 1070.76953125 C-170.87037666 1065.91443591 -176.19951805 1060.99220458 -181.54101562 1056.08398438 C-186.65310374 1051.3876188 -191.76885156 1046.6967486 -196.9375 1042.0625 C-201.3920991 1038.06551622 -205.78918479 1034.00925591 -210.18115234 1029.94384766 C-214.24881588 1026.18272573 -218.3556163 1022.46790461 -222.48046875 1018.76953125 C-227.87037666 1013.91443591 -233.19951805 1008.99220458 -238.54101562 1004.08398438 C-243.65310374 999.3876188 -248.76885156 994.6967486 -253.9375 990.0625 C-258.3920991 986.06551622 -262.78918479 982.00925591 -267.18115234 977.94384766 C-271.24881588 974.18272573 -275.3556163 970.46790461 -279.48046875 966.76953125 C-284.87037666 961.91443591 -290.19951805 956.99220458 -295.54101562 952.08398438 C-300.65310374 947.3876188 -305.76885156 942.6967486 -310.9375 938.0625 C-315.39286804 934.06482627 -319.79083519 930.00799115 -324.18334961 925.94165039 C-327.43365351 922.93603927 -330.70297075 919.95448076 -334 917 C-337.86662567 913.53510167 -341.69013786 910.02695432 -345.5 906.5 C-350.12619807 902.21772721 -354.78678675 897.97792141 -359.48046875 893.76953125 C-364.87037666 888.91443591 -370.19951805 883.99220458 -375.54101562 879.08398438 C-380.65310374 874.3876188 -385.76885156 869.6967486 -390.9375 865.0625 C-395.3920991 861.06551622 -399.78918479 857.00925591 -404.18115234 852.94384766 C-408.24611811 849.1852202 -412.34984906 845.47250157 -416.47265625 841.77734375 C-419.849234 838.7347706 -423.19480481 835.65881256 -426.54150391 832.58349609 C-429.65651092 829.72383388 -432.78860242 826.88476963 -435.9375 824.0625 C-440.90238091 819.60602289 -445.80134952 815.08051938 -450.69921875 810.55078125 C-458.23404146 803.58278622 -465.80842392 796.66080792 -473.4453125 789.8046875 C-478.84387407 784.93442553 -484.18730431 780.0034276 -489.54101562 775.08398438 C-495.44650814 769.65873522 -501.36616923 764.25180835 -507.34765625 758.91015625 C-509.37929858 757.06402471 -511.38127107 755.19895323 -513.37109375 753.30859375 C-514.24229858 752.48669556 -514.24229858 752.48669556 -515.13110352 751.64819336 C-516.27145563 750.57042251 -517.40632114 749.48680896 -518.53491211 748.39672852 C-522.2359261 744.84755404 -522.2359261 744.84755404 -527 743.5 C-529.00487023 744.42033109 -529.00487023 744.42033109 -530.9140625 745.97265625 C-531.66558594 746.53533203 -532.41710937 747.09800781 -533.19140625 747.67773438 C-533.99449219 748.29970703 -534.79757812 748.92167969 -535.625 749.5625 C-536.46675781 750.19865234 -537.30851562 750.83480469 -538.17578125 751.49023438 C-540.79614255 753.47802714 -543.40054997 755.48495692 -546 757.5 C-546.77311523 758.09925293 -547.54623047 758.69850586 -548.34277344 759.31591797 C-551.31089699 761.62180237 -554.27546082 763.9321051 -557.23364258 766.25073242 C-563.29167352 770.98827982 -569.46176046 775.55788212 -575.66821289 780.09838867 C-583.61825892 785.92571142 -591.4468423 791.90808774 -599.27734375 797.89453125 C-602.83735601 800.61599075 -606.40965039 803.31872895 -610 806 C-615.52797214 810.13009413 -621.01382408 814.31459103 -626.5 818.5 C-631.98617592 822.68540897 -637.47202786 826.86990587 -643 831 C-648.44450569 835.06782354 -653.84718889 839.18950372 -659.25 843.3125 C-665.48118121 848.06718129 -671.72191247 852.80741068 -678 857.5 C-684.08697871 862.05144061 -690.14318379 866.64206123 -696.1875 871.25 C-697.50609009 872.25450195 -697.50609009 872.25450195 -698.85131836 873.27929688 C-703.43730632 876.77512855 -708.01624725 880.27976283 -712.5859375 883.796875 C-746.63647573 909.97198349 -746.63647573 909.97198349 -772 907.5 C-776.34595666 906.69554581 -780.03858382 905.44544326 -784 903.5 C-784.84820313 903.08363281 -785.69640625 902.66726563 -786.5703125 902.23828125 C-794.71148763 897.60874733 -801.21059238 890.91179547 -807.88671875 884.4375 C-811.20432199 881.22597835 -814.62202772 878.16401462 -818.11352539 875.14355469 C-820.92251689 872.69627492 -823.64859911 870.16346161 -826.375 867.625 C-831.03833223 863.3013584 -835.73696176 859.02181547 -840.47265625 854.77734375 C-843.84570372 851.73795167 -847.1911188 848.66873625 -850.52832031 845.59008789 C-852.90662618 843.40000707 -855.29891458 841.23988888 -857.73828125 839.1171875 C-867.88960031 830.27521916 -876.99261562 819.44966299 -878.17700195 805.40039062 C-878.46552009 794.83441968 -878.68593316 785.23910246 -874 775.5 C-873.59910156 774.65566406 -873.19820312 773.81132813 -872.78515625 772.94140625 C-867.71332879 763.51809784 -859.40439948 756.43908468 -851.359375 749.57421875 C-848.00318908 746.62366457 -844.75798609 743.55818518 -841.5 740.5 C-837.08664302 736.36106812 -832.65490347 732.26980862 -828.0703125 728.3203125 C-823.52189588 724.32113865 -819.11405609 720.16233292 -814.67138672 716.04638672 C-808.50688635 710.34291822 -802.31492125 704.66951003 -796.0625 699.0625 C-791.60713196 695.06482627 -787.20916481 691.00799115 -782.81665039 686.94165039 C-778.77550116 683.20473118 -774.69289404 679.51700894 -770.59375 675.84375 C-767.54108319 673.08531613 -764.51917344 670.29497956 -761.5 667.5 C-756.87380193 663.21772721 -752.21321325 658.97792141 -747.51953125 654.76953125 C-742.64789755 650.38128446 -737.82787676 645.93626191 -733 641.5 C-721.72339154 631.13809743 -721.72339154 631.13809743 -716.0625 626.0625 C-712.17628321 622.57550933 -708.33202034 619.04620667 -704.5 615.5 C-702.85734953 613.98294696 -701.21424781 612.46638537 -699.57080078 610.95019531 C-698.07571938 609.56990567 -696.58272521 608.18735623 -695.08984375 606.8046875 C-694.21457031 606.00289062 -693.33929687 605.20109375 -692.4375 604.375 C-691.67308594 603.67117188 -690.90867187 602.96734375 -690.12109375 602.2421875 C-688.14432067 600.61853963 -686.33224967 599.52597831 -684 598.5 C-684 597.84 -684 597.18 -684 596.5 C-684.59296875 596.23574219 -685.1859375 595.97148438 -685.796875 595.69921875 C-688.08029054 594.45629575 -689.47426723 593.19598354 -691.25 591.3125 C-693.62823921 588.86401744 -696.03799459 586.53928947 -698.625 584.3125 C-702.23575846 581.19665245 -705.75128531 577.99017884 -709.25 574.75 C-709.80550537 574.23566406 -710.36101074 573.72132813 -710.93334961 573.19140625 C-712.06519569 572.14316522 -713.19695001 571.09482511 -714.32861328 570.04638672 C-720.49311365 564.34291822 -726.68507875 558.66951003 -732.9375 553.0625 C-737.3920991 549.06551622 -741.78918479 545.00925591 -746.18115234 540.94384766 C-750.24881588 537.18272573 -754.3556163 533.46790461 -758.48046875 529.76953125 C-763.87037666 524.91443591 -769.19951805 519.99220458 -774.54101562 515.08398438 C-779.65310374 510.3876188 -784.76885156 505.6967486 -789.9375 501.0625 C-794.3920991 497.06551622 -798.78918479 493.00925591 -803.18115234 488.94384766 C-807.24881588 485.18272573 -811.3556163 481.46790461 -815.48046875 477.76953125 C-820.87037666 472.91443591 -826.19951805 467.99220458 -831.54101562 463.08398438 C-836.65310374 458.3876188 -841.76885156 453.6967486 -846.9375 449.0625 C-848.13632812 447.98162109 -848.13632812 447.98162109 -849.359375 446.87890625 C-850.76487157 445.61271186 -852.17126046 444.34748105 -853.58398438 443.08935547 C-865.05289502 432.86257713 -876.7981411 421.75653315 -878.17700195 405.40039062 C-878.63987792 388.44917178 -876.52560491 375.20773933 -864.828125 362.05859375 C-860.83740485 357.99218753 -856.60996982 354.21368923 -852.2890625 350.50390625 C-849.35037429 347.93130036 -846.48863478 345.28057349 -843.625 342.625 C-838.96078625 338.30229839 -834.2630561 334.02183148 -829.52734375 329.77734375 C-826.66917777 327.20190207 -823.83291561 324.60312271 -821 322 C-816.52326377 317.88731856 -812.02590449 313.79941086 -807.48828125 309.75390625 C-805.75398231 308.18296356 -804.04466975 306.58418119 -802.35546875 304.96484375 C-789.39127408 292.66833292 -777.20764168 286.96275258 -759.46704102 287.08007812 C-741.04848391 287.61729321 -728.34467291 298.825804 -714.41552734 309.63183594 C-710.10657025 312.96437481 -705.77133515 316.26242009 -701.4375 319.5625 C-700.54369629 320.24368896 -699.64989258 320.92487793 -698.72900391 321.62670898 C-693.50239801 325.60663223 -688.26117524 329.56591341 -683 333.5 C-672.38804425 341.43527337 -661.86795938 349.49155651 -651.33691406 357.53369141 C-640.91024832 365.49534689 -630.45812137 373.41976665 -619.95458984 381.27978516 C-614.4391383 385.41062284 -608.96140578 389.58463671 -603.5078125 393.796875 C-591.07219708 403.3944869 -578.54038114 412.86595341 -565.9609375 422.27392578 C-561.42547002 425.66921711 -556.91568963 429.09204457 -552.4375 432.5625 C-550.90441544 433.74026028 -549.37123357 434.91789748 -547.8359375 436.09277344 C-546.44576228 437.15832796 -545.05819763 438.22728949 -543.671875 439.29785156 C-541.10356944 441.2743045 -538.52187344 443.23211978 -535.9375 445.1875 C-534.70374634 446.14378296 -534.70374634 446.14378296 -533.44506836 447.11938477 C-532.66784424 447.70260498 -531.89062012 448.2858252 -531.08984375 448.88671875 C-530.39753662 449.41483154 -529.70522949 449.94294434 -528.99194336 450.48706055 C-527.05042308 451.70354461 -527.05042308 451.70354461 -524.8605957 451.26342773 C-522.38993913 450.24968372 -521.06981057 448.8226485 -519.25 446.875 C-516.72580483 444.25389789 -514.20461229 441.73819829 -511.4375 439.375 C-507.35064151 435.86272954 -503.42851768 432.18685883 -499.5 428.5 C-495.13723473 424.40801975 -490.75504601 420.36837289 -486.21875 416.46875 C-482.92043437 413.54207557 -479.71622658 410.51633486 -476.5 407.5 C-472.08643683 403.36127803 -467.65491416 399.26981783 -463.0703125 395.3203125 C-458.52189588 391.32113865 -454.11405609 387.16233292 -449.67138672 383.04638672 C-443.50688635 377.34291822 -437.31492125 371.66951003 -431.0625 366.0625 C-427.17629402 362.57551903 -423.33157193 359.04668015 -419.5 355.5 C-414.87377683 351.21775392 -410.21321377 346.97792188 -405.51953125 342.76953125 C-400.64789755 338.38128446 -395.82787676 333.93626191 -391 329.5 C-379.72339154 319.13809743 -379.72339154 319.13809743 -374.0625 314.0625 C-370.17629402 310.57551903 -366.33157193 307.04668015 -362.5 303.5 C-357.87377683 299.21775392 -353.21321377 294.97792188 -348.51953125 290.76953125 C-343.64789755 286.38128446 -338.82787676 281.93626191 -334 277.5 C-322.72339154 267.13809743 -322.72339154 267.13809743 -317.0625 262.0625 C-312.60713196 258.06482627 -308.20916481 254.00799115 -303.81665039 249.94165039 C-299.77550116 246.20473118 -295.69289404 242.51700894 -291.59375 238.84375 C-288.54108319 236.08531613 -285.51917344 233.29497956 -282.5 230.5 C-277.87380193 226.21772721 -273.21321325 221.97792141 -268.51953125 217.76953125 C-263.64789755 213.38128446 -258.82787676 208.93626191 -254 204.5 C-247.54632094 198.56981329 -241.07667264 192.65988822 -234.5546875 186.8046875 C-229.67405968 182.40167464 -224.84007959 177.94747491 -220 173.5 C-208.72339154 163.13809743 -208.72339154 163.13809743 -203.0625 158.0625 C-199.17629402 154.57551903 -195.33157193 151.04668015 -191.5 147.5 C-186.87377683 143.21775392 -182.21321377 138.97792188 -177.51953125 134.76953125 C-172.64789755 130.38128446 -167.82787676 125.93626191 -163 121.5 C-156.54632094 115.56981329 -150.07667264 109.65988822 -143.5546875 103.8046875 C-138.67405968 99.40167464 -133.84007959 94.94747491 -129 90.5 C-117.72339154 80.13809743 -117.72339154 80.13809743 -112.0625 75.0625 C-108.17629402 71.57551903 -104.33157193 68.04668015 -100.5 64.5 C-95.87377683 60.21775392 -91.21321377 55.97792188 -86.51953125 51.76953125 C-81.64789755 47.38128446 -76.82787676 42.93626191 -72 38.5 C-68.95989178 35.70649118 -65.9188074 32.91411828 -62.87109375 30.12890625 C-61.04433015 28.45623699 -59.22333909 26.77722506 -57.41015625 25.08984375 C-40.63548461 9.64018567 -23.04071531 0.29985314 0 0 Z M17.37890625 329.0703125 C16.61771484 329.62976563 15.85652344 330.18921875 15.07226562 330.765625 C14.24404297 331.37921875 13.41582031 331.9928125 12.5625 332.625 C11.27956055 333.57246094 11.27956055 333.57246094 9.97070312 334.5390625 C3.49314774 339.34360689 -2.88142517 344.26891278 -9.22631836 349.24658203 C-15.35844337 354.04145648 -21.61027953 358.65726791 -27.89453125 363.25 C-33.33797943 367.24126806 -38.68967632 371.33358142 -44 375.5 C-50.08923002 380.27753949 -56.25123202 384.93312672 -62.5 389.5 C-69.67643989 394.74553939 -76.72908042 400.12782436 -83.72924805 405.60595703 C-88.65120013 409.4569765 -93.61666765 413.2395465 -98.62890625 416.97265625 C-103.19596751 420.38400642 -107.718882 423.85366203 -112.25 427.3125 C-118.48110402 432.06728125 -124.72191351 436.80741145 -131 441.5 C-140.71766774 448.76623005 -150.35507104 456.13766969 -160 463.5 C-170.37174736 471.41713762 -180.74622483 479.32834065 -191.19580078 487.14257812 C-198.05865017 492.28061439 -204.85981134 497.49845422 -211.66503906 502.71240234 C-222.70747754 511.16626417 -233.767212 519.59611828 -244.90478516 527.92431641 C-259.69326908 538.99616703 -274.32942699 550.27266377 -289 561.5 C-298.34797058 568.65396792 -307.70089954 575.80137295 -317.0625 582.9375 C-317.93100586 583.59983643 -318.79951172 584.26217285 -319.69433594 584.94458008 C-324.77930971 588.81919653 -329.87890718 592.67323952 -335 596.5 C-333.61488616 600.65534152 -330.6752664 602.21917891 -327.25 604.6875 C-325.77921805 605.76853895 -324.30920427 606.85062356 -322.83984375 607.93359375 C-321.66010986 608.79960205 -321.66010986 608.79960205 -320.45654297 609.68310547 C-316.20695488 612.82616197 -312.01184363 616.04030312 -307.8125 619.25 C-306.02348312 620.61464315 -304.23442009 621.97922578 -302.4453125 623.34375 C-299.72091309 625.42302573 -296.99668725 627.50252874 -294.27246094 629.58203125 C-284.80925858 636.80439626 -275.33778865 644.01331927 -265.80419922 651.14257812 C-258.94134983 656.28061439 -252.14018866 661.49845422 -245.33496094 666.71240234 C-234.19653527 675.23974997 -223.03931076 683.74092403 -211.80517578 692.1418457 C-204.94200273 697.28012889 -198.14051183 702.49820662 -191.33496094 707.71240234 C-180.92227287 715.68414032 -170.5024332 723.64672014 -160 731.5 C-149.38804425 739.43527337 -138.86795938 747.49155651 -128.33691406 755.53369141 C-117.91024832 763.49534689 -107.45812137 771.41976665 -96.95458984 779.27978516 C-91.4443488 783.4067204 -85.9715771 787.57650343 -80.5234375 791.78515625 C-69.66221004 800.16796119 -58.73752941 808.47100287 -47.75 816.6875 C-40.23545129 822.306895 -32.78331415 828.00571201 -25.33496094 833.71240234 C-14.6278662 841.90953196 -3.90766316 850.0899339 6.875 858.1875 C7.49834229 858.65615479 8.12168457 859.12480957 8.76391602 859.60766602 C15.06665765 865.22439787 15.06665765 865.22439787 22 868.5 C22 689.64 22 510.78 22 326.5 C20.16957535 326.5 18.80281502 328.02286669 17.37890625 329.0703125 Z " fill="#0085CF" transform="translate(878,2.5)"/>
<path d="M0 0 C0.85255371 -0.01853027 1.70510742 -0.03706055 2.58349609 -0.05615234 C18.33265239 0.09445838 31.84300054 6.30340097 45.6875 13.125 C47.43221405 13.97073766 49.177589 14.81511309 50.92358398 15.65820312 C55.40877076 17.82824914 59.88520078 20.0157349 64.35949707 22.20812988 C68.57600146 24.27106114 72.79984008 26.31882854 77.0234375 28.3671875 C83.26532466 31.39628953 89.5032051 34.43346832 95.73828125 37.4765625 C105.22734658 42.1060418 114.75054591 46.66262646 124.28222656 51.20361328 C138.99418052 58.2212629 153.67504168 65.30394016 168.35186768 72.39468384 C176.72889266 76.44167665 185.11111371 80.47763657 193.5 84.5 C202.5070602 88.81876989 211.50576202 93.15461247 220.5 97.5 C228.54932677 101.38865733 236.60021149 105.27396365 244.65966797 109.14160156 C246.70621713 110.12397103 248.75212524 111.10767721 250.79736328 112.09277344 C256.09185033 114.64004874 261.39844222 117.15657818 266.7265625 119.6328125 C268.3957373 120.41567627 268.3957373 120.41567627 270.09863281 121.21435547 C272.2003318 122.19942899 274.30613847 123.17581276 276.41699219 124.14111328 C296.80303402 133.74076329 311.08464994 149.11074319 318.9921875 170.234375 C321.75496507 179.18663099 322.28670609 187.19203505 322.25726891 196.52794838 C322.25996507 197.9494056 322.26353447 199.37086138 322.26789337 200.79231447 C322.27733136 204.69721173 322.27435723 208.60201545 322.26933783 212.50691724 C322.26606749 216.75573614 322.27435684 221.00453521 322.28115618 225.25334775 C322.29146024 232.69976084 322.29429927 240.14614793 322.29224396 247.59256744 C322.28919503 258.66591494 322.29751558 269.73923364 322.30799321 280.81257554 C322.32734188 301.74054956 322.33296176 322.66851379 322.33410732 343.5964957 C322.3350262 359.75795984 322.33914177 375.91942014 322.34550858 392.08088303 C322.34730365 396.73195342 322.34908328 401.38302382 322.35085833 406.03409421 C322.35152148 407.76847385 322.35152148 407.76847385 322.35219802 409.53789145 C322.36450768 442.06448904 322.37239902 474.5910853 322.37151146 507.11768532 C322.37146472 508.95743771 322.37146472 508.95743771 322.37141704 510.83435682 C322.37125083 517.05085584 322.37105274 523.26735487 322.37084763 529.48385389 C322.37080774 530.7184848 322.37076785 531.9531157 322.37072675 533.22515966 C322.37064587 535.72188493 322.37056228 538.2186102 322.37047596 540.71533547 C322.36925047 579.55975034 322.3842628 618.40413028 322.41162109 657.24853516 C322.44234162 700.88481152 322.4595536 744.52106494 322.45769465 788.15735281 C322.45754539 792.81030933 322.45744797 797.46326585 322.45738602 802.11622238 C322.45736271 803.26190743 322.4573394 804.40759248 322.45731538 805.58799526 C322.45725384 824.02593182 322.4700262 842.46383806 322.48725055 860.90176561 C322.50420357 879.43253231 322.50618345 897.96325466 322.4930319 916.49402483 C322.48564052 927.50213283 322.4893064 938.51010612 322.50891658 949.51819985 C322.52091416 956.87472297 322.51832794 964.2311485 322.50397559 971.58766714 C322.49621076 975.77698999 322.49466601 979.96605211 322.51089029 984.1553566 C322.52554994 987.97419327 322.52145737 991.79255442 322.50304256 995.61137065 C322.49803069 997.61591497 322.51244387 999.62048 322.52788812 1001.62497109 C322.38701288 1019.7301233 316.17976517 1036.93673209 304 1050.5 C303.27167969 1051.32113281 302.54335937 1052.14226562 301.79296875 1052.98828125 C290.32433253 1065.19802482 274.98716079 1071.66000707 260.125 1078.8125 C258.18251678 1079.75344454 256.2402984 1080.69493599 254.29833984 1081.63696289 C248.87010898 1084.267459 243.43624762 1086.88611845 238 1089.5 C237.34016113 1089.81747192 236.68032227 1090.13494385 236.00048828 1090.46203613 C230.81824343 1092.9548746 225.63051987 1095.43594571 220.4375 1097.90625 C213.82032975 1101.05634003 207.2233158 1104.24817459 200.625 1107.4375 C190.57682032 1112.29350189 180.52119693 1117.13365726 170.45800781 1121.95849609 C162.42353032 1125.81244283 154.39829228 1129.68534592 146.375 1133.5625 C136.83968191 1138.17023757 127.29442743 1142.75649549 117.73730469 1147.31884766 C110.64543666 1150.70691052 103.56485671 1154.11808787 96.48800659 1157.53738403 C94.62566042 1158.43718092 92.76317284 1159.3366844 90.90063477 1160.23608398 C90.28862717 1160.53161667 89.67661957 1160.82714935 89.04606628 1161.13163757 C87.81658803 1161.72532416 86.58710603 1162.31900298 85.35762024 1162.91267395 C82.47986565 1164.30227487 79.60229011 1165.69224325 76.72509766 1167.08300781 C70.57342588 1170.0551531 64.41469065 1173.01181873 58.24658203 1175.94970703 C55.97453273 1177.0346456 53.70486633 1178.12458207 51.43701172 1179.21826172 C25.51321092 1191.71833669 1.57991552 1200.39050317 -27 1190.5 C-29.35662737 1189.54450104 -31.67615728 1188.5344657 -34 1187.5 C-34 1186.51 -34 1185.52 -34 1184.5 C-32.02580078 1184.56960938 -32.02580078 1184.56960938 -30.01171875 1184.640625 C-16.05304197 1185.00890677 -16.05304197 1185.00890677 -3 1180.5 C-2.13117187 1180.06429688 -1.26234375 1179.62859375 -0.3671875 1179.1796875 C10.25130128 1173.3791399 16.27994911 1164.70621444 20.04937307 1153.33411054 C21.04176932 1149.33153415 21.27922225 1145.65453773 21.25299966 1141.56438756 C21.25605276 1140.79015973 21.25910585 1140.0159319 21.26225147 1139.21824263 C21.27005117 1136.62135602 21.26361953 1134.0247022 21.25726891 1131.42781448 C21.25996204 1129.54019096 21.26352972 1127.65256853 21.26789337 1125.76494813 C21.27737199 1120.55643231 21.27434405 1115.34798624 21.26933783 1110.13946695 C21.26607797 1104.48103309 21.27434809 1098.82261436 21.28115618 1093.16418529 C21.29147713 1083.2398345 21.29429635 1073.31550323 21.29224396 1063.39114761 C21.29004694 1052.74151984 21.29206087 1042.09190463 21.29938889 1031.44227982 C21.29984819 1030.76980957 21.3003075 1030.09733932 21.30078072 1029.40449119 C21.30266398 1026.66564769 21.30457536 1023.92680421 21.3065231 1021.18796075 C21.32681711 992.60950145 21.33293526 964.03104998 21.33410732 935.4525843 C21.33423682 932.37598008 21.3343727 929.29937586 21.33451414 926.22277164 C21.33454815 925.45931661 21.33458216 924.69586157 21.3346172 923.90927154 C21.33543393 906.99513482 21.33981317 890.0809996 21.34482583 873.16686367 C21.34688253 866.20336637 21.34886258 859.23986904 21.35085833 852.27637172 C21.35107951 851.50697726 21.35130069 850.7375828 21.35152857 849.94487336 C21.3641778 805.85119502 21.37242668 761.75751767 21.37151146 717.66383743 C21.3714799 716.0134958 21.37144843 714.36315418 21.37141704 712.71281255 C21.37127027 705.26156169 21.37109393 697.81031083 21.37090927 690.35905997 C21.37082703 687.03631873 21.37074673 683.71357749 21.37066665 680.39083625 C21.37062586 678.72774391 21.37058382 677.06465157 21.37054053 675.40155924 C21.36917995 622.80936133 21.38381576 570.21719036 21.41162109 517.625 C21.41862305 504.37397901 21.42556193 491.122958 21.43214989 477.8719368 C21.43255564 477.05603577 21.43296138 476.24013474 21.43337943 475.39950944 C21.44580794 450.25567271 21.45334026 425.11183818 21.45586586 399.9679985 C21.45594576 399.17866647 21.45602566 398.38933444 21.45610799 397.57608326 C21.45781448 380.24894121 21.45833695 362.9217993 21.45776723 345.59465718 C21.45757426 339.39479793 21.45747018 333.19493867 21.45740977 326.99507942 C21.45739395 325.45269269 21.45737354 323.91030596 21.45734853 322.36791923 C21.45699579 297.78490159 21.46839564 273.20190698 21.48565616 248.61889593 C21.50295099 223.86119126 21.50734287 199.1035185 21.49413352 174.34581033 C21.49230891 170.92498175 21.49062236 167.50415312 21.48901749 164.08332443 C21.48869731 163.4127473 21.48837714 162.74217017 21.48804726 162.05127251 C21.48305443 150.7861526 21.49389606 139.52108096 21.50891658 128.25597013 C21.5208769 118.46032017 21.51836963 108.66474367 21.50397559 98.86909713 C21.49617919 93.28335835 21.4947566 87.69781556 21.51089029 82.11209026 C21.5254387 77.0308509 21.52158641 71.94997091 21.50304256 66.86874759 C21.49959903 65.04175136 21.5028597 63.21472706 21.51364497 61.38775942 C21.60061761 45.59787641 18.54390618 33.70571748 8 21.5 C-2.68241291 13.04894637 -14.42501687 9.11581867 -28 10.5 C-34.49545252 11.65456253 -39.79318149 13.41898008 -45 17.5 C-45.66 17.17 -46.32 16.84 -47 16.5 C-33.26188205 5.10544335 -17.63029545 0.22944164 0 0 Z " fill="#22A8F1" transform="translate(878,2.5)"/>
<path d="M0 0 C8.36898864 6.72094165 14.31347149 16.51317086 16.5390625 27.0390625 C16.64380197 28.64878924 16.6997257 30.26204857 16.72076988 31.87504196 C16.73571161 32.85197313 16.75065333 33.8289043 16.76604784 34.83543944 C16.77745951 35.90623063 16.78887118 36.97702182 16.80062866 38.08026123 C16.82413562 39.78967152 16.82413562 39.78967152 16.84811747 41.53361535 C16.8990921 45.36709027 16.94266579 49.20060947 16.98583984 53.03417969 C17.00245872 54.38865732 17.01929142 55.74313235 17.03633118 57.09760475 C17.36876004 83.54817139 17.56020553 109.99997261 17.7092495 136.45214462 C17.72849478 139.80745407 17.74811785 143.16276107 17.76806641 146.51806641 C17.77300942 147.35197018 17.77795244 148.18587396 17.78304525 149.04504755 C17.86523539 162.53389405 18.02455795 176.02075146 18.21340673 189.50847945 C18.40588734 203.37158864 18.51796792 217.23366404 18.55559123 231.09806752 C18.58121095 239.64086099 18.66793266 248.17840821 18.8346618 256.71963188 C18.94307148 262.58531569 18.97265106 268.44821447 18.94210462 274.31480458 C18.92674517 277.69658288 18.95583597 281.06169622 19.05583572 284.44311714 C19.60707851 304.07858284 19.60707851 304.07858284 14.5281415 310.63494587 C9.63585725 315.37350402 4.15810843 318.943524 -1.70451808 322.36316729 C-6.28821775 325.15004372 -10.46947462 328.45221044 -14.7109375 331.7265625 C-16.37189607 332.97375741 -18.03443298 334.21885584 -19.69921875 335.4609375 C-26.23188763 340.3607681 -32.7101276 345.33108103 -39.19042969 350.29980469 C-50.2083306 358.73975373 -61.24677562 367.15179278 -72.36352539 375.46118164 C-77.92120522 379.62087887 -83.44273921 383.82718088 -88.9609375 388.0390625 C-95.10866352 392.73144448 -101.2662967 397.40877309 -107.4609375 402.0390625 C-117.17859991 409.3052998 -126.81600844 416.67673212 -136.4609375 424.0390625 C-146.73950993 431.88507626 -157.01960778 439.72690266 -167.37548828 447.47070312 C-177.34469849 454.93449669 -187.22646888 462.51439037 -197.12402344 470.07275391 C-207.55068918 478.03440939 -218.00281613 485.95882915 -228.50634766 493.81884766 C-234.0165887 497.9457829 -239.4893604 502.11556593 -244.9375 506.32421875 C-255.77571505 514.68926247 -266.67597132 522.97598621 -277.6484375 531.1640625 C-284.07936523 535.96462567 -290.41651827 540.87857462 -296.73974609 545.81982422 C-302.36060887 550.20426689 -308.03931881 554.5042414 -313.75366211 558.76586914 C-319.10279918 562.75771228 -324.38971465 566.82524656 -329.66796875 570.91015625 C-331.98371089 572.67530235 -334.32137577 574.37654795 -336.7109375 576.0390625 C-339.5088872 577.75136427 -339.5088872 577.75136427 -340.4609375 580.0390625 C-344.52627217 578.27505194 -347.89703154 575.58022683 -351.3984375 572.9140625 C-352.09300049 572.3890918 -352.78756348 571.86412109 -353.50317383 571.32324219 C-355.82544715 569.56579102 -358.14354784 567.80294749 -360.4609375 566.0390625 C-361.27369141 565.4212793 -362.08644531 564.80349609 -362.92382812 564.16699219 C-370.01900409 558.77278986 -377.10380771 553.3650205 -384.18847656 547.95703125 C-393.74485481 540.66355392 -403.3106897 533.38521595 -412.93798828 526.18554688 C-417.92409339 522.45263396 -422.8657988 518.66474646 -427.796875 514.859375 C-438.627133 506.51092315 -449.50953368 498.22795004 -460.4609375 490.0390625 C-471.09442411 482.08770119 -481.63443246 474.01332271 -492.18847656 465.95703125 C-501.2195159 459.0644953 -510.25154488 452.17372319 -519.3359375 445.3515625 C-519.95960205 444.88266602 -520.5832666 444.41376953 -521.22583008 443.93066406 C-525.2626134 440.90651811 -529.34764904 437.95834011 -533.4609375 435.0390625 C-533.1309375 434.3790625 -532.8009375 433.7190625 -532.4609375 433.0390625 C-531.85765625 432.90757812 -531.254375 432.77609375 -530.6328125 432.640625 C-527.81028603 431.85884609 -526.70039948 430.54328008 -524.7109375 428.4140625 C-522.18674233 425.79296039 -519.66554979 423.27726079 -516.8984375 420.9140625 C-512.81157901 417.40179204 -508.88945518 413.72592133 -504.9609375 410.0390625 C-500.59817223 405.94708225 -496.21598351 401.90743539 -491.6796875 398.0078125 C-488.38137187 395.08113807 -485.17716408 392.05539736 -481.9609375 389.0390625 C-477.54737433 384.90034053 -473.11585166 380.80888033 -468.53125 376.859375 C-463.98283338 372.86020115 -459.57499359 368.70139542 -455.13232422 364.58544922 C-448.96782385 358.88198072 -442.77585875 353.20857253 -436.5234375 347.6015625 C-432.63723152 344.11458153 -428.79250943 340.58574265 -424.9609375 337.0390625 C-420.33471433 332.75681642 -415.67415127 328.51698438 -410.98046875 324.30859375 C-406.10883505 319.92034696 -401.28881426 315.47532441 -396.4609375 311.0390625 C-385.18432904 300.67715993 -385.18432904 300.67715993 -379.5234375 295.6015625 C-375.63723152 292.11458153 -371.79250943 288.58574265 -367.9609375 285.0390625 C-363.33471433 280.75681642 -358.67415127 276.51698438 -353.98046875 272.30859375 C-349.10883505 267.92034696 -344.28881426 263.47532441 -339.4609375 259.0390625 C-328.18432904 248.67715993 -328.18432904 248.67715993 -322.5234375 243.6015625 C-318.06806946 239.60388877 -313.67010231 235.54705365 -309.27758789 231.48071289 C-305.23643866 227.74379368 -301.15383154 224.05607144 -297.0546875 220.3828125 C-294.00202069 217.62437863 -290.98011094 214.83404206 -287.9609375 212.0390625 C-283.33473943 207.75678971 -278.67415075 203.51698391 -273.98046875 199.30859375 C-269.10883505 194.92034696 -264.28881426 190.47532441 -259.4609375 186.0390625 C-253.00725844 180.10887579 -246.53761014 174.19895072 -240.015625 168.34375 C-235.13499718 163.94073714 -230.30101709 159.48653741 -225.4609375 155.0390625 C-214.18432904 144.67715993 -214.18432904 144.67715993 -208.5234375 139.6015625 C-204.63723152 136.11458153 -200.79250943 132.58574265 -196.9609375 129.0390625 C-192.33471433 124.75681642 -187.67415127 120.51698438 -182.98046875 116.30859375 C-178.10883505 111.92034696 -173.28881426 107.47532441 -168.4609375 103.0390625 C-162.00725844 97.10887579 -155.53761014 91.19895072 -149.015625 85.34375 C-144.13499718 80.94073714 -139.30101709 76.48653741 -134.4609375 72.0390625 C-123.18432904 61.67715993 -123.18432904 61.67715993 -117.5234375 56.6015625 C-113.63723152 53.11458153 -109.79250943 49.58574265 -105.9609375 46.0390625 C-101.33471433 41.75681642 -96.67415127 37.51698438 -91.98046875 33.30859375 C-87.10883505 28.92034696 -82.28881426 24.47532441 -77.4609375 20.0390625 C-71.61925686 14.67123175 -65.77448498 9.30679425 -59.8984375 3.9765625 C-59.11339844 3.26371094 -58.32835937 2.55085938 -57.51953125 1.81640625 C-53.29082039 -1.83456802 -48.65119529 -3.94547094 -43.5234375 -6.0234375 C-42.68941406 -6.36503906 -41.85539062 -6.70664063 -40.99609375 -7.05859375 C-26.68408069 -12.15270009 -12.20964493 -8.26877971 0 0 Z " fill="#0075B6" transform="translate(883.4609375,20.9609375)"/>
<path d="M0 0 C5.47282179 3.80264184 10.14443813 8.02585333 14.796875 12.7890625 C17.33202148 15.33319886 19.99609999 17.66480415 22.71875 20.00390625 C25.6109904 22.5346166 28.43074873 25.13852651 31.25 27.75 C32.08349976 28.52174561 32.08349976 28.52174561 32.93383789 29.30908203 C34.06552722 30.35715381 35.19711874 31.40533121 36.32861328 32.45361328 C43.31906915 38.92126556 50.3586692 45.33318225 57.4453125 51.6953125 C62.84387407 56.56557447 68.18730431 61.4965724 73.54101562 66.41601562 C78.67473745 71.13225563 83.81247157 75.84282591 89 80.5 C95.76796812 86.57603527 102.45720257 92.73818712 109.1484375 98.8984375 C115.4190464 104.67390227 115.4190464 104.67390227 121.8125 110.3125 C125.80641056 113.77053996 129.64680005 117.3871556 133.5 121 C137.96601013 125.1868845 142.44200224 129.34121054 147.08203125 133.3359375 C151.10860344 136.82946042 155.04499809 140.42591016 159 144 C154.22419087 147.87360289 149.33006691 151.58857398 144.4375 155.3125 C143.51001953 156.01890625 142.58253906 156.7253125 141.62695312 157.453125 C134.61747512 162.78508047 127.57826729 168.07623657 120.52539062 173.35058594 C114.46821636 177.88515287 108.44788649 182.46615958 102.4375 187.0625 C95.77903867 192.15357784 89.07679386 197.17546577 82.3125 202.125 C75.36377905 207.21018399 68.5430633 212.43574091 61.76879883 217.75048828 C56.41735769 221.93471384 50.98427915 225.99184863 45.5 230 C38.32356011 235.24553939 31.27091958 240.62782436 24.27075195 246.10595703 C19.34879987 249.9569765 14.38333235 253.7395465 9.37109375 257.47265625 C4.80403169 260.88400702 0.28116461 264.35372175 -4.25 267.8125 C-11.13151892 273.06229977 -18.01936418 278.30255197 -24.95849609 283.47607422 C-28.68736582 286.25691022 -32.39327144 289.06453314 -36.08203125 291.8984375 C-36.96044678 292.56866943 -37.8388623 293.23890137 -38.74389648 293.92944336 C-40.44244807 295.22577692 -42.13633799 296.52825214 -43.82446289 297.83813477 C-57.73337891 308.41175676 -70.7807727 311.3870453 -88 310 C-92.35089405 309.20849749 -96.03699853 307.94622179 -100 306 C-100.84820312 305.58363281 -101.69640625 305.16726563 -102.5703125 304.73828125 C-110.71148763 300.10874733 -117.21059238 293.41179547 -123.88671875 286.9375 C-127.20432199 283.72597835 -130.62202772 280.66401462 -134.11352539 277.64355469 C-136.92251689 275.19627492 -139.64859911 272.66346161 -142.375 270.125 C-147.03833223 265.8013584 -151.73696176 261.52181547 -156.47265625 257.27734375 C-159.84570372 254.23795167 -163.1911188 251.16873625 -166.52832031 248.09008789 C-168.90662618 245.90000707 -171.29891458 243.73988888 -173.73828125 241.6171875 C-183.88960031 232.77521916 -192.99261562 221.94966299 -194.17700195 207.90039062 C-194.46552009 197.33441968 -194.68593316 187.73910246 -190 178 C-189.39865234 176.73349609 -189.39865234 176.73349609 -188.78515625 175.44140625 C-183.71332879 166.01809784 -175.40439948 158.93908468 -167.359375 152.07421875 C-164.00318908 149.12366457 -160.75798609 146.05818518 -157.5 143 C-153.08664302 138.86106812 -148.65490347 134.76980862 -144.0703125 130.8203125 C-139.52189588 126.82113865 -135.11405609 122.66233292 -130.67138672 118.54638672 C-124.50688635 112.84291822 -118.31492125 107.16951003 -112.0625 101.5625 C-107.60713196 97.56482627 -103.20916481 93.50799115 -98.81665039 89.44165039 C-94.77550116 85.70473118 -90.69289404 82.01700894 -86.59375 78.34375 C-83.54108319 75.58531613 -80.51917344 72.79497956 -77.5 70 C-72.87380193 65.71772721 -68.21321325 61.47792141 -63.51953125 57.26953125 C-58.64789755 52.88128446 -53.82787676 48.43626191 -49 44 C-37.72339154 33.63809743 -37.72339154 33.63809743 -32.0625 28.5625 C-28.17628992 25.07551536 -24.33173928 21.54650367 -20.5 18 C-4.87203491 3.54631113 -4.87203491 3.54631113 0 0 Z " fill="#006CAE" transform="translate(194,600)"/>
<path d="M0 0 C2.97 0.99 5.94 1.98 9 3 C9 3.99 9 4.98 9 6 C5.06326356 4.68775452 2.77280706 3.08089673 0 0 Z " fill="#168AD3" transform="translate(835,1183)"/>
</svg>
